<svg id="Õ_1" data-name="Õº≤„ 1" xmlns="http://www.w3.org/2000/svg" viewBox="0 0 865.07 865.07"><defs><style>.cls-1,.cls-2,.cls-3{fill:none;stroke-miterlimit:10;stroke-width:0.5px;}.cls-1,.cls-2{stroke:#2e3192;}.cls-2{fill-rule:evenodd;}.cls-3{stroke:#363639;}</style></defs><title>Meghan Krampf - Mardi Gras Tea Light Holder by TorchIt [Converted]</title><line class="cls-1" x1="766.47" y1="577.31" x2="820.32" y2="577.31"/><line class="cls-1" x1="658.76" y1="577.31" x2="712.59" y2="577.31"/><line class="cls-1" x1="604.88" y1="577.31" x2="551.05" y2="577.31"/><polygon class="cls-2" points="766.47 569.23 712.6 569.23 712.6 577.32 658.76 577.32 658.76 569.23 604.88 569.23 604.88 577.32 551.04 577.32 551.04 569.23 497.17 569.23 497.17 577.32 443.32 577.32 443.32 523.44 451.4 523.44 451.4 469.6 443.32 469.6 443.32 415.72 451.4 415.72 451.4 361.88 443.32 361.88 443.32 316.09 497.17 316.09 497.17 308.02 551.04 308.02 551.04 316.09 604.88 316.09 604.88 308.02 658.76 308.02 658.76 316.09 712.59 316.09 712.59 308.02 766.47 308.02 766.47 316.09 820.32 316.09 820.32 361.88 812.24 361.88 812.24 415.72 820.32 415.72 820.32 469.6 812.24 469.6 812.24 523.44 820.32 523.44 820.32 577.32 766.47 577.32 766.47 569.23"/><polyline class="cls-2" points="497.17 577.31 443.32 577.32 443.32 623.11 451.4 623.11 451.4 676.95 443.32 676.95 443.32 730.83 451.4 730.83 451.4 784.66 443.32 784.66 443.32 838.53 497.17 838.53 497.17 830.45 551.04 830.45 551.04 838.53 604.88 838.53 604.88 830.45 658.76 830.45 658.76 838.53 712.6 838.53 712.6 830.45 766.47 830.45 766.47 838.53 820.32 838.53 820.32 784.66 812.24 784.66 812.24 730.83 820.32 730.83 820.32 676.95 812.24 676.95 812.24 623.11 820.32 623.11 820.32 577.32"/><polyline class="cls-2" points="443.32 577.31 389.47 577.31 389.47 569.23 335.6 569.23 335.6 577.31 281.76 577.31 281.76 569.23 227.88 569.23 227.88 577.31 174.05 577.31 174.05 569.23 120.17 569.23 120.17 577.31 66.32 577.31 66.32 523.44 74.4 523.44 74.4 469.6 66.32 469.6 66.32 415.72 74.4 415.72 74.4 361.88 66.32 361.88 66.32 316.09 120.17 316.09 120.17 308.02 174.05 308.02 174.05 316.09 227.88 316.09 227.88 308.02 281.76 308.02 281.76 316.09 335.6 316.09 335.6 308.02 389.47 308.02 389.47 316.09 443.32 316.09"/><polyline class="cls-2" points="443.32 361.88 435.24 361.88 435.24 415.72 443.32 415.72"/><polyline class="cls-2" points="443.32 469.6 435.24 469.6 435.24 523.44 443.32 523.44"/><polyline class="cls-2" points="389.47 569.23 389.47 577.31 443.32 577.31 443.32 623.11 435.24 623.11 435.24 676.94 443.32 676.94 443.32 730.82 435.24 730.82 435.24 784.66 443.32 784.66 443.32 838.53 389.47 838.53 389.47 830.45 335.6 830.45 335.6 838.53 281.76 838.53 281.76 830.45 227.88 830.45 227.88 838.53 174.05 838.53 174.05 830.45 120.17 830.45 120.17 838.53 66.32 838.53 66.32 784.66 74.4 784.66 74.4 730.82 66.32 730.82 66.32 676.94 74.4 676.94 74.4 623.11 66.32 623.11 66.32 577.31 120.17 577.31 120.17 569.23"/><polyline class="cls-2" points="174.05 569.23 174.05 577.31 227.88 577.31 227.88 569.23"/><polyline class="cls-2" points="281.76 569.23 281.76 577.31 335.6 577.31 335.6 569.23"/><polygon class="cls-2" points="567.18 241.98 559.11 241.98 559.11 188.1 567.18 188.1 567.18 134.26 559.11 134.26 559.11 80.38 567.18 80.38 567.18 34.61 612.96 34.61 612.96 26.53 666.83 26.53 666.83 34.61 720.67 34.61 720.67 26.53 774.55 26.53 774.55 34.61 820.32 34.61 820.32 80.38 828.4 80.38 828.4 134.26 820.32 134.26 820.32 188.1 828.4 188.1 828.4 241.98 820.32 241.98 820.32 287.75 774.55 287.75 774.55 295.83 720.67 295.83 720.67 287.75 666.83 287.75 666.83 295.83 612.96 295.83 612.96 287.75 567.18 287.75 567.18 241.98"/><path class="cls-2" d="M1467.49-599.9v78.81q-16.22-1.38-32.42-3.24a89.93,89.93,0,0,0-11-24.19C1437.39-564.74,1452.89-583.22,1467.49-599.9Z" transform="translate(-923.55 662.69)"/><path class="cls-2" d="M1439.52-595.06l-23.67,35.66A91,91,0,0,0,1403.52-571l35.52-24.1-.11.18c.31-.24.64-.46,1-.7C1439.76-595.41,1439.65-595.22,1439.52-595.06Z" transform="translate(-923.55 662.69)"/><path class="cls-2" d="M1440.24-619q-23.55,20.86-48.27,40.44a89.73,89.73,0,0,0-24.72-9.29c-1-9.86-2-20.41-2.89-31.15Z" transform="translate(-923.55 662.69)"/><path class="cls-2" d="M1336.73-589.18l6-29.86h5l5.75,29.28c-1.77-.1-3.55-.17-5.35-.17A91.12,91.12,0,0,0,1336.73-589.18Z" transform="translate(-923.55 662.69)"/><path class="cls-2" d="M1252.45-590.82c-.15-.18-.28-.38-.4-.57,1.91,1.39,3.87,2.75,5.78,4.14l30,20.46a90.86,90.86,0,0,0-10.92,11.72Z" transform="translate(-923.55 662.69)"/><path class="cls-2" d="M1228.8-591.32q20.81,23.47,40.28,48a89.74,89.74,0,0,0-9.25,24.56c-9.81,1-20.33,1.93-31,2.85Z" transform="translate(-923.55 662.69)"/><path class="cls-2" d="M1247.65-619h78.93q-1.39,16.33-3.27,32.6a89.93,89.93,0,0,0-24.11,10.94C1282.94-588.85,1264.39-604.43,1247.65-619Z" transform="translate(-923.55 662.69)"/><circle class="cls-1" cx="424.6" cy="163.15" r="84.44"/><path class="cls-2" d="M1233.44-493.54c-1.54-.26-3.1-.51-4.64-.75v-5.15l29.11-5.06c-.09,1.65-.14,3.3-.14,5a91.15,91.15,0,0,0,.7,11.08Z" transform="translate(-923.55 662.69)"/><path class="cls-2" d="M1274.56-428.87l6.68-9.91a90.93,90.93,0,0,0,11.46,10.59l-34.88,24.1.64-1c-.7.51-1.41,1-2.13,1.52Q1265.68-416,1274.56-428.87Z" transform="translate(-923.55 662.69)"/><path class="cls-2" d="M1261-384.39q21.17-18.6,43.23-36.13A89.72,89.72,0,0,0,1329-411.2c.85,8.52,1.71,17.55,2.52,26.8Z" transform="translate(-923.55 662.69)"/><path class="cls-2" d="M1228.8-399.17v-78.7q16.26,1.37,32.47,3.23a90,90,0,0,0,10.91,24C1258.9-434.35,1243.4-415.86,1228.8-399.17Z" transform="translate(-923.55 662.69)"/><path class="cls-2" d="M1359-409.81l-4.55,25.42h-6.29l-4.93-24.89c1.64.09,3.29.14,5,.14A91.07,91.07,0,0,0,1359-409.81Z" transform="translate(-923.55 662.69)"/><path class="cls-2" d="M1437.45-417.13c2.25,3.12,4.47,6.27,6.73,9.37l-.94-.66.44.64-35.09-24.55a90.94,90.94,0,0,0,10.91-11.74Z" transform="translate(-923.55 662.69)"/><path class="cls-2" d="M1467.49-407.53q-20.83-23.48-40.32-48.11a89.74,89.74,0,0,0,9.32-24.72c9.81-1,20.31-2,31-2.86Z" transform="translate(-923.55 662.69)"/><path class="cls-2" d="M1443.55-384.39h-73.44q1.26-14.14,2.87-28.23a89.91,89.91,0,0,0,23.95-10.83C1411.61-411.46,1428.15-397.69,1443.55-384.39Z" transform="translate(-923.55 662.69)"/><path class="cls-2" d="M1437.87-510.47l29.63,5.64v5l-29.1,5.42c.09-1.7.15-3.41.15-5.13A91.11,91.11,0,0,0,1437.87-510.47Z" transform="translate(-923.55 662.69)"/><polygon class="cls-2" points="551.03 134.26 551.03 188.1 559.11 188.1 559.11 241.98 551.03 241.98 551.03 287.75 505.26 287.75 505.26 295.83 451.38 295.83 451.38 287.75 397.54 287.75 397.54 295.83 343.66 295.83 343.66 287.75 297.89 287.75 297.89 241.98 289.82 241.98 289.82 188.1 297.89 188.1 297.89 134.26 289.82 134.26 289.82 80.38 297.89 80.38 297.89 34.61 343.66 34.61 343.66 26.54 397.54 26.54 397.54 34.61 451.38 34.61 451.38 26.54 505.26 26.54 505.26 34.61 551.03 34.61 551.03 80.38 559.11 80.38 559.11 134.26 551.03 134.26"/><circle class="cls-1" cx="163.25" cy="161.18" r="53.85"/><rect class="cls-1" x="36.67" y="34.61" width="253.15" height="253.13"/><path class="cls-2" d="M1562.06-152.66c-.32.2-.81.32-.92.6-1.17,2.95-3.61,4.18-6.45,4.85-2.4.56-4.83,1-7.23,1.55-6.2,1.47-9.64,5-10.34,10.5a5.22,5.22,0,0,0,3.16,5.83c3,1,8.26-.81,9.95-3.45,1.19-1.87.43-3.33-1.83-3.48,1.39,1.65,1.35,2.28-.57,3.19a13.27,13.27,0,0,1-4.1,1.2c-2.65.3-3.72-1-3.06-3.58a8.94,8.94,0,0,1,6.27-6.5c2.6-.87,5.22-1.66,7.81-2.53,4-1.34,6.8-3.76,7.26-8.23,1.44-.5.85.44.72,1a58,58,0,0,0-1.66,7.8c-.49,6.45,3.79,10.84,10.28,10.88,3.81,0,6.39-1.46,7.49-4.31a7.47,7.47,0,0,0-2.16-7.85,4.4,4.4,0,0,0-6.77.89l1.09-.31c2.81-.75,4.69.45,5.17,3.32s-.89,4.42-3.79,4.69c-5.05.48-8.54-2.51-8.71-7.6-.08-2.46.17-4.93.12-7.4a5.21,5.21,0,0,1,2.21-4.32c5-4.31,10-8.61,14.71-13.15,7.37-7,9.32-15.66,5.45-24.53-3.36-7.71-4.35-7.52-11.16-5.64-7.2,2-12.62,6.13-15,13.59a31.55,31.55,0,0,0-.76,13.64C1560.1-165.52,1561.12-159.09,1562.06-152.66Z" transform="translate(-923.55 662.69)"/><path class="cls-2" d="M1562.57-287.61a8.89,8.89,0,0,1,.29,2.33c-.83,5.77-1.85,11.51-2.6,17.28-.72,5.51-.56,11,2,16.09,3.79,7.43,10.57,10.42,18.37,11.49a4.7,4.7,0,0,0,3.72-1.55c5.92-8.13,6.9-18.44-.09-26.55a137.82,137.82,0,0,0-13-12.54c-6.83-6.09-6.9-6-6.56-15.12,0-.14,0-.27,0-.41.29-4.89,3.58-7.76,8.5-7.41,1.64.12,3.47.52,3.72,2.3a8.45,8.45,0,0,1-.89,4.79c-.84,1.58-2.61,1.49-4.23.9a10.21,10.21,0,0,0-1-.24c1.71,2,3.66,2.6,5.63,1.66,2.64-1.25,3.69-3.57,3.78-6.35a5.55,5.55,0,0,0-3.55-5.75,11,11,0,0,0-11.42,1.68c-3.05,2.45-3.62,5.88-3.06,9.51.4,2.56,1.11,5.07,1.72,7.72l-1.35.18a11.23,11.23,0,0,0-.21-3c-1.19-3.42-4.2-4.7-7.27-5.78-2.32-.82-4.78-1.31-7-2.32a14.64,14.64,0,0,1-4.79-3.33c-1.4-1.55-2.67-3.89-1.27-5.79s3.92-.87,5.9-.18a4.21,4.21,0,0,1,2.27,1.6c.27.5-.42,1.51-.68,2.27,2.53-.75,3.09-2.42,1.28-4.29a10,10,0,0,0-7.16-3.09c-3.46-.09-5.72,2-5.47,5.38.3,4.13,2,7.72,5.92,9.42a55.37,55.37,0,0,0,9.41,2.74C1557.38-293,1561.13-292,1562.57-287.61Z" transform="translate(-923.55 662.69)"/><path class="cls-2" d="M1576.69-220.68c-.8-.45-1.44-.83-2.09-1.19a117.52,117.52,0,0,1-21.37-15c-8.08-7.16-15.34-15.08-19.63-25.08-3-7-5.19-14.43-7.48-21.75-2-6.46-4.3-12.74-8.71-18-5.21-6.23-12.08-9.52-19.84-11.26-2.16-.48-4.32-1-7-1.6,8-4.15,15.66-7.42,24.13-8.35a87.13,87.13,0,0,1,20.32.4c1.35.17,2.71.26,4.54.44-2.2-3.44-4.12-6.29-5.87-9.23a3.49,3.49,0,0,0-3.46-1.86q-64.13.07-128.25,0h-2.14V-107h2.62c40.9,0,81.8-.09,122.7.12,4.54,0,7.46-1,9.32-5.19a45.56,45.56,0,0,1,3.77-6l-.23-.58c-16.79,2.88-33,1.88-48.14-7.45,2.39-.55,4.5-1.06,6.62-1.52,9.75-2.12,17.7-6.87,23-15.59,3-4.93,4.62-10.37,6.2-15.84,2.44-8.43,4.79-16.94,9.35-24.53,7-11.61,16.62-20.72,27.7-28.33C1567.17-215,1571.87-217.67,1576.69-220.68Z" transform="translate(-923.55 662.69)"/><path class="cls-2" d="M1575.07-107.18h135.82V-332.9H1575.62c1.18,1.05,2,1.69,2.7,2.43,14.92,15.37,25.62,33,28.87,54.52a73.63,73.63,0,0,1-2.14,32.57c-2.5,8.32-7.34,15.43-11.47,22.92a2.63,2.63,0,0,0-.06,2.14c1.11,2.12,2.39,4.16,3.65,6.21a66.59,66.59,0,0,1,9.88,36.43c-.2,19.28-6.83,36.39-18.11,51.75C1584.65-118.08,1579.69-112.73,1575.07-107.18Z" transform="translate(-923.55 662.69)"/><path class="cls-2" d="M1587-154.41c13.23-8.95,12.68-28.33,6.53-41,0,4.05.2,7.68,0,11.27-.5,7.27-2.19,14.22-6.87,20.07a51.52,51.52,0,0,1-3.72,3.78l6-.46Z" transform="translate(-923.55 662.69)"/><path class="cls-2" d="M1584-278.63c10.78,9.57,11,21.94,10.88,34.59,7.86-11.09,3.64-36.38-6.59-40.08l1.75,6Z" transform="translate(-923.55 662.69)"/><path class="cls-2" d="M1551.39-162.43c-.4-2.52-1.32-4.08-3.3-4.8a5.27,5.27,0,0,0-5.68,1.9c-2.56,3-2.62,7.64-.15,11.71,3.62,6,13,6.8,16.9,1.74a43.33,43.33,0,0,1-6.84.6c-5.54-.34-9.64-5.81-8.1-10.77a5,5,0,0,1,2.68-3c.85-.29,2.21.81,3.31,1.36C1550.54-163.48,1550.76-163.1,1551.39-162.43Z" transform="translate(-923.55 662.69)"/><path class="cls-2" d="M1552.4-278a8.82,8.82,0,0,0-.93.82c-1,1.24-2.31,2.51-3.8,1.59a6.23,6.23,0,0,1-2.54-3.64c-.86-4,1.87-8.14,5.77-9.53,3.22-1.15,6.32-.66,9.84.64a12.63,12.63,0,0,0-1-1.25,11.12,11.12,0,0,0-16.51,2.54c-2.7,4.49-2.15,9.89,1.29,12.56a4.66,4.66,0,0,0,5,.76C1551.25-274.26,1552.15-275.73,1552.4-278Z" transform="translate(-923.55 662.69)"/><path class="cls-2" d="M1563.14-115.53l-20.38,8.17c5.91.32,11.76.34,17.62.28a1.48,1.48,0,0,0,1.11-.84C1562.07-110.29,1562.54-112.68,1563.14-115.53Z" transform="translate(-923.55 662.69)"/><path class="cls-2" d="M1545.11-333.09l0,.39,19.07,7.69c-.56-2.74-1-5-1.53-7.25a1.49,1.49,0,0,0-1.15-.8C1556-333.11,1550.56-333.09,1545.11-333.09Z" transform="translate(-923.55 662.69)"/><path class="cls-2" d="M1576.69-220.68c-4.82,3-9.52,5.71-14,8.78-11.08,7.61-20.72,16.72-27.7,28.33-4.56,7.59-6.91,16.09-9.35,24.53-1.58,5.47-3.22,10.92-6.2,15.84-5.27,8.71-13.22,13.47-23,15.59-2.12.46-4.23,1-6.62,1.52,15.19,9.33,31.35,10.33,48.14,7.45l.23.58a45.56,45.56,0,0,0-3.77,6c-1.86,4.21-4.78,5.21-9.32,5.19-40.9-.21-81.8-.12-122.7-.12h-2.62V-333.09H1402q64.13,0,128.25,0a3.49,3.49,0,0,1,3.46,1.86c1.75,2.94,3.67,5.79,5.87,9.23-1.82-.17-3.18-.27-4.54-.44a87.13,87.13,0,0,0-20.32-.4c-8.47.93-16.11,4.2-24.13,8.35,2.67.61,4.83,1.11,7,1.6,7.76,1.74,14.64,5,19.84,11.26,4.41,5.27,6.69,11.55,8.71,18,2.29,7.32,4.46,14.72,7.48,21.75,4.29,10,11.55,17.92,19.63,25.08a117.52,117.52,0,0,0,21.37,15C1575.26-221.51,1575.9-221.14,1576.69-220.68Z" transform="translate(-923.55 662.69)"/><path class="cls-2" d="M1575.07-107.18c4.63-5.55,9.58-10.9,13.87-16.74,11.28-15.36,17.9-32.47,18.11-51.75a66.59,66.59,0,0,0-9.88-36.43c-1.26-2-2.54-4.08-3.65-6.21a2.63,2.63,0,0,1,.06-2.14c4.13-7.49,9-14.6,11.47-22.92a73.63,73.63,0,0,0,2.14-32.57c-3.25-21.53-13.95-39.15-28.87-54.52-.71-.73-1.52-1.37-2.7-2.43h135.27v225.72Z" transform="translate(-923.55 662.69)"/><path class="cls-2" d="M1562.53-287.57l1.36-.19c-.6-2.66-1.32-5.17-1.72-7.72-.57-3.63,0-7.06,3.06-9.51a11,11,0,0,1,11.42-1.68,5.55,5.55,0,0,1,3.55,5.75c-.09,2.79-1.14,5.1-3.78,6.35-2,.94-3.92.36-5.63-1.66a10.21,10.21,0,0,1,1,.24c1.62.59,3.4.68,4.23-.9a8.45,8.45,0,0,0,.89-4.79c-.24-1.78-2.07-2.18-3.72-2.3-4.92-.35-8.21,2.53-8.5,7.41,0,.14,0,.27,0,.41-.34,9.12-.27,9,6.56,15.12a137.82,137.82,0,0,1,13,12.54c7,8.11,6,18.42.09,26.55a4.7,4.7,0,0,1-3.72,1.55c-7.79-1.06-14.58-4.06-18.37-11.49-2.58-5.06-2.74-10.58-2-16.09.75-5.78,1.77-11.52,2.6-17.28a8.89,8.89,0,0,0-.29-2.33Z" transform="translate(-923.55 662.69)"/><path class="cls-2" d="M1562.06-152.66c-.94-6.44-2-12.86-2.79-19.31a31.55,31.55,0,0,1,.76-13.64c2.34-7.46,7.77-11.6,15-13.59,6.81-1.88,7.8-2.07,11.16,5.64,3.86,8.87,1.92,17.48-5.45,24.53-4.75,4.54-9.74,8.85-14.71,13.15a5.21,5.21,0,0,0-2.21,4.32c.06,2.46-.2,4.94-.12,7.4.17,5.1,3.65,8.08,8.71,7.6,2.9-.27,4.25-2,3.79-4.69s-2.36-4.07-5.17-3.32l-1.09.31a4.4,4.4,0,0,1,6.77-.89,7.47,7.47,0,0,1,2.16,7.85c-1.1,2.85-3.68,4.33-7.49,4.31-6.5,0-10.78-4.43-10.28-10.88a58,58,0,0,1,1.66-7.8c.13-.59.71-1.53-.72-1Z" transform="translate(-923.55 662.69)"/><path class="cls-2" d="M1587-154.41l1.88-6.32-6,.46a51.52,51.52,0,0,0,3.72-3.78c4.69-5.85,6.37-12.8,6.87-20.07.25-3.59,0-7.22,0-11.27C1599.68-182.74,1600.23-163.36,1587-154.41Z" transform="translate(-923.55 662.69)"/><path class="cls-2" d="M1584-278.63l6,.52-1.75-6c10.22,3.7,14.44,29,6.59,40.08C1595-256.7,1594.79-269.07,1584-278.63Z" transform="translate(-923.55 662.69)"/><path class="cls-2" d="M1562.57-287.61c-1.44-4.41-5.19-5.38-9.1-6.29a55.37,55.37,0,0,1-9.41-2.74c-4-1.7-5.61-5.3-5.92-9.42-.25-3.42,2-5.48,5.47-5.38a10,10,0,0,1,7.16,3.09c1.81,1.87,1.25,3.54-1.28,4.29.25-.76.94-1.77.68-2.27a4.21,4.21,0,0,0-2.27-1.6c-2-.68-4.41-1.84-5.9.18s-.13,4.24,1.27,5.79a14.64,14.64,0,0,0,4.79,3.33c2.23,1,4.69,1.5,7,2.32,3.08,1.08,6.09,2.36,7.27,5.78a11,11,0,0,1,.2,3Z" transform="translate(-923.55 662.69)"/><path class="cls-2" d="M1562-152.71c-.46,4.48-3.26,6.89-7.26,8.23-2.6.87-5.22,1.66-7.81,2.53a8.94,8.94,0,0,0-6.27,6.5c-.66,2.56.41,3.88,3.06,3.58a13.27,13.27,0,0,0,4.1-1.2c1.92-.91,2-1.54.57-3.19,2.26.15,3,1.61,1.83,3.48-1.68,2.64-7,4.47-9.95,3.45a5.22,5.22,0,0,1-3.16-5.83c.7-5.51,4.14-9,10.34-10.5,2.4-.57,4.83-1,7.23-1.55,2.84-.67,5.28-1.9,6.45-4.85.11-.28.61-.4.93-.6Z" transform="translate(-923.55 662.69)"/><path class="cls-2" d="M1551.39-162.43c-.63-.67-.85-1.05-1.18-1.22-1.1-.55-2.46-1.66-3.31-1.36a5,5,0,0,0-2.68,3c-1.54,5,2.56,10.42,8.1,10.77a43.33,43.33,0,0,0,6.84-.6c-3.85,5.07-13.28,4.22-16.9-1.74-2.47-4.07-2.41-8.68.15-11.71a5.27,5.27,0,0,1,5.68-1.9C1550.07-166.51,1551-165,1551.39-162.43Z" transform="translate(-923.55 662.69)"/><path class="cls-2" d="M1552.4-278c-.24,2.23-1.15,3.7-2.88,4.49a4.66,4.66,0,0,1-5-.76c-3.44-2.67-4-8.07-1.29-12.56a11.12,11.12,0,0,1,16.51-2.54,12.63,12.63,0,0,1,1,1.25c-3.52-1.29-6.62-1.78-9.84-.64-3.91,1.39-6.63,5.51-5.77,9.53a6.23,6.23,0,0,0,2.54,3.64c1.48.91,2.8-.35,3.8-1.59A8.82,8.82,0,0,1,1552.4-278Z" transform="translate(-923.55 662.69)"/><path class="cls-2" d="M1563.14-115.53c-.6,2.85-1.07,5.25-1.65,7.61a1.48,1.48,0,0,1-1.11.84c-5.86.05-11.71,0-17.62-.28Z" transform="translate(-923.55 662.69)"/><path class="cls-2" d="M1545.11-333.09c5.45,0,10.91,0,16.36,0a1.49,1.49,0,0,1,1.15.8c.55,2.24,1,4.51,1.53,7.25l-19.07-7.69Z" transform="translate(-923.55 662.69)"/><path class="cls-2" d="M1185.06-152.67c-.32.2-.81.32-.92.6-1.17,2.95-3.61,4.18-6.45,4.85-2.4.56-4.83,1-7.23,1.55-6.2,1.47-9.64,5-10.34,10.5a5.22,5.22,0,0,0,3.16,5.83c3,1,8.26-.81,9.95-3.45,1.19-1.87.43-3.33-1.83-3.48,1.39,1.65,1.35,2.28-.57,3.19a13.27,13.27,0,0,1-4.1,1.2c-2.65.3-3.72-1-3.06-3.58a8.94,8.94,0,0,1,6.27-6.5c2.6-.87,5.22-1.66,7.81-2.53,4-1.34,6.8-3.76,7.26-8.23,1.44-.5.85.44.72,1a58,58,0,0,0-1.66,7.8c-.5,6.45,3.79,10.84,10.28,10.88,3.81,0,6.39-1.46,7.49-4.31a7.47,7.47,0,0,0-2.16-7.85,4.4,4.4,0,0,0-6.77.89l1.09-.31c2.81-.75,4.69.45,5.17,3.32s-.89,4.42-3.79,4.69c-5.05.48-8.54-2.51-8.71-7.6-.08-2.46.17-4.93.12-7.4a5.21,5.21,0,0,1,2.21-4.32c5-4.31,10-8.61,14.71-13.15,7.37-7,9.32-15.66,5.45-24.53-3.36-7.71-4.35-7.52-11.16-5.64-7.2,2-12.62,6.13-15,13.59a31.55,31.55,0,0,0-.76,13.64C1183.1-165.53,1184.13-159.1,1185.06-152.67Z" transform="translate(-923.55 662.69)"/><path class="cls-2" d="M1185.57-287.62a8.89,8.89,0,0,1,.29,2.33c-.83,5.77-1.85,11.51-2.6,17.28-.72,5.51-.56,11,2,16.09,3.79,7.43,10.57,10.42,18.37,11.49a4.7,4.7,0,0,0,3.72-1.55c5.92-8.13,6.9-18.44-.09-26.55a137.85,137.85,0,0,0-13-12.54c-6.83-6.09-6.9-6-6.56-15.12,0-.14,0-.27,0-.41.29-4.89,3.58-7.76,8.5-7.41,1.64.12,3.47.52,3.72,2.3a8.45,8.45,0,0,1-.89,4.79c-.84,1.58-2.61,1.49-4.23.9a10.21,10.21,0,0,0-1-.24c1.71,2,3.66,2.6,5.63,1.66,2.64-1.25,3.69-3.57,3.78-6.35a5.55,5.55,0,0,0-3.55-5.75,11,11,0,0,0-11.42,1.68c-3.05,2.45-3.62,5.88-3.06,9.51.4,2.56,1.11,5.07,1.72,7.72l-1.35.18a11.24,11.24,0,0,0-.21-3c-1.18-3.42-4.2-4.7-7.27-5.78-2.32-.82-4.78-1.31-7-2.32a14.64,14.64,0,0,1-4.79-3.33c-1.4-1.55-2.67-3.89-1.27-5.79s3.92-.87,5.9-.18a4.21,4.21,0,0,1,2.27,1.6c.27.5-.42,1.51-.68,2.27,2.53-.75,3.09-2.42,1.28-4.29a10,10,0,0,0-7.16-3.09c-3.46-.09-5.72,2-5.47,5.38.3,4.13,2,7.72,5.92,9.42a55.36,55.36,0,0,0,9.41,2.74C1180.38-293,1184.13-292,1185.57-287.62Z" transform="translate(-923.55 662.69)"/><path class="cls-2" d="M1199.7-220.69c-.8-.45-1.44-.83-2.09-1.19a117.52,117.52,0,0,1-21.37-15c-8.08-7.16-15.34-15.08-19.63-25.08-3-7-5.19-14.43-7.48-21.75-2-6.46-4.3-12.74-8.71-18-5.21-6.23-12.08-9.52-19.84-11.26-2.16-.48-4.32-1-7-1.6,8-4.15,15.66-7.42,24.13-8.35a87.13,87.13,0,0,1,20.32.4c1.35.17,2.71.26,4.54.44-2.2-3.44-4.12-6.29-5.87-9.23a3.49,3.49,0,0,0-3.46-1.86q-64.13.07-128.25,0h-2.14V-107h2.62c40.9,0,81.8-.09,122.7.12,4.54,0,7.46-1,9.32-5.19a45.58,45.58,0,0,1,3.77-6l-.23-.58c-16.79,2.88-33,1.88-48.14-7.45,2.39-.55,4.5-1.06,6.62-1.52,9.75-2.12,17.7-6.87,23-15.59,3-4.93,4.62-10.37,6.2-15.84,2.44-8.43,4.79-16.94,9.35-24.53,7-11.61,16.62-20.72,27.7-28.33C1190.17-215,1194.87-217.68,1199.7-220.69Z" transform="translate(-923.55 662.69)"/><path class="cls-2" d="M1198.07-107.19h135.82V-332.9H1198.62c1.18,1.05,2,1.69,2.7,2.43,14.92,15.37,25.62,33,28.87,54.52a73.63,73.63,0,0,1-2.14,32.57c-2.5,8.32-7.34,15.43-11.47,22.92a2.63,2.63,0,0,0-.06,2.14c1.11,2.12,2.39,4.16,3.65,6.21a66.59,66.59,0,0,1,9.88,36.43c-.2,19.28-6.83,36.39-18.11,51.75C1207.65-118.08,1202.69-112.73,1198.07-107.19Z" transform="translate(-923.55 662.69)"/><path class="cls-2" d="M1210-154.42c13.23-8.95,12.68-28.33,6.53-41,0,4.05.2,7.68,0,11.27-.5,7.27-2.19,14.22-6.87,20.07a51.48,51.48,0,0,1-3.72,3.78l6-.46Z" transform="translate(-923.55 662.69)"/><path class="cls-2" d="M1207-278.64c10.78,9.57,11,21.94,10.88,34.59,7.86-11.09,3.64-36.38-6.59-40.08l1.75,6Z" transform="translate(-923.55 662.69)"/><path class="cls-2" d="M1174.39-162.44c-.4-2.52-1.32-4.08-3.3-4.8a5.27,5.27,0,0,0-5.68,1.9c-2.56,3-2.62,7.64-.15,11.71,3.62,6,13,6.8,16.9,1.74a43.33,43.33,0,0,1-6.84.6c-5.54-.34-9.64-5.81-8.1-10.77a5,5,0,0,1,2.68-3c.85-.3,2.21.81,3.31,1.36C1173.55-163.49,1173.76-163.1,1174.39-162.44Z" transform="translate(-923.55 662.69)"/><path class="cls-2" d="M1175.4-278a8.83,8.83,0,0,0-.93.82c-1,1.24-2.31,2.51-3.8,1.59a6.23,6.23,0,0,1-2.54-3.64c-.86-4,1.87-8.14,5.77-9.53,3.22-1.15,6.32-.66,9.84.64a12.6,12.6,0,0,0-1-1.25,11.12,11.12,0,0,0-16.51,2.54c-2.7,4.49-2.15,9.89,1.29,12.56a4.66,4.66,0,0,0,5,.76C1174.25-274.27,1175.16-275.74,1175.4-278Z" transform="translate(-923.55 662.69)"/><path class="cls-2" d="M1186.14-115.54l-20.38,8.17c5.91.32,11.76.34,17.62.28a1.48,1.48,0,0,0,1.11-.84C1185.07-110.29,1185.54-112.69,1186.14-115.54Z" transform="translate(-923.55 662.69)"/><path class="cls-2" d="M1168.11-333.09l0,.39,19.07,7.69c-.56-2.74-1-5-1.53-7.25a1.49,1.49,0,0,0-1.15-.8C1179-333.11,1173.56-333.09,1168.11-333.09Z" transform="translate(-923.55 662.69)"/><path class="cls-2" d="M1199.7-220.69c-4.82,3-9.52,5.71-14,8.78-11.08,7.61-20.72,16.72-27.7,28.33-4.56,7.59-6.91,16.09-9.35,24.53-1.58,5.47-3.22,10.92-6.2,15.84-5.27,8.71-13.22,13.47-23,15.59-2.12.46-4.23,1-6.62,1.52,15.19,9.33,31.35,10.33,48.14,7.45l.23.58a45.58,45.58,0,0,0-3.77,6c-1.86,4.21-4.78,5.21-9.32,5.19-40.9-.21-81.8-.12-122.7-.12h-2.62V-333.1H1025q64.13,0,128.25,0a3.49,3.49,0,0,1,3.46,1.86c1.75,2.94,3.67,5.79,5.87,9.23-1.82-.17-3.18-.27-4.54-.44a87.13,87.13,0,0,0-20.32-.4c-8.47.93-16.11,4.2-24.13,8.35,2.67.61,4.83,1.11,7,1.6,7.76,1.74,14.64,5,19.84,11.26,4.41,5.27,6.69,11.55,8.71,18,2.29,7.32,4.46,14.72,7.48,21.75,4.29,10,11.55,17.92,19.63,25.08a117.52,117.52,0,0,0,21.37,15C1198.26-221.52,1198.9-221.14,1199.7-220.69Z" transform="translate(-923.55 662.69)"/><path class="cls-2" d="M1198.07-107.19c4.63-5.55,9.58-10.9,13.87-16.74,11.28-15.36,17.9-32.47,18.11-51.75a66.59,66.59,0,0,0-9.88-36.43c-1.26-2-2.54-4.08-3.65-6.21a2.63,2.63,0,0,1,.06-2.14c4.13-7.49,9-14.6,11.47-22.92a73.63,73.63,0,0,0,2.14-32.57c-3.25-21.53-13.95-39.15-28.87-54.52-.71-.73-1.52-1.37-2.7-2.43h135.27v225.72Z" transform="translate(-923.55 662.69)"/><path class="cls-2" d="M1185.53-287.58l1.36-.19c-.6-2.66-1.32-5.17-1.72-7.72-.57-3.63,0-7.06,3.06-9.51a11,11,0,0,1,11.42-1.68,5.55,5.55,0,0,1,3.55,5.75c-.09,2.79-1.14,5.1-3.78,6.35-2,.94-3.92.36-5.63-1.66a10.21,10.21,0,0,1,1,.24c1.62.59,3.39.68,4.23-.9a8.45,8.45,0,0,0,.89-4.79c-.24-1.78-2.07-2.18-3.72-2.3-4.92-.35-8.21,2.53-8.5,7.41,0,.14,0,.27,0,.41-.34,9.12-.27,9,6.56,15.12a137.85,137.85,0,0,1,13,12.54c7,8.11,6,18.42.09,26.55a4.7,4.7,0,0,1-3.72,1.55c-7.79-1.06-14.58-4.06-18.37-11.49-2.58-5.06-2.74-10.58-2-16.09.75-5.78,1.77-11.52,2.6-17.28a8.89,8.89,0,0,0-.29-2.33Z" transform="translate(-923.55 662.69)"/><path class="cls-2" d="M1185.06-152.66c-.94-6.44-2-12.86-2.79-19.31a31.55,31.55,0,0,1,.76-13.64c2.34-7.46,7.77-11.6,15-13.59,6.81-1.88,7.8-2.07,11.16,5.64,3.86,8.87,1.92,17.48-5.45,24.53-4.75,4.54-9.74,8.85-14.71,13.15a5.21,5.21,0,0,0-2.21,4.32c.06,2.46-.2,4.94-.12,7.4.17,5.1,3.65,8.08,8.71,7.6,2.9-.27,4.25-2,3.79-4.69s-2.36-4.07-5.17-3.32l-1.09.31a4.4,4.4,0,0,1,6.77-.89,7.47,7.47,0,0,1,2.16,7.85c-1.1,2.85-3.68,4.33-7.49,4.31-6.5,0-10.78-4.43-10.28-10.88a58,58,0,0,1,1.66-7.8c.13-.59.71-1.53-.72-1Z" transform="translate(-923.55 662.69)"/><path class="cls-2" d="M1210-154.42l1.88-6.32-6,.46a51.48,51.48,0,0,0,3.72-3.78c4.69-5.85,6.37-12.8,6.87-20.07.25-3.59,0-7.22,0-11.27C1222.68-182.74,1223.23-163.36,1210-154.42Z" transform="translate(-923.55 662.69)"/><path class="cls-2" d="M1207-278.64l6,.52-1.75-6c10.22,3.7,14.44,29,6.59,40.08C1218-256.71,1217.79-269.07,1207-278.64Z" transform="translate(-923.55 662.69)"/><path class="cls-2" d="M1185.57-287.62c-1.44-4.41-5.19-5.38-9.1-6.29a55.36,55.36,0,0,1-9.41-2.74c-4-1.7-5.61-5.3-5.92-9.42-.25-3.42,2-5.48,5.47-5.38a10,10,0,0,1,7.16,3.09c1.81,1.87,1.26,3.54-1.28,4.29.25-.76.94-1.77.68-2.27a4.21,4.21,0,0,0-2.27-1.6c-2-.68-4.41-1.84-5.9.18s-.13,4.24,1.27,5.79a14.64,14.64,0,0,0,4.79,3.33c2.23,1,4.69,1.5,7,2.32,3.08,1.08,6.09,2.36,7.27,5.78a11,11,0,0,1,.2,3Z" transform="translate(-923.55 662.69)"/><path class="cls-2" d="M1185-152.72c-.46,4.48-3.26,6.89-7.26,8.23-2.6.87-5.22,1.66-7.81,2.53a8.94,8.94,0,0,0-6.27,6.5c-.66,2.56.41,3.88,3.06,3.58a13.27,13.27,0,0,0,4.1-1.2c1.92-.91,2-1.54.57-3.19,2.26.15,3,1.61,1.83,3.48-1.68,2.64-7,4.47-9.95,3.45a5.22,5.22,0,0,1-3.16-5.83c.7-5.51,4.14-9,10.34-10.5,2.4-.57,4.83-1,7.23-1.55,2.84-.67,5.28-1.9,6.45-4.85.11-.28.61-.4.93-.6Z" transform="translate(-923.55 662.69)"/><path class="cls-2" d="M1174.39-162.44c-.63-.67-.85-1.05-1.17-1.22-1.1-.55-2.46-1.66-3.31-1.36a5,5,0,0,0-2.68,3c-1.54,5,2.56,10.42,8.1,10.77a43.33,43.33,0,0,0,6.84-.6c-3.85,5.07-13.28,4.22-16.9-1.74-2.47-4.07-2.41-8.68.15-11.71a5.27,5.27,0,0,1,5.68-1.9C1173.07-166.51,1174-165,1174.39-162.44Z" transform="translate(-923.55 662.69)"/><path class="cls-2" d="M1175.4-278c-.24,2.23-1.15,3.7-2.88,4.49a4.66,4.66,0,0,1-5-.76c-3.44-2.67-4-8.07-1.29-12.56a11.12,11.12,0,0,1,16.51-2.54,12.6,12.6,0,0,1,1,1.25c-3.52-1.29-6.62-1.78-9.84-.64-3.91,1.39-6.63,5.51-5.77,9.53a6.23,6.23,0,0,0,2.54,3.64c1.48.91,2.8-.35,3.8-1.59A8.83,8.83,0,0,1,1175.4-278Z" transform="translate(-923.55 662.69)"/><path class="cls-2" d="M1186.14-115.54c-.6,2.85-1.07,5.25-1.65,7.61a1.48,1.48,0,0,1-1.11.84c-5.86.05-11.71,0-17.62-.28Z" transform="translate(-923.55 662.69)"/><path class="cls-2" d="M1168.11-333.09c5.45,0,10.91,0,16.36,0a1.49,1.49,0,0,1,1.15.8c.55,2.24,1,4.51,1.53,7.25l-19.07-7.69Z" transform="translate(-923.55 662.69)"/><path class="cls-2" d="M1185.06,108.55c-.32.2-.81.32-.92.6-1.17,2.95-3.61,4.18-6.45,4.85-2.4.56-4.83,1-7.23,1.55-6.2,1.47-9.64,5-10.34,10.5a5.22,5.22,0,0,0,3.16,5.83c3,1,8.26-.81,9.95-3.45,1.19-1.87.43-3.33-1.83-3.48,1.39,1.65,1.35,2.28-.57,3.19a13.27,13.27,0,0,1-4.1,1.2c-2.65.3-3.72-1-3.06-3.58a8.94,8.94,0,0,1,6.27-6.5c2.6-.87,5.22-1.66,7.81-2.53,4-1.34,6.8-3.76,7.26-8.23,1.44-.5.85.44.72,1a58,58,0,0,0-1.66,7.8c-.5,6.45,3.79,10.84,10.28,10.88,3.81,0,6.39-1.46,7.49-4.31a7.47,7.47,0,0,0-2.16-7.85,4.4,4.4,0,0,0-6.77.89l1.09-.31c2.81-.75,4.69.45,5.17,3.32s-.89,4.42-3.79,4.69c-5.05.48-8.54-2.51-8.71-7.6-.08-2.46.17-4.93.12-7.4a5.21,5.21,0,0,1,2.21-4.32c5-4.31,10-8.61,14.71-13.15,7.37-7,9.32-15.66,5.45-24.53-3.36-7.71-4.35-7.52-11.16-5.64-7.2,2-12.62,6.13-15,13.59a31.55,31.55,0,0,0-.76,13.64C1183.1,95.69,1184.12,102.12,1185.06,108.55Z" transform="translate(-923.55 662.69)"/><path class="cls-2" d="M1185.57-26.4a8.89,8.89,0,0,1,.29,2.33c-.83,5.77-1.85,11.51-2.6,17.28-.72,5.51-.56,11,2,16.09,3.79,7.43,10.57,10.42,18.37,11.49a4.7,4.7,0,0,0,3.72-1.55c5.92-8.13,6.9-18.44-.09-26.55a137.83,137.83,0,0,0-13-12.54c-6.83-6.09-6.9-6-6.56-15.12,0-.14,0-.27,0-.41.29-4.89,3.58-7.76,8.5-7.41,1.64.12,3.47.52,3.72,2.3a8.45,8.45,0,0,1-.89,4.79c-.84,1.58-2.61,1.49-4.23.9a10.21,10.21,0,0,0-1-.24c1.71,2,3.66,2.6,5.63,1.66,2.64-1.25,3.69-3.57,3.78-6.35a5.55,5.55,0,0,0-3.55-5.75,11,11,0,0,0-11.42,1.68c-3.05,2.45-3.62,5.88-3.06,9.51.4,2.56,1.11,5.07,1.72,7.72l-1.35.18a11.23,11.23,0,0,0-.21-3c-1.19-3.42-4.2-4.7-7.27-5.78-2.32-.82-4.78-1.31-7-2.32a14.64,14.64,0,0,1-4.79-3.33c-1.4-1.55-2.67-3.89-1.27-5.79s3.92-.86,5.9-.18a4.21,4.21,0,0,1,2.27,1.6c.27.5-.42,1.51-.68,2.27,2.53-.75,3.09-2.42,1.28-4.29a10,10,0,0,0-7.16-3.09c-3.46-.09-5.72,2-5.47,5.38.3,4.13,2,7.72,5.92,9.42a55.36,55.36,0,0,0,9.41,2.74C1180.38-31.79,1184.13-30.81,1185.57-26.4Z" transform="translate(-923.55 662.69)"/><path class="cls-2" d="M1199.7,40.53c-.8-.45-1.44-.83-2.09-1.19a117.52,117.52,0,0,1-21.37-15c-8.08-7.16-15.34-15.08-19.63-25.08-3-7-5.19-14.43-7.48-21.75-2-6.46-4.3-12.74-8.71-18-5.21-6.23-12.08-9.52-19.84-11.26-2.16-.48-4.32-1-7-1.6,8-4.15,15.66-7.42,24.13-8.35a87.13,87.13,0,0,1,20.32.4c1.35.17,2.71.26,4.54.44-2.2-3.44-4.12-6.29-5.87-9.23a3.49,3.49,0,0,0-3.46-1.86q-64.13.07-128.25,0h-2.14V154.18h2.62c40.9,0,81.8-.09,122.7.12,4.54,0,7.46-1,9.32-5.19a45.58,45.58,0,0,1,3.77-6l-.23-.58c-16.79,2.88-33,1.88-48.14-7.45,2.39-.55,4.5-1.06,6.62-1.52,9.75-2.12,17.7-6.87,23-15.59,3-4.93,4.62-10.37,6.2-15.84,2.44-8.43,4.79-16.94,9.35-24.53,7-11.61,16.62-20.72,27.7-28.33C1190.17,46.24,1194.87,43.54,1199.7,40.53Z" transform="translate(-923.55 662.69)"/><path class="cls-2" d="M1198.07,154h135.82V-71.69H1198.62c1.18,1.05,2,1.69,2.7,2.43,14.92,15.37,25.62,33,28.87,54.52A73.64,73.64,0,0,1,1228,17.83c-2.5,8.32-7.34,15.43-11.47,22.92a2.63,2.63,0,0,0-.06,2.14c1.11,2.12,2.39,4.16,3.65,6.21A66.59,66.59,0,0,1,1230,85.54c-.2,19.28-6.83,36.39-18.11,51.75C1207.65,143.13,1202.69,148.48,1198.07,154Z" transform="translate(-923.55 662.69)"/><path class="cls-2" d="M1210,106.8c13.23-8.95,12.68-28.33,6.53-41,0,4.05.2,7.68,0,11.27-.5,7.27-2.19,14.22-6.87,20.07a51.5,51.5,0,0,1-3.72,3.78l6-.46Z" transform="translate(-923.55 662.69)"/><path class="cls-2" d="M1207-17.42c10.78,9.57,11,21.94,10.88,34.59,7.86-11.09,3.64-36.38-6.59-40.08l1.75,6Z" transform="translate(-923.55 662.69)"/><path class="cls-2" d="M1174.39,98.78c-.4-2.52-1.32-4.08-3.3-4.8a5.27,5.27,0,0,0-5.68,1.9c-2.56,3-2.62,7.64-.15,11.71,3.62,6,13,6.8,16.9,1.74a43.34,43.34,0,0,1-6.84.6c-5.54-.34-9.64-5.81-8.09-10.77a5,5,0,0,1,2.68-3c.85-.29,2.21.81,3.31,1.36C1173.54,97.73,1173.76,98.11,1174.39,98.78Z" transform="translate(-923.55 662.69)"/><path class="cls-2" d="M1175.4-16.75a8.82,8.82,0,0,0-.93.82c-1,1.24-2.31,2.51-3.8,1.59a6.23,6.23,0,0,1-2.54-3.64c-.86-4,1.87-8.14,5.77-9.53,3.22-1.15,6.32-.66,9.84.64a12.63,12.63,0,0,0-1-1.25,11.12,11.12,0,0,0-16.51,2.54c-2.7,4.49-2.15,9.89,1.29,12.56a4.66,4.66,0,0,0,5,.76C1174.25-13.05,1175.16-14.52,1175.4-16.75Z" transform="translate(-923.55 662.69)"/><path class="cls-2" d="M1186.14,145.68l-20.38,8.17c5.91.32,11.76.34,17.62.28a1.48,1.48,0,0,0,1.11-.84C1185.07,150.92,1185.54,148.53,1186.14,145.68Z" transform="translate(-923.55 662.69)"/><path class="cls-2" d="M1168.11-71.88l0,.39,19.07,7.69c-.56-2.74-1-5-1.53-7.25a1.49,1.49,0,0,0-1.15-.8C1179-71.9,1173.56-71.88,1168.11-71.88Z" transform="translate(-923.55 662.69)"/><path class="cls-2" d="M1199.7,40.53c-4.82,3-9.52,5.71-14,8.78C1174.64,56.92,1165,66,1158,77.64c-4.56,7.59-6.91,16.09-9.35,24.53-1.58,5.47-3.22,10.92-6.2,15.84-5.27,8.71-13.22,13.47-23,15.59-2.12.46-4.23,1-6.62,1.52,15.19,9.33,31.35,10.33,48.14,7.45l.23.58a45.58,45.58,0,0,0-3.77,6c-1.86,4.21-4.78,5.21-9.32,5.19-40.9-.21-81.8-.12-122.7-.12h-2.62V-71.88H1025q64.13,0,128.25,0a3.49,3.49,0,0,1,3.46,1.86c1.75,2.94,3.67,5.79,5.87,9.23-1.82-.17-3.18-.27-4.54-.44a87.13,87.13,0,0,0-20.32-.4c-8.47.93-16.11,4.2-24.13,8.35,2.67.61,4.83,1.11,7,1.6,7.76,1.74,14.64,5,19.84,11.26,4.41,5.27,6.69,11.55,8.71,18,2.29,7.32,4.46,14.72,7.48,21.75,4.29,10,11.55,17.92,19.63,25.08a117.52,117.52,0,0,0,21.37,15C1198.26,39.7,1198.9,40.07,1199.7,40.53Z" transform="translate(-923.55 662.69)"/><path class="cls-2" d="M1198.07,154c4.63-5.55,9.58-10.9,13.87-16.74,11.28-15.36,17.9-32.47,18.11-51.75a66.59,66.59,0,0,0-9.88-36.43c-1.26-2-2.54-4.08-3.65-6.21a2.63,2.63,0,0,1,.06-2.14c4.13-7.49,9-14.6,11.47-22.92a73.64,73.64,0,0,0,2.14-32.57c-3.25-21.53-13.95-39.15-28.87-54.52-.71-.73-1.52-1.37-2.7-2.43h135.27V154Z" transform="translate(-923.55 662.69)"/><path class="cls-2" d="M1185.53-26.36l1.36-.19c-.6-2.66-1.32-5.17-1.72-7.72-.57-3.63,0-7.06,3.06-9.51a11,11,0,0,1,11.42-1.68,5.55,5.55,0,0,1,3.55,5.75c-.09,2.79-1.14,5.1-3.78,6.35-2,.94-3.92.36-5.63-1.66a10.21,10.21,0,0,1,1,.24c1.62.59,3.4.68,4.23-.9a8.45,8.45,0,0,0,.89-4.79c-.24-1.78-2.07-2.18-3.72-2.3-4.92-.35-8.21,2.53-8.5,7.41,0,.14,0,.27,0,.41-.34,9.12-.27,9,6.56,15.12a137.83,137.83,0,0,1,13,12.54c7,8.11,6,18.42.09,26.55a4.7,4.7,0,0,1-3.72,1.55c-7.79-1.06-14.58-4.06-18.37-11.49-2.58-5.06-2.74-10.58-2-16.09.75-5.78,1.77-11.52,2.6-17.28a8.89,8.89,0,0,0-.29-2.33Z" transform="translate(-923.55 662.69)"/><path class="cls-2" d="M1185.06,108.55c-.94-6.44-2-12.86-2.79-19.31A31.55,31.55,0,0,1,1183,75.6c2.34-7.46,7.77-11.6,15-13.59,6.81-1.88,7.8-2.07,11.16,5.64,3.86,8.87,1.92,17.48-5.45,24.53C1199,96.72,1194,101,1189,105.33a5.21,5.21,0,0,0-2.21,4.32c.06,2.46-.2,4.94-.12,7.4.17,5.1,3.65,8.08,8.71,7.6,2.9-.27,4.25-2,3.79-4.69s-2.36-4.08-5.17-3.32l-1.09.31a4.4,4.4,0,0,1,6.77-.89,7.47,7.47,0,0,1,2.16,7.85c-1.1,2.85-3.68,4.33-7.49,4.31-6.5,0-10.78-4.43-10.28-10.88a58,58,0,0,1,1.66-7.8c.13-.59.71-1.53-.72-1Z" transform="translate(-923.55 662.69)"/><path class="cls-2" d="M1210,106.8l1.88-6.32-6,.46a51.5,51.5,0,0,0,3.72-3.78c4.69-5.85,6.37-12.8,6.87-20.07.25-3.59,0-7.22,0-11.27C1222.68,78.47,1223.23,97.85,1210,106.8Z" transform="translate(-923.55 662.69)"/><path class="cls-2" d="M1207-17.42l6,.52-1.75-6c10.22,3.7,14.44,29,6.59,40.08C1218,4.51,1217.79-7.86,1207-17.42Z" transform="translate(-923.55 662.69)"/><path class="cls-2" d="M1185.57-26.4c-1.44-4.41-5.19-5.38-9.1-6.29a55.36,55.36,0,0,1-9.41-2.74c-4-1.7-5.61-5.3-5.92-9.42-.25-3.42,2-5.48,5.47-5.38a10,10,0,0,1,7.16,3.09c1.81,1.87,1.25,3.54-1.28,4.29.25-.76.94-1.77.68-2.27a4.21,4.21,0,0,0-2.27-1.6c-2-.68-4.41-1.84-5.9.18s-.13,4.24,1.27,5.79a14.64,14.64,0,0,0,4.79,3.33c2.23,1,4.69,1.5,7,2.32,3.08,1.08,6.09,2.36,7.27,5.78a11,11,0,0,1,.2,3Z" transform="translate(-923.55 662.69)"/><path class="cls-2" d="M1185,108.5c-.46,4.48-3.26,6.89-7.26,8.23-2.6.87-5.22,1.66-7.81,2.53a8.94,8.94,0,0,0-6.27,6.5c-.66,2.56.41,3.88,3.06,3.58a13.27,13.27,0,0,0,4.1-1.2c1.92-.91,2-1.54.57-3.19,2.26.15,3,1.61,1.83,3.48-1.68,2.64-7,4.47-9.95,3.45a5.22,5.22,0,0,1-3.16-5.83c.7-5.51,4.14-9,10.34-10.5,2.4-.57,4.83-1,7.23-1.55,2.84-.67,5.28-1.9,6.45-4.85.11-.28.61-.4.93-.6Z" transform="translate(-923.55 662.69)"/><path class="cls-2" d="M1174.39,98.78c-.63-.67-.85-1.05-1.18-1.22-1.1-.55-2.46-1.66-3.31-1.36a5,5,0,0,0-2.68,3c-1.54,5,2.56,10.42,8.09,10.77a43.34,43.34,0,0,0,6.84-.6c-3.85,5.07-13.28,4.22-16.9-1.74-2.47-4.07-2.41-8.68.15-11.71a5.27,5.27,0,0,1,5.68-1.9C1173.07,94.7,1174,96.26,1174.39,98.78Z" transform="translate(-923.55 662.69)"/><path class="cls-2" d="M1175.4-16.75c-.24,2.23-1.15,3.7-2.88,4.49a4.66,4.66,0,0,1-5-.76c-3.44-2.67-4-8.07-1.29-12.56a11.12,11.12,0,0,1,16.51-2.54,12.63,12.63,0,0,1,1,1.25c-3.52-1.29-6.62-1.78-9.84-.64-3.91,1.39-6.63,5.51-5.77,9.53a6.23,6.23,0,0,0,2.54,3.64c1.48.91,2.8-.35,3.8-1.59A8.82,8.82,0,0,1,1175.4-16.75Z" transform="translate(-923.55 662.69)"/><path class="cls-2" d="M1186.14,145.68c-.6,2.85-1.07,5.25-1.65,7.61a1.48,1.48,0,0,1-1.11.84c-5.86.05-11.71,0-17.62-.28Z" transform="translate(-923.55 662.69)"/><path class="cls-2" d="M1168.11-71.88c5.45,0,10.91,0,16.36,0a1.49,1.49,0,0,1,1.15.8c.55,2.24,1,4.51,1.53,7.25l-19.07-7.69Z" transform="translate(-923.55 662.69)"/><path class="cls-2" d="M1562.06,112.59c-.32.2-.81.32-.92.6-1.17,2.95-3.61,4.18-6.45,4.85-2.4.56-4.83,1-7.23,1.55-6.2,1.47-9.64,5-10.34,10.5a5.22,5.22,0,0,0,3.17,5.83c3,1,8.26-.81,9.95-3.45,1.19-1.87.43-3.33-1.83-3.48,1.39,1.65,1.35,2.28-.57,3.19a13.27,13.27,0,0,1-4.1,1.2c-2.65.3-3.72-1-3.06-3.58a8.94,8.94,0,0,1,6.27-6.5c2.6-.87,5.22-1.66,7.81-2.53,4-1.34,6.8-3.76,7.26-8.23,1.44-.5.85.44.72,1a58,58,0,0,0-1.66,7.8c-.49,6.45,3.79,10.84,10.28,10.88,3.81,0,6.39-1.46,7.49-4.31a7.47,7.47,0,0,0-2.16-7.85,4.4,4.4,0,0,0-6.77.89l1.09-.31c2.81-.75,4.69.45,5.17,3.32s-.89,4.42-3.79,4.69c-5.05.48-8.54-2.51-8.71-7.6-.08-2.46.17-4.93.12-7.4a5.21,5.21,0,0,1,2.21-4.32c5-4.31,10-8.61,14.71-13.15,7.37-7,9.32-15.66,5.45-24.53-3.36-7.71-4.35-7.52-11.16-5.64-7.2,2-12.62,6.13-15,13.59a31.55,31.55,0,0,0-.76,13.64C1560.1,99.73,1561.12,106.16,1562.06,112.59Z" transform="translate(-923.55 662.69)"/><path class="cls-2" d="M1562.57-22.36a8.89,8.89,0,0,1,.29,2.33c-.83,5.77-1.85,11.51-2.6,17.28-.72,5.51-.56,11,2,16.09,3.79,7.43,10.57,10.42,18.37,11.49a4.7,4.7,0,0,0,3.72-1.55c5.92-8.13,6.9-18.44-.09-26.55a137.86,137.86,0,0,0-13-12.54c-6.83-6.09-6.9-6-6.56-15.12,0-.14,0-.27,0-.41.29-4.89,3.58-7.76,8.5-7.41,1.64.12,3.47.52,3.72,2.3a8.45,8.45,0,0,1-.89,4.79c-.84,1.58-2.61,1.49-4.23.9a10.2,10.2,0,0,0-1-.24c1.71,2,3.66,2.6,5.63,1.66,2.64-1.25,3.69-3.57,3.78-6.36a5.55,5.55,0,0,0-3.55-5.75,11,11,0,0,0-11.42,1.68c-3.05,2.45-3.62,5.88-3.06,9.51.4,2.56,1.11,5.07,1.72,7.72l-1.35.18a11.23,11.23,0,0,0-.21-3c-1.18-3.42-4.2-4.7-7.27-5.78-2.32-.82-4.78-1.31-7-2.32a14.64,14.64,0,0,1-4.79-3.33c-1.4-1.55-2.67-3.89-1.27-5.79s3.92-.86,5.9-.18a4.21,4.21,0,0,1,2.27,1.6c.27.5-.42,1.51-.68,2.27,2.53-.75,3.09-2.42,1.28-4.29a10,10,0,0,0-7.16-3.09c-3.46-.09-5.72,2-5.47,5.38.3,4.13,2,7.72,5.92,9.42a55.35,55.35,0,0,0,9.41,2.74C1557.38-27.74,1561.13-26.77,1562.57-22.36Z" transform="translate(-923.55 662.69)"/><path class="cls-2" d="M1576.69,44.57c-.8-.45-1.44-.83-2.09-1.19a117.52,117.52,0,0,1-21.37-15c-8.08-7.16-15.34-15.08-19.63-25.08-3-7-5.19-14.43-7.48-21.75-2-6.46-4.3-12.74-8.71-18-5.21-6.23-12.08-9.52-19.84-11.26-2.16-.48-4.32-1-7-1.6,8-4.15,15.66-7.42,24.13-8.35a87.13,87.13,0,0,1,20.32.4c1.35.17,2.71.26,4.54.44-2.2-3.44-4.12-6.29-5.87-9.23a3.49,3.49,0,0,0-3.46-1.86q-64.13.07-128.25,0h-2.14V158.22h2.62c40.9,0,81.8-.09,122.7.12,4.54,0,7.46-1,9.32-5.19a45.58,45.58,0,0,1,3.77-6l-.23-.58c-16.79,2.88-33,1.88-48.14-7.45,2.39-.55,4.5-1.06,6.62-1.52,9.75-2.12,17.7-6.87,23-15.59,3-4.93,4.62-10.37,6.2-15.84,2.44-8.43,4.79-16.94,9.35-24.53,7-11.61,16.62-20.72,27.7-28.33C1567.17,50.28,1571.87,47.58,1576.69,44.57Z" transform="translate(-923.55 662.69)"/><path class="cls-2" d="M1575.07,158.07h135.82V-67.65H1575.62c1.18,1.05,2,1.69,2.7,2.43,14.92,15.37,25.62,33,28.87,54.52A73.63,73.63,0,0,1,1605,21.87c-2.5,8.32-7.34,15.43-11.47,22.92a2.63,2.63,0,0,0-.06,2.14c1.11,2.12,2.39,4.16,3.65,6.21A66.59,66.59,0,0,1,1607,89.58c-.2,19.28-6.83,36.39-18.11,51.75C1584.64,147.17,1579.69,152.53,1575.07,158.07Z" transform="translate(-923.55 662.69)"/><path class="cls-2" d="M1587,110.84c13.23-8.95,12.68-28.33,6.53-41,0,4.05.2,7.68,0,11.27-.5,7.27-2.19,14.22-6.87,20.07a51.5,51.5,0,0,1-3.72,3.78l6-.46Z" transform="translate(-923.55 662.69)"/><path class="cls-2" d="M1584-13.38c10.78,9.57,11,21.94,10.88,34.59,7.86-11.09,3.64-36.38-6.59-40.08l1.75,6Z" transform="translate(-923.55 662.69)"/><path class="cls-2" d="M1551.39,102.82c-.4-2.52-1.32-4.08-3.3-4.8a5.27,5.27,0,0,0-5.68,1.9c-2.56,3-2.62,7.64-.15,11.71,3.62,6,13,6.8,16.9,1.74a43.34,43.34,0,0,1-6.84.6c-5.54-.34-9.64-5.81-8.09-10.77a5,5,0,0,1,2.68-3c.85-.29,2.21.81,3.31,1.36C1550.54,101.77,1550.76,102.15,1551.39,102.82Z" transform="translate(-923.55 662.69)"/><path class="cls-2" d="M1552.4-12.71a8.82,8.82,0,0,0-.93.82c-1,1.24-2.31,2.51-3.8,1.59a6.22,6.22,0,0,1-2.54-3.64c-.86-4,1.87-8.14,5.77-9.53,3.22-1.15,6.32-.66,9.84.64a12.63,12.63,0,0,0-1-1.25,11.12,11.12,0,0,0-16.51,2.54c-2.7,4.49-2.15,9.89,1.29,12.56a4.66,4.66,0,0,0,5,.76C1551.25-9,1552.15-10.48,1552.4-12.71Z" transform="translate(-923.55 662.69)"/><path class="cls-2" d="M1563.14,149.72l-20.38,8.17c5.91.32,11.76.34,17.62.28a1.48,1.48,0,0,0,1.11-.84C1562.07,155,1562.53,152.57,1563.14,149.72Z" transform="translate(-923.55 662.69)"/><path class="cls-2" d="M1545.11-67.84l0,.39,19.07,7.69c-.56-2.74-1-5-1.53-7.25a1.49,1.49,0,0,0-1.15-.8C1556-67.85,1550.56-67.84,1545.11-67.84Z" transform="translate(-923.55 662.69)"/><path class="cls-2" d="M1576.69,44.57c-4.82,3-9.52,5.71-14,8.78C1551.64,61,1542,70.07,1535,81.68c-4.56,7.59-6.91,16.09-9.35,24.53-1.58,5.47-3.22,10.92-6.2,15.84-5.27,8.71-13.22,13.47-23,15.59-2.12.46-4.23,1-6.62,1.52,15.19,9.33,31.35,10.33,48.14,7.45l.23.58a45.58,45.58,0,0,0-3.77,6c-1.86,4.21-4.78,5.21-9.32,5.19-40.9-.21-81.8-.12-122.7-.12h-2.62V-67.84H1402q64.13,0,128.25,0A3.49,3.49,0,0,1,1533.7-66c1.75,2.94,3.67,5.79,5.87,9.23-1.82-.17-3.18-.27-4.54-.44a87.13,87.13,0,0,0-20.32-.4c-8.47.93-16.11,4.2-24.13,8.35,2.67.61,4.83,1.11,7,1.6,7.76,1.74,14.64,5,19.84,11.26,4.41,5.27,6.69,11.55,8.71,18,2.29,7.32,4.46,14.72,7.48,21.75,4.29,10,11.55,17.92,19.63,25.08a117.52,117.52,0,0,0,21.37,15C1575.26,43.74,1575.9,44.12,1576.69,44.57Z" transform="translate(-923.55 662.69)"/><path class="cls-2" d="M1575.07,158.07c4.63-5.55,9.58-10.9,13.87-16.74,11.28-15.36,17.9-32.47,18.11-51.75a66.59,66.59,0,0,0-9.88-36.43c-1.26-2-2.54-4.08-3.65-6.21a2.63,2.63,0,0,1,.06-2.14c4.13-7.49,9-14.6,11.47-22.92a73.63,73.63,0,0,0,2.14-32.57c-3.25-21.53-13.95-39.15-28.87-54.52-.71-.73-1.52-1.37-2.7-2.43h135.27V158.07Z" transform="translate(-923.55 662.69)"/><path class="cls-2" d="M1562.53-22.32l1.36-.19c-.6-2.66-1.32-5.17-1.72-7.72-.57-3.63,0-7.06,3.06-9.51a11,11,0,0,1,11.42-1.68,5.55,5.55,0,0,1,3.55,5.75c-.09,2.79-1.14,5.1-3.78,6.36-2,.94-3.92.35-5.63-1.66a10.2,10.2,0,0,1,1,.24c1.62.59,3.39.68,4.23-.9a8.45,8.45,0,0,0,.89-4.79c-.24-1.78-2.07-2.18-3.72-2.3-4.92-.35-8.21,2.53-8.5,7.41,0,.14,0,.27,0,.41-.34,9.12-.27,9,6.56,15.12a137.86,137.86,0,0,1,13,12.54c7,8.11,6,18.42.09,26.55a4.7,4.7,0,0,1-3.72,1.55c-7.79-1.06-14.58-4.06-18.37-11.49-2.58-5.06-2.74-10.58-2-16.09.75-5.78,1.77-11.52,2.6-17.28a8.89,8.89,0,0,0-.29-2.33Z" transform="translate(-923.55 662.69)"/><path class="cls-2" d="M1562.06,112.59c-.94-6.44-2-12.86-2.79-19.31a31.55,31.55,0,0,1,.76-13.64c2.34-7.46,7.77-11.6,15-13.59,6.81-1.88,7.8-2.07,11.16,5.64,3.86,8.87,1.92,17.48-5.45,24.53-4.75,4.54-9.74,8.85-14.71,13.15a5.21,5.21,0,0,0-2.21,4.32c.06,2.46-.2,4.94-.12,7.4.17,5.1,3.65,8.08,8.71,7.6,2.9-.27,4.25-2,3.79-4.69s-2.36-4.08-5.17-3.32l-1.09.31a4.4,4.4,0,0,1,6.77-.89,7.47,7.47,0,0,1,2.16,7.85c-1.1,2.85-3.68,4.33-7.49,4.31-6.5,0-10.78-4.43-10.28-10.88a58,58,0,0,1,1.66-7.8c.13-.59.71-1.53-.72-1Z" transform="translate(-923.55 662.69)"/><path class="cls-2" d="M1587,110.84l1.88-6.32-6,.46a51.5,51.5,0,0,0,3.72-3.78c4.69-5.85,6.37-12.8,6.87-20.07.25-3.59,0-7.22,0-11.27C1599.68,82.51,1600.23,101.89,1587,110.84Z" transform="translate(-923.55 662.69)"/><path class="cls-2" d="M1584-13.38l6,.52-1.75-6c10.22,3.7,14.44,29,6.59,40.08C1595,8.55,1594.79-3.81,1584-13.38Z" transform="translate(-923.55 662.69)"/><path class="cls-2" d="M1562.57-22.36c-1.44-4.41-5.19-5.38-9.1-6.29a55.35,55.35,0,0,1-9.41-2.74c-4-1.7-5.61-5.3-5.92-9.42-.25-3.42,2-5.48,5.47-5.38a10,10,0,0,1,7.16,3.09c1.81,1.87,1.25,3.54-1.28,4.29.25-.76.94-1.77.68-2.27a4.21,4.21,0,0,0-2.27-1.6c-2-.68-4.41-1.84-5.9.18s-.13,4.24,1.27,5.79a14.64,14.64,0,0,0,4.79,3.33c2.23,1,4.69,1.5,7,2.32,3.08,1.08,6.09,2.36,7.27,5.78a11,11,0,0,1,.2,3Z" transform="translate(-923.55 662.69)"/><path class="cls-2" d="M1562,112.54c-.46,4.48-3.26,6.89-7.26,8.23-2.6.87-5.22,1.66-7.81,2.53a8.94,8.94,0,0,0-6.27,6.5c-.66,2.56.41,3.88,3.06,3.58a13.27,13.27,0,0,0,4.1-1.2c1.92-.91,2-1.54.57-3.19,2.26.15,3,1.61,1.83,3.48-1.68,2.64-7,4.47-9.95,3.45a5.22,5.22,0,0,1-3.17-5.83c.7-5.51,4.14-9,10.34-10.5,2.4-.57,4.83-1,7.23-1.55,2.84-.67,5.28-1.9,6.45-4.85.11-.28.61-.4.93-.6Z" transform="translate(-923.55 662.69)"/><path class="cls-2" d="M1551.39,102.82c-.63-.67-.85-1.05-1.17-1.22-1.1-.55-2.46-1.66-3.31-1.36a5,5,0,0,0-2.68,3c-1.54,5,2.56,10.42,8.09,10.77a43.34,43.34,0,0,0,6.84-.6c-3.85,5.07-13.28,4.22-16.9-1.74-2.47-4.07-2.41-8.68.15-11.71a5.27,5.27,0,0,1,5.68-1.9C1550.07,98.74,1551,100.3,1551.39,102.82Z" transform="translate(-923.55 662.69)"/><path class="cls-2" d="M1552.4-12.71c-.24,2.23-1.15,3.7-2.88,4.49a4.66,4.66,0,0,1-5-.76c-3.44-2.67-4-8.07-1.29-12.56a11.12,11.12,0,0,1,16.51-2.54,12.63,12.63,0,0,1,1,1.25c-3.52-1.29-6.62-1.78-9.84-.64-3.91,1.39-6.63,5.51-5.77,9.53a6.22,6.22,0,0,0,2.54,3.64c1.48.91,2.8-.35,3.8-1.59A8.82,8.82,0,0,1,1552.4-12.71Z" transform="translate(-923.55 662.69)"/><path class="cls-2" d="M1563.14,149.72c-.6,2.85-1.07,5.25-1.65,7.61a1.48,1.48,0,0,1-1.11.84c-5.86.05-11.71,0-17.62-.28Z" transform="translate(-923.55 662.69)"/><path class="cls-2" d="M1545.11-67.84c5.45,0,10.91,0,16.36,0a1.49,1.49,0,0,1,1.15.8c.55,2.24,1,4.51,1.53,7.25l-19.07-7.69Z" transform="translate(-923.55 662.69)"/><rect class="cls-3" x="0.25" y="0.25" width="864.57" height="864.57"/></svg>