<svg id="Õ_1" data-name="Õº≤„ 1" xmlns="http://www.w3.org/2000/svg" viewBox="0 0 865.07 865.07"><defs><style>.cls-1,.cls-2,.cls-3{fill:none;stroke-miterlimit:10;stroke-width:0.5px;}.cls-1{stroke:#363639;}.cls-2,.cls-3{stroke:#2e3192;}.cls-2{fill-rule:evenodd;}</style></defs><title>Meghan Krampf - Cherry Tree and Fox Tea Light Holder by TorchIt [Converted]</title><rect class="cls-1" x="0.25" y="0.25" width="864.57" height="864.57"/><polygon class="cls-2" points="774.55 34.61 820.32 34.61 820.32 80.38 828.4 80.38 828.4 134.26 820.32 134.26 820.32 188.1 828.4 188.1 828.4 241.98 820.32 241.98 820.32 287.75 774.55 287.75 774.55 295.83 720.67 295.83 720.67 287.75 666.83 287.75 666.83 295.83 612.96 295.83 612.96 287.75 567.18 287.75 567.18 241.98 559.11 241.98 559.11 188.1 567.18 188.1 567.18 134.26 559.11 134.26 559.11 80.38 567.18 80.38 567.18 34.61 612.96 34.61 612.96 26.53 666.83 26.53 666.83 34.61 720.67 34.61 720.67 26.53 774.55 26.53 774.55 34.61"/><path class="cls-2" d="M1467.49-599.9v78.81q-16.22-1.38-32.42-3.24a89.93,89.93,0,0,0-11-24.19C1437.39-564.74,1452.89-583.22,1467.49-599.9Z" transform="translate(-923.55 662.69)"/><path class="cls-2" d="M1439.52-595.06l-23.67,35.66A91,91,0,0,0,1403.52-571l35.52-24.1-.11.18c.31-.24.64-.46,1-.7C1439.76-595.41,1439.65-595.22,1439.52-595.06Z" transform="translate(-923.55 662.69)"/><path class="cls-2" d="M1440.24-619q-23.55,20.86-48.27,40.44a89.73,89.73,0,0,0-24.72-9.29c-1-9.86-2-20.41-2.89-31.15Z" transform="translate(-923.55 662.69)"/><path class="cls-2" d="M1336.73-589.18l6-29.86h5l5.75,29.28c-1.77-.1-3.55-.17-5.35-.17A91.12,91.12,0,0,0,1336.73-589.18Z" transform="translate(-923.55 662.69)"/><path class="cls-2" d="M1252.45-590.82c-.15-.18-.28-.38-.4-.57,1.91,1.39,3.87,2.75,5.78,4.14l30,20.46a90.86,90.86,0,0,0-10.92,11.72Z" transform="translate(-923.55 662.69)"/><path class="cls-2" d="M1228.8-591.32q20.81,23.47,40.28,48a89.74,89.74,0,0,0-9.25,24.56c-9.81,1-20.33,1.93-31,2.85Z" transform="translate(-923.55 662.69)"/><path class="cls-2" d="M1247.65-619h78.93q-1.39,16.33-3.27,32.6a89.93,89.93,0,0,0-24.11,10.94C1282.94-588.85,1264.39-604.43,1247.65-619Z" transform="translate(-923.55 662.69)"/><circle class="cls-3" cx="424.6" cy="163.15" r="84.44"/><path class="cls-2" d="M1233.44-493.54c-1.54-.26-3.1-.51-4.64-.75v-5.15l29.11-5.06c-.09,1.65-.14,3.3-.14,5a91.15,91.15,0,0,0,.7,11.08Z" transform="translate(-923.55 662.69)"/><path class="cls-2" d="M1274.56-428.87l6.68-9.91a90.93,90.93,0,0,0,11.46,10.59l-34.88,24.1.64-1c-.7.51-1.41,1-2.13,1.52Q1265.68-416,1274.56-428.87Z" transform="translate(-923.55 662.69)"/><path class="cls-2" d="M1261-384.39q21.17-18.6,43.23-36.13A89.72,89.72,0,0,0,1329-411.2c.85,8.52,1.71,17.55,2.52,26.8Z" transform="translate(-923.55 662.69)"/><path class="cls-2" d="M1228.8-399.17v-78.7q16.26,1.37,32.47,3.23a90,90,0,0,0,10.91,24C1258.9-434.35,1243.4-415.86,1228.8-399.17Z" transform="translate(-923.55 662.69)"/><path class="cls-2" d="M1359-409.81l-4.55,25.42h-6.29l-4.93-24.89c1.64.09,3.29.14,5,.14A91.07,91.07,0,0,0,1359-409.81Z" transform="translate(-923.55 662.69)"/><path class="cls-2" d="M1437.45-417.13c2.25,3.12,4.47,6.27,6.73,9.37l-.94-.66.44.64-35.09-24.55a90.94,90.94,0,0,0,10.91-11.74Z" transform="translate(-923.55 662.69)"/><path class="cls-2" d="M1467.49-407.53q-20.83-23.48-40.32-48.11a89.74,89.74,0,0,0,9.32-24.72c9.81-1,20.31-2,31-2.86Z" transform="translate(-923.55 662.69)"/><path class="cls-2" d="M1443.55-384.39h-73.44q1.26-14.14,2.87-28.23a89.91,89.91,0,0,0,23.95-10.83C1411.61-411.46,1428.15-397.69,1443.55-384.39Z" transform="translate(-923.55 662.69)"/><path class="cls-2" d="M1437.87-510.47l29.63,5.64v5l-29.1,5.42c.09-1.7.15-3.41.15-5.13A91.11,91.11,0,0,0,1437.87-510.47Z" transform="translate(-923.55 662.69)"/><polygon class="cls-2" points="551.03 134.26 551.03 188.1 559.11 188.1 559.11 241.98 551.03 241.98 551.03 287.75 505.26 287.75 505.26 295.83 451.38 295.83 451.38 287.75 397.54 287.75 397.54 295.83 343.66 295.83 343.66 287.75 297.89 287.75 297.89 241.98 289.82 241.98 289.82 188.1 297.89 188.1 297.89 134.26 289.82 134.26 289.82 80.38 297.89 80.38 297.89 34.61 343.66 34.61 343.66 26.54 397.54 26.54 397.54 34.61 451.38 34.61 451.38 26.54 505.26 26.54 505.26 34.61 551.03 34.61 551.03 80.38 559.11 80.38 559.11 134.26 551.03 134.26"/><path class="cls-2" d="M1415.55-275.61c-.21-1.73.57-3.87-.31-5.17-1.79-2.63-4.36-4.84-6.71-7.14a8.1,8.1,0,0,0-2.31-1c-.95,2.18-2.13,4-2.5,6s-2.2,3.7-.59,6a64.87,64.87,0,0,1,4.1,7.84c1.65.79,3.9,1.27,5,2.55,1.5,1.76,2.71,1,4,.38,1.78-.8.85-2,.5-3.25A40,40,0,0,1,1415.55-275.61Z" transform="translate(-923.55 662.69)"/><path class="cls-2" d="M1415.55-275.61a40,40,0,0,0,1.18,6.23c.35,1.23,1.27,2.45-.5,3.25-1.31.59-2.52,1.38-4-.38-1.09-1.27-3.34-1.75-5-2.55a64.87,64.87,0,0,0-4.1-7.84c-1.61-2.32.22-4.08.59-6s1.56-3.83,2.5-6a8.1,8.1,0,0,1,2.31,1c2.35,2.3,4.92,4.51,6.71,7.14C1416.12-279.49,1415.34-277.35,1415.55-275.61Z" transform="translate(-923.55 662.69)"/><path class="cls-2" d="M1457.52-230.5l-1-.45c-2.59-1.23-3.58-.68-3.62,1.95,0,.33-.54.63-.74,1-.35.61-1,1.3-.86,1.86a2.73,2.73,0,0,0,1.53,1.55,6.13,6.13,0,0,0,2.2.06l-.18.55c1,.91,1.84,2.24,3,2.58.62.17,1.85-1.41,2.72-2.13l4.26-1.58-2.57-3.21c-.14-1,0-2.77-.48-2.91-1.29-.39-2.84-.08-4.29,0C1457.55-231,1457.54-230.76,1457.52-230.5Z" transform="translate(-923.55 662.69)"/><path class="cls-2" d="M1457.52-230.5c0-.26,0-.53,0-.79,1.45,0,3-.35,4.29,0,.48.15.34,1.93.48,2.91l2.57,3.21-4.26,1.58c-.87.72-2.1,2.31-2.72,2.13-1.2-.34-2-1.66-3-2.58l.18-.55a6.13,6.13,0,0,1-2.2-.06,2.73,2.73,0,0,1-1.53-1.55c-.12-.55.51-1.25.86-1.86.21-.35.74-.66.74-1,0-2.63,1-3.18,3.62-1.95Z" transform="translate(-923.55 662.69)"/><path class="cls-2" d="M1440.78-235.33c4,2.14,3.41,5.55,4.15,8.5,4.63,1.87-.32,5.68,1.86,7.85l-1.57,2.51c1,.25,2.1.46,3.12.76a2.44,2.44,0,0,1,1.3.72c.88,1.39,1.62,2.84,2.42,4.26l-.73.85-8.06-2.62-4.84,2.51c.85,0,1.86.08,2.86.17,3.05.29,6.14.43,9.13,1a3.52,3.52,0,0,1,2.38,2.34c.21,3.79-1.61,7.06-3.43,9.69-2.13,0-3.61.1-5.06,0a9.48,9.48,0,0,1-2.76-.81c-2.68-1.14-5.22-2.68-8-3.42-1.94-.51-4.23,0-6.36.12l.09.89c.5,0,1,0,1.51-.14a11.63,11.63,0,0,1,11.07,3.52,2.75,2.75,0,0,1,.81,2.22c-.85,3-2,5.25-6.31,5.26h-3.11c0,.19,0,.38,0,.58h6.13c-1.6,4.25-7.31,7.34-11.52,6.49a12.21,12.21,0,0,0-4.65.46c-1.43.3-2.77,1.07-4.2,1.24-.45.05-1.25-1.11-1.55-1.83-.09-.21,1-1.21,1.53-1.17,3.81.31,3.8.36,4.42-3.2,2.7.16,2.44-2.11,3.58-3.32,2.36-2.51,1.75-4.11-.65-5.83,3.4-3,3.37-3.52.55-5.28-.17-1.65.17-3.19-.5-3.76-1-.87-2.79-1.07-4.26-1.57,2.79-3.5,2.72-4.07-.65-5.55,1.5-3.19,1.2-3.86-2.23-4.94.74-3.71.46-4.14-3.39-5,.88-1.92,0-3-2.06-3.35l2.4-11.25c6.56-2.26,6.63-2.37,7-9.21.18-3.37,1.38-6.25,4.88-8a8,8,0,0,0,1.55-1.16,8.64,8.64,0,0,1-.57-2.63c.49-2.79,1.13-5.57,1.74-8.35a6,6,0,0,1,.54-1.36c.53-1.06,1.1-2.1,1.41-2.69.81-1.11,2-2.05,1.93-2.86s-1.67-1.25-2.6-1.86a3.64,3.64,0,0,1-.47-.25c-.75-.69-1.51-2-2.21-2-1,0-1.85,1.09-2.77,1.71l-.16-.48-3.54,1,1.21,2.67-.17,3.43h5c.1.2.85,1,.69,1.51-1.24,4.09-1.62,8.83-4.29,12a20.89,20.89,0,0,0-4.95,12.22c-.22,2.36-2.18,3.56-5.13,3.08,1.83-3.16,1.35-6.95,4.06-10,1-1.08,3.09-3.37.42-5.52-.94-.76-1.05-2.42-1.37-3.7-.39-1.58-.61-3.2-.92-4.95l.92-.25c3.73-1,4.23-2.07,2.7-5.4-.46-1-1.42-2.08-1.27-3,1-6.35-2.16-12.48-1.09-18.83.62-3.69.82-7.43,1.21-11.22l6.71,1.65-1.11-5.36c3.65.28,1.35-3.18,3.36-4.17-1.64-1.12-4.77.71-4.48-2.11.07-.68,2.74-1.15,4.21-1.72l1,.35-2.22-5.89c-.8-.76-1.61-1.19-1.74-1.74-.53-2.29-1.11-2.51-3.22-1-.48.34-1,.66-1.77,1.19-.34-3.53-3.46-2.88-5.2-2.51-1.47.31-2.47,2.4-3.68,3.7-.35.52-1.64.5-1.88.94-1.89,3.38-4.18,2.07-6.59.66-.24-.14-.72,0-1.09.05v-8.58q153.83,0,307.67,0a13.53,13.53,0,0,1,2.54.48c-.63.57-1.51,1-1.85,1.74a76.73,76.73,0,0,0-4.1,9.06c-2,6-3.75,12-5.62,18.11-2.49,0-2.72.3-3.14,2.84a5.55,5.55,0,0,1-1.61,3.28,20.5,20.5,0,0,1-22.77,2.42c-5-2.56-9.9-4.34-15.76.1-.34-2-.9-3.46-.72-4.79a5.05,5.05,0,0,0-2.32-5.32c-2.1,2.71-3.34,5.57-7.36,7.11-3.39,1.29-6.76,1.53-10.21,2,2.38,3.35,4.32,6.49,6.73,9.3a12.82,12.82,0,0,0,5,3.14,21.14,21.14,0,0,0,5.48.93c5.55.56,9.89,2.46,11.59,7.71a22.5,22.5,0,0,0,2.33,4.58c4.19,6.89,10.72,10.37,19.47,10.5,2.24,0,4.49,0,6.74,0a11,11,0,0,1-5.05,2,90.66,90.66,0,0,1-12.57-.28c-15.08-1.58-23.37,8.37-20.08,20.82a3.65,3.65,0,0,0,.63-.46c4.62-5.41,10.66-7,18-5.59a54.72,54.72,0,0,0,8.91,1.12c7.5.2,13.44-2.12,16.25-8.9.08-.19.37-.3.56-.46,1.07,1.74.44,2.88-1.12,4.14-5.08,4.1-8.73,9.22-9.71,15.23a30.88,30.88,0,0,1-5.2,12.69c-5.47,8.11-7.53,16.76-3.18,25.94a2.71,2.71,0,0,1,.21,1.68c-1.26,5.38-2.78,6.52-9,6.83-.84,0-1.69,0-2.53.08-5,.38-10,.61-14.28,3.22a20.82,20.82,0,0,0-3.11,2.43c-1.06,1-1.8,2.3-3,3a37.22,37.22,0,0,1-6.43,2.49,21.77,21.77,0,0,0-11.83,8.44,4.94,4.94,0,0,1-1.83,1.82c-5.15,2.19-10.17,5-15.61,6.23a279.83,279.83,0,0,1-30.81,5.52,131.42,131.42,0,0,1-25,.64c-7.67-.57-15.2-2.7-22.77-4.23a39.09,39.09,0,0,1-18-8.34,17.53,17.53,0,0,0-6-3.05c-2.95-.92-6.08-1.36-9.36-2,.18-.57.43-1.18.57-1.81a90.1,90.1,0,0,0,1.9-9.1c.44-3.86-2.61-6.43-5-9.2a6.17,6.17,0,0,1,3.44-9.92c1.54.73,3,1.9,3.6,1.62a15.9,15.9,0,0,0,5-3.63c.35-.39-1.09-2.08-1.91-3.52l-.64-2.78-4.72,1.13a5.6,5.6,0,0,1-1-1.36c-.74-1.63-1.2-3.36-2-4.95-1-1.91-.75-3.39,1.23-4.59,1.67-1,1.59-2.24.75-3.71a16.59,16.59,0,0,1-1.86-4.15c-.14-.55,1.06-2,1.24-1.9,1.43.43,3.39-.94,4.45,1,.11.21,1.8-.09,2.65-.41s1.24-1,1.94-1.36c1.43-.8,1.75-1.71.45-2.79a8.78,8.78,0,0,0-1.59-.85l.58-.26-.76-2.58-3.46.91-3.78-.15.21,3.67c-2.12,1.34-4.18-.17-6.41-.82l-2.88,2.2,1.52,2.77c1.8.36,3.72.24,4.39,1a6.26,6.26,0,0,1,1.57,4.42,7.28,7.28,0,0,1-2.51,4.09c-.53.48-2.31,0-3.45-.28a14.66,14.66,0,0,1-2.71-1.28l-3.25-5.7c-.92.19-1.92.39-2.92.61-.77.17-2.13.31-2.18.6a20.33,20.33,0,0,0,0,3.88c2-.46,4.05,2.9,5.71-.26l2.46,1,4.18,3.14a18,18,0,0,1-2.47,1.89c-3.08,1.63,1.65,2.53.45,4-.08.09.53.71.91,1,.14.11.53,0,.8-.07l4.18-.39c-.33,1.45-1,2.5-.64,3.1,1.21,2.12-.09,3-1.73,3.91l-3.12-2-.75.3c3.47,3.21,2.61,6.36.2,9.35-1.24,1.53-.93,2.77.28,4s2.94,2.61,4.21,4c1.09,1.23,2.59,2.43.94,4.37a19.22,19.22,0,0,0-3.11,5.11c-.88,2.15-1.75,2.75-4.09,1.88a12,12,0,0,1-2.42-1.27c-3.16-2.11-6.39-4-10.4-4.66a21.77,21.77,0,0,1-3.7-1.17c-3.76-1.31-3.66-1.35-3.21-5s.91-7.3-.71-10.94c-.8.17-1.34.25-1.86.4-2.84.81-3.59.53-3.94-2.11a40.54,40.54,0,0,1-.06-5.74c2-1.1,3.57-1.87,5-2.8.3-.2.33-1.35.09-1.48-1.08-.61-.77-1.57-1.12-2.29-1.2-2.48-3.67,1.16-5.33-.53-.38.39-1,.75-1.08,1.19a36.69,36.69,0,0,0-.43,4c.23.53,4.13-.05,1.64,2.54l-2.86-1.08c0,.82.31,1.61.7,1.65,2.35.24,2.12,1.72,2.15,3.16a9.48,9.48,0,0,0,.33,2c.45,1.88,1.17,3.4,3.93,2.75.52-.12,1.78.41,1.8.71a42.89,42.89,0,0,1,.17,6.88c0,.51-1.22,1.25-2,1.33-.45.05-1.43-.9-1.52-1.48-.61-3.83-3.52-6-6.79-7.93-.84-.5-1.5-1.25-2.29-1.83a21.45,21.45,0,0,0-3.85-2.62c-1.53-.67-2.44-1.35-1.51-2.85,3.28-5.29,3.16-10.73,1.25-16.35a2.75,2.75,0,0,1,.69-2.64c3.08-2,3.16-2,.62-3.67-.38-1.36-.54-2.92-.87-3a15.42,15.42,0,0,0-4,.71,11.27,11.27,0,0,1-.7-3.11,10.8,10.8,0,0,1,.94-4.16,14,14,0,0,1,2.83-4.07,71,71,0,0,1,5.64-4.51c1.26.95,3,2.1,3.94-.78,0-.11.31-.15.47-.23,3.23-1.51,3.24-1.84.56-3.56l-.59-3c-.92.26-1.84.53-2.77.77a5.38,5.38,0,0,1-1.29.18c-1.17,0-2.34,0-3.51-.06l.38,3.29c-2.2.88-2,2.18.78,3.77a42.66,42.66,0,0,1-4.2,3c-1.3.72-2.65,1.5-4.06-.33s-.57-3.65.87-4.19c3.15-1.18,1.8-2.19.29-3.46l1.21-2.09c-2.23.16-4.33.24-6.4.52-.43.06-.93.85-1,1.37a24,24,0,0,0-.23,3.4l2.75.71c-1,3.8,4.37,6.54,2.32,11.21C1444.41-229.31,1446-234.42,1440.78-235.33Z" transform="translate(-923.55 662.69)"/><path class="cls-2" d="M1488.53-212.4c-1.65,3.16-3.75-.2-5.71.26a20.33,20.33,0,0,1,0-3.88c.05-.29,1.41-.43,2.18-.6,1-.23,2-.42,2.92-.61l3.25,5.7-.19.18Z" transform="translate(-923.55 662.69)"/><path class="cls-2" d="M1456.5-149.57c3.67-2.75,8.37-4.74,6.14-11,4.07,5.16,4.08,5.06,10.84,5.22a26.22,26.22,0,0,1,7.09,1.2c2.73.86,4.83,0,5.39-2.52.35-1.59,1-3.14,1.43-4.68-1.85-1.91-3.63-4-5.67-5.76-1.48-1.31-3.15-3-5-3.32-4-.71-7.57-1.6-10.54-4.51s-3.67-3.2-4.52-6.63a2.19,2.19,0,0,0-.42-.63,17.42,17.42,0,0,0-2-2.7,61.12,61.12,0,0,0-6.5-5.71c-1.65-1.18-3.91-1.64-5.67-2.72s-3.27-1-4.69.35a10.28,10.28,0,0,0-2.26,2.54c-2.49,5.16-6.12,9-12.92,9.3.46,2.56.89,4.79,1.23,7A1.5,1.5,0,0,1,1428-173c-1.57,1.51-3.2,3-4.39,4.07,0,1.58-.46,3.31.08,3.61,2.5,1.4,1,2.85.29,4.48,1.42.64,3.19,1.25,1.58,3.08-.1.12.17.59.38.82,1.74,1.92.07,2.26-1.51,2.56a23,23,0,0,0-3.29.45c-.57.2-.85,1.06-1.25,1.63.73.18,1.63.69,2.14.47,1.42-.61,2.6-1.64,4-2.27a24.39,24.39,0,0,1,3.77-1c-.22,1.16-.44,2.31-.64,3.47a.69.69,0,0,0,.06.33c4,1.87.18,4,.22,5.93l3.92-1.22.29,3.3,2,.41c1.06-.83,2.06-2,2.43-1.86,1.51.59,3.33,1.32,4.09,2.49s.63,3.15,1,4.74c.09.42.59.77,1.26,1.58a11.52,11.52,0,0,0-3.14-10.33c-3.73,1-3.9.89-5.16-2.34l-3.52-.15.89-3.56-1.92-6.57.71-.23-2-.82.6-.88-4-3.43,3.73-3.38,1.22-3-2.12-1.26c2.28-2,4.16-5.14,6.48-5.41,3.34-.4,3.59-5.34,8.06-3.49l-2.56,3.4,1.76.63-2.35,2.54.79.28c-.37,1-.7,2-1.15,3-.2.44-1,1-.89,1.15,1.35,2.1-.52,3-1.76,4l1.61,2.15c.74,1,1.28,2.64,2.26,2.89,2.12.54,2.65,1.59,2.55,2.7,1.22.94,3,2.07,2.86,2.23-1.39,2.08,1.19,3.17,1.1,4.73l4.53-.65,1-1.62a11.14,11.14,0,0,1,.94,4c.16,1.46-.2,3.35.68,4.28,1.61,1.7,4.79,2.3,4.17,5.41,0,.16.29.5.51.55,1.24.26,2.81,1,3.69.59,4.5-2.1,8.9-4.45,11.7-8.44,2.21-3.14,1.45-4.81-2.38-6.22a12.57,12.57,0,0,0-9.27.42C1461.5-151.68,1459-150.61,1456.5-149.57Z" transform="translate(-923.55 662.69)"/><path class="cls-2" d="M1456.5-149.57c2.51-1,5-2.11,7.54-3.1a12.57,12.57,0,0,1,9.27-.42c3.83,1.41,4.59,3.09,2.38,6.22-2.81,4-7.21,6.34-11.7,8.44-.88.41-2.45-.33-3.69-.59-.22,0-.54-.39-.51-.55.63-3.12-2.55-3.71-4.17-5.41-.88-.93-.52-2.82-.68-4.28a11.14,11.14,0,0,0-.94-4l-1,1.62-4.53.65c.09-1.57-2.49-2.66-1.1-4.73.1-.15-1.64-1.29-2.86-2.23.09-1.11-.43-2.16-2.55-2.7-1-.25-1.52-1.89-2.26-2.89l-1.61-2.15c1.24-1,3.11-1.9,1.76-4-.11-.17.69-.72.89-1.15.44-1,.77-2,1.15-3l-.79-.28,2.35-2.54-1.76-.63,2.56-3.4c-4.47-1.86-4.72,3.09-8.06,3.49-2.31.28-4.2,3.39-6.48,5.41l2.12,1.26-1.22,3-3.73,3.38,4,3.43-.6.88,2,.82-.71.23,1.92,6.57-.89,3.56,3.52.15c1.27,3.23,1.43,3.31,5.17,2.34a11.53,11.53,0,0,1,3.14,10.33c-.67-.81-1.17-1.16-1.26-1.58-.36-1.59-.13-3.43-1-4.74s-2.58-1.9-4.09-2.49c-.37-.14-1.38,1-2.43,1.86l-2-.41-.29-3.3-3.92,1.22c0-1.89,3.78-4.07-.22-5.93a.69.69,0,0,1-.06-.33c.2-1.16.43-2.31.64-3.47a24.39,24.39,0,0,0-3.77,1c-1.41.63-2.59,1.67-4,2.27-.51.22-1.42-.29-2.14-.47.41-.56.68-1.43,1.25-1.63a23,23,0,0,1,3.29-.45c1.58-.3,3.25-.64,1.51-2.56-.21-.23-.48-.7-.38-.82,1.61-1.84-.16-2.44-1.58-3.08.71-1.63,2.21-3.07-.29-4.48-.54-.3-.08-2-.08-3.61,1.19-1.1,2.82-2.56,4.39-4.07a1.5,1.5,0,0,0,.46-1.13c-.34-2.24-.77-4.47-1.23-7,6.8-.3,10.44-4.14,12.92-9.3a10.28,10.28,0,0,1,2.26-2.54c1.42-1.37,2.86-1.48,4.69-.35s4,1.55,5.67,2.72a61.12,61.12,0,0,1,6.5,5.71,17.42,17.42,0,0,1,2,2.7,2.19,2.19,0,0,1,.42.63c.85,3.44,1.63,3.82,4.52,6.63s6.5,3.8,10.54,4.51c1.84.32,3.51,2,5,3.32,2,1.81,3.82,3.86,5.67,5.76-.48,1.53-1.07,3.08-1.43,4.68-.56,2.53-2.66,3.38-5.39,2.52a26.22,26.22,0,0,0-7.09-1.2c-6.76-.16-6.77-.06-10.84-5.22C1464.87-154.31,1460.17-152.33,1456.5-149.57Z" transform="translate(-923.55 662.69)"/><path class="cls-2" d="M1448.36-116.74l1.43,2-1.58,1.74h-5.64l-.79-5.35c2.17-1.62,3.64-5.45,8.43-3.74l-1.17,5.32Z" transform="translate(-923.55 662.69)"/><path class="cls-2" d="M1493.05-130.69l.47-.7c.87.5,1.79.94,2.59,1.51,2.92,2.07,5.18,1.9,7.38-.78a5.92,5.92,0,0,1,6.9-2c1.68.52,3.33,1.13,5,1.67,7.57,2.42,11,1.21,14.58-5.16.34-.59.73-1.16,1.22-1.93-3-1.26-5.8-2.29-8.42-3.57-1.06-.52-2.36-1.53-2.52-2.46-.42-2.33-1.9-2.22-3.65-1.71-2.43.71-4.27,0-6.22-1.32a19.85,19.85,0,0,0-6.29-3.16,20.72,20.72,0,0,0-15.29,2.74c-9.49,5.58-18.64,11.64-28.42,17.81,3.79.17,4.36,2.15,4.12,4.52,5,.21,5,.21,5.61,3.53,3.89.32,2,2.92,2.52,5a7.88,7.88,0,0,0,2.18-1.77c.7-.72,1.37-2,2.12-2a9.23,9.23,0,0,1,4.55.88c2.12,1.11,4.8,2.12,6.09.32,1.59-2.22,3.6-2.4,5.87-3.09,1.48-.45,3.31-2,3.48-3.28s-1.5-2.69-2.46-4A5.68,5.68,0,0,0,1493.05-130.69Z" transform="translate(-923.55 662.69)"/><path class="cls-2" d="M1493.05-130.69a5.68,5.68,0,0,1,1.4,1c1,1.3,2.63,2.77,2.46,4s-2,2.83-3.48,3.28c-2.27.69-4.28.86-5.87,3.09-1.29,1.8-4,.8-6.09-.32a9.23,9.23,0,0,0-4.55-.88c-.75,0-1.42,1.3-2.12,2a7.88,7.88,0,0,1-2.18,1.77c-.48-2.06,1.38-4.66-2.52-5-.62-3.32-.62-3.32-5.61-3.53.24-2.37-.33-4.34-4.12-4.52,9.78-6.17,18.93-12.23,28.42-17.81a20.72,20.72,0,0,1,15.29-2.74,19.85,19.85,0,0,1,6.29,3.16c1.95,1.32,3.79,2,6.22,1.32,1.74-.51,3.23-.62,3.65,1.71.17.93,1.46,1.94,2.52,2.46,2.61,1.29,5.39,2.31,8.42,3.57-.49.77-.88,1.34-1.22,1.93-3.6,6.37-7,7.58-14.58,5.16-1.68-.54-3.32-1.15-5-1.67a5.92,5.92,0,0,0-6.9,2c-2.21,2.68-4.46,2.85-7.38.78-.81-.57-1.73-1-2.59-1.51Z" transform="translate(-923.55 662.69)"/><path class="cls-2" d="M1548-113c5.23-4.32,11.58-5.94,18.5-6.09,1,0,2.57.46,2.8,1,.32.82-.28,2-.68,2.94a12.8,12.8,0,0,1-1.44,2.1Z" transform="translate(-923.55 662.69)"/><path class="cls-2" d="M1556.28-119.32c-5.78,1.42-11.15,4.17-16.7,6.35h-68.25c2-1.88,3.84-3.84,6-5.57a3.19,3.19,0,0,1,2.63.28c3.91,2.61,7.11,2.65,11,.05a6.33,6.33,0,0,1,2.69-1.2,13.52,13.52,0,0,0,11.49-7.85c1.15-2.31,2.88-3.13,5.35-1.89,9.53,4.83,18.19,3,26.46-2.55a16.49,16.49,0,0,1,3.57-2,30.17,30.17,0,0,1,4.89-1.06,37.23,37.23,0,0,0,5.21-.76,21.86,21.86,0,0,1,14.32-.24c6.68,2.36,12.86,1.45,18.84-1.66,2.29-1.2,4.31-.82,5.71.9s0,3.09-1.33,4.43c-2.87,2.95-5.3,6.32-8.56,8.85-2,1.56-5.17,2.31-7.93,2.66C1566.52-119.93,1561.14-120.51,1556.28-119.32Z" transform="translate(-923.55 662.69)"/><path class="cls-2" d="M1570.6-113c1.63-3.83,4.32-6.54,9.64-7-.21,2.42-.42,4.71-.62,7Z" transform="translate(-923.55 662.69)"/><path class="cls-2" d="M1688.5-117.13c1.4,1.46,3,2.78,4.49,4.16H1582.44c-1.87-5.28-.75-8.7,4.05-11.79a28.35,28.35,0,0,0,9.33-9.29c.9-1.52,2-2.81,4.2-2.92,15.49-.76,29.11-6.28,42.42-13,11.31-5.68,23.54-5.46,35.82-2.71,2.34.52,5.45,6,4.46,8.06C1677.67-134.22,1680.66-125.26,1688.5-117.13Z" transform="translate(-923.55 662.69)"/><path class="cls-2" d="M1691.69-277.05c1.69,1.53,2.66,3.69,3.95,5.57l.63.08,1.8-16.36-12.38,7.34C1687.71-279.33,1690.07-278.52,1691.69-277.05Z" transform="translate(-923.55 662.69)"/><path class="cls-2" d="M1691.69-277.05c-1.62-1.47-4-2.28-6-3.37l12.38-7.34-1.8,16.36-.63-.08C1694.35-273.37,1693.38-275.52,1691.69-277.05Z" transform="translate(-923.55 662.69)"/><polygon class="cls-2" points="812.24 361.88 812.24 415.72 820.32 415.72 820.32 469.6 812.24 469.6 812.24 523.44 820.32 523.44 820.32 577.32 766.47 577.32 766.47 569.23 712.6 569.23 712.6 577.32 658.76 577.32 658.76 569.23 604.88 569.23 604.88 577.32 551.04 577.32 551.04 569.23 497.17 569.23 497.17 577.32 443.32 577.32 443.32 523.44 451.4 523.44 451.4 469.6 443.32 469.6 443.32 415.72 451.4 415.72 451.4 361.88 443.32 361.88 443.32 316.09 497.17 316.09 497.17 308.02 551.04 308.02 551.04 316.09 604.88 316.09 604.88 308.02 658.76 308.02 658.76 316.09 712.59 316.09 712.59 308.02 766.47 308.02 766.47 316.09 820.32 316.09 820.32 361.88 812.24 361.88"/><path class="cls-2" d="M1314.69-277.06c1.69,1.53,2.66,3.69,3.95,5.57l.63.08,1.8-16.36-12.38,7.34C1310.71-279.34,1313.07-278.53,1314.69-277.06Z" transform="translate(-923.55 662.69)"/><path class="cls-2" d="M1314.69-277.06c-1.62-1.47-4-2.28-6-3.37l12.38-7.34-1.8,16.36-.63-.08C1317.35-273.37,1316.38-275.53,1314.69-277.06Z" transform="translate(-923.55 662.69)"/><path class="cls-2" d="M1311.5-117.14c1.4,1.46,3,2.78,4.49,4.16H1205.44c-1.87-5.28-.75-8.7,4.05-11.79a28.35,28.35,0,0,0,9.33-9.29c.9-1.52,2-2.81,4.2-2.92,15.49-.76,29.11-6.28,42.42-13,11.31-5.68,23.54-5.46,35.82-2.71,2.34.52,5.45,6,4.46,8.06C1300.67-134.23,1303.67-125.27,1311.5-117.14Z" transform="translate(-923.55 662.69)"/><path class="cls-2" d="M1193.6-113c1.63-3.83,4.32-6.54,9.64-7-.21,2.42-.42,4.71-.62,7Z" transform="translate(-923.55 662.69)"/><path class="cls-2" d="M1179.28-119.32c-5.78,1.42-11.15,4.17-16.7,6.35h-68.25c2-1.88,3.84-3.84,6-5.57a3.19,3.19,0,0,1,2.63.28c3.91,2.61,7.11,2.65,11,.05a6.33,6.33,0,0,1,2.69-1.2,13.52,13.52,0,0,0,11.49-7.85c1.15-2.31,2.88-3.13,5.35-1.89,9.53,4.83,18.19,3,26.46-2.55a16.49,16.49,0,0,1,3.57-2,30.17,30.17,0,0,1,4.89-1.06,37.21,37.21,0,0,0,5.21-.76,21.86,21.86,0,0,1,14.32-.24c6.68,2.36,12.86,1.45,18.84-1.66,2.3-1.2,4.31-.82,5.71.9s0,3.09-1.33,4.43c-2.87,2.95-5.3,6.32-8.56,8.85-2,1.56-5.17,2.31-7.93,2.66C1189.52-119.94,1184.14-120.52,1179.28-119.32Z" transform="translate(-923.55 662.69)"/><path class="cls-2" d="M1171-113c5.23-4.32,11.58-5.94,18.5-6.09,1,0,2.57.46,2.8,1,.32.82-.28,2-.68,2.94a12.79,12.79,0,0,1-1.44,2.1Z" transform="translate(-923.55 662.69)"/><path class="cls-2" d="M1116.05-130.7l.47-.7c.87.5,1.79.94,2.59,1.51,2.92,2.07,5.18,1.9,7.38-.78a5.92,5.92,0,0,1,6.9-2c1.68.52,3.33,1.13,5,1.67,7.57,2.42,11,1.21,14.58-5.16.34-.59.73-1.16,1.22-1.93-3-1.26-5.8-2.29-8.42-3.57-1.06-.52-2.36-1.53-2.52-2.46-.42-2.33-1.9-2.22-3.65-1.71-2.43.71-4.27,0-6.22-1.32a19.84,19.84,0,0,0-6.29-3.16,20.72,20.72,0,0,0-15.29,2.74c-9.49,5.58-18.64,11.64-28.42,17.81,3.79.17,4.36,2.15,4.12,4.52,5,.21,5,.21,5.61,3.53,3.89.32,2,2.92,2.52,5a7.88,7.88,0,0,0,2.18-1.77c.7-.72,1.37-2,2.12-2a9.23,9.23,0,0,1,4.55.88c2.12,1.11,4.8,2.12,6.09.32,1.59-2.22,3.6-2.4,5.87-3.09,1.48-.45,3.31-2,3.48-3.28s-1.5-2.69-2.46-4A5.67,5.67,0,0,0,1116.05-130.7Z" transform="translate(-923.55 662.69)"/><path class="cls-2" d="M1116.05-130.7a5.67,5.67,0,0,1,1.4,1c1,1.3,2.63,2.77,2.46,4s-2,2.83-3.48,3.28c-2.27.69-4.28.86-5.87,3.09-1.29,1.8-4,.8-6.09-.32a9.23,9.23,0,0,0-4.55-.88c-.75,0-1.42,1.3-2.12,2a7.88,7.88,0,0,1-2.18,1.77c-.48-2.06,1.38-4.66-2.52-5-.62-3.32-.62-3.32-5.61-3.53.24-2.37-.33-4.34-4.12-4.52,9.78-6.17,18.93-12.23,28.42-17.81a20.72,20.72,0,0,1,15.29-2.74,19.84,19.84,0,0,1,6.29,3.16c1.95,1.32,3.79,2,6.22,1.32,1.74-.51,3.23-.62,3.65,1.71.17.93,1.46,1.94,2.52,2.46,2.61,1.29,5.39,2.31,8.42,3.57-.49.77-.88,1.34-1.22,1.93-3.6,6.37-7,7.58-14.58,5.16-1.68-.54-3.32-1.15-5-1.67a5.92,5.92,0,0,0-6.9,2c-2.21,2.68-4.46,2.85-7.38.78-.81-.57-1.73-1-2.59-1.51Z" transform="translate(-923.55 662.69)"/><path class="cls-2" d="M1079.5-149.58c3.67-2.75,8.37-4.74,6.14-11,4.07,5.16,4.08,5.06,10.84,5.22a26.22,26.22,0,0,1,7.09,1.2c2.73.86,4.83,0,5.39-2.52.35-1.59,1-3.14,1.43-4.68-1.85-1.91-3.63-4-5.67-5.76-1.48-1.31-3.15-3-5-3.32-4-.71-7.57-1.6-10.54-4.51s-3.67-3.2-4.52-6.63a2.19,2.19,0,0,0-.42-.63,17.42,17.42,0,0,0-2-2.7,61.11,61.11,0,0,0-6.5-5.71c-1.65-1.18-3.91-1.64-5.66-2.72s-3.27-1-4.69.35a10.28,10.28,0,0,0-2.26,2.54c-2.49,5.16-6.12,9-12.92,9.3.46,2.56.89,4.79,1.23,7A1.5,1.5,0,0,1,1051-173c-1.57,1.51-3.2,3-4.39,4.07,0,1.58-.46,3.31.08,3.61,2.5,1.4,1,2.85.3,4.48,1.42.64,3.19,1.25,1.58,3.08-.1.12.17.59.38.82,1.74,1.92.07,2.26-1.51,2.56a23,23,0,0,0-3.29.45c-.57.2-.85,1.06-1.25,1.63.73.18,1.63.69,2.14.47,1.42-.61,2.6-1.64,4-2.27a24.39,24.39,0,0,1,3.77-1c-.22,1.16-.44,2.31-.64,3.47a.69.69,0,0,0,.06.33c4,1.87.18,4,.22,5.93l3.92-1.22.29,3.3,2,.41c1.06-.83,2.06-2,2.43-1.86,1.51.59,3.33,1.32,4.09,2.49s.63,3.15,1,4.74c.09.42.59.77,1.26,1.58a11.52,11.52,0,0,0-3.14-10.33c-3.73,1-3.9.89-5.16-2.34l-3.52-.15.89-3.56-1.92-6.57.71-.23-2-.82.6-.88-4-3.43,3.73-3.38,1.22-3-2.12-1.26c2.28-2,4.16-5.14,6.48-5.41,3.34-.4,3.59-5.34,8.06-3.49l-2.56,3.4,1.76.63-2.35,2.54.79.28c-.38,1-.7,2-1.15,3-.2.44-1,1-.89,1.15,1.35,2.1-.52,3-1.76,4l1.61,2.15c.74,1,1.28,2.64,2.26,2.89,2.12.54,2.65,1.59,2.55,2.7,1.22.94,3,2.07,2.86,2.23-1.39,2.08,1.19,3.17,1.1,4.74l4.53-.65,1-1.62a11.14,11.14,0,0,1,.94,4c.16,1.46-.2,3.35.68,4.28,1.61,1.7,4.79,2.3,4.17,5.41,0,.16.3.5.51.55,1.24.26,2.81,1,3.69.59,4.5-2.1,8.9-4.45,11.7-8.44,2.21-3.14,1.45-4.81-2.38-6.22a12.57,12.57,0,0,0-9.27.42C1084.5-151.69,1082-150.61,1079.5-149.58Z" transform="translate(-923.55 662.69)"/><path class="cls-2" d="M1079.5-149.58c2.51-1,5-2.11,7.54-3.1a12.57,12.57,0,0,1,9.27-.42c3.83,1.41,4.59,3.09,2.38,6.22-2.81,4-7.21,6.34-11.7,8.44-.88.41-2.45-.33-3.69-.59-.22,0-.54-.39-.51-.55.63-3.12-2.55-3.71-4.17-5.41-.88-.93-.52-2.82-.68-4.28a11.14,11.14,0,0,0-.94-4l-1,1.62-4.53.65c.09-1.57-2.49-2.66-1.1-4.74.1-.15-1.64-1.29-2.86-2.23.09-1.11-.43-2.16-2.55-2.7-1-.25-1.52-1.89-2.26-2.89l-1.61-2.15c1.24-1,3.11-1.9,1.76-4-.11-.17.69-.72.89-1.15.44-1,.77-2,1.15-3l-.79-.28,2.35-2.54-1.76-.63,2.56-3.4c-4.47-1.86-4.72,3.09-8.06,3.49-2.31.28-4.2,3.39-6.48,5.41l2.12,1.26-1.22,3-3.73,3.38,4,3.43-.6.88,2,.82-.71.23,1.92,6.57-.89,3.56,3.52.15c1.27,3.23,1.43,3.31,5.17,2.34a11.53,11.53,0,0,1,3.14,10.33c-.67-.81-1.17-1.16-1.26-1.58-.36-1.59-.13-3.43-1-4.74s-2.58-1.9-4.09-2.49c-.37-.14-1.38,1-2.43,1.86l-2-.41-.29-3.3-3.92,1.22c0-1.89,3.78-4.07-.22-5.93a.69.69,0,0,1-.06-.33c.2-1.16.43-2.31.64-3.47a24.39,24.39,0,0,0-3.77,1c-1.41.63-2.59,1.67-4,2.27-.51.22-1.42-.29-2.14-.47.41-.56.69-1.43,1.25-1.63a23,23,0,0,1,3.29-.45c1.58-.3,3.25-.64,1.51-2.56-.21-.23-.48-.7-.38-.82,1.61-1.84-.16-2.44-1.58-3.08.71-1.63,2.21-3.07-.3-4.48-.54-.3-.08-2-.08-3.61,1.19-1.1,2.82-2.56,4.39-4.07a1.5,1.5,0,0,0,.46-1.13c-.34-2.24-.77-4.47-1.23-7,6.8-.3,10.44-4.14,12.92-9.3a10.28,10.28,0,0,1,2.26-2.54c1.42-1.37,2.86-1.48,4.69-.35s4,1.55,5.66,2.72a61.11,61.11,0,0,1,6.5,5.71,17.42,17.42,0,0,1,2,2.7,2.19,2.19,0,0,1,.42.63c.85,3.44,1.63,3.82,4.52,6.63s6.5,3.8,10.54,4.51c1.84.32,3.51,2,5,3.32,2,1.81,3.82,3.86,5.67,5.76-.48,1.53-1.07,3.08-1.43,4.68-.56,2.53-2.66,3.38-5.39,2.52a26.22,26.22,0,0,0-7.09-1.2c-6.76-.16-6.77-.06-10.84-5.22C1087.87-154.32,1083.17-152.33,1079.5-149.58Z" transform="translate(-923.55 662.69)"/><path class="cls-2" d="M1071.36-116.75l1.43,2-1.58,1.74h-5.64l-.79-5.35c2.17-1.62,3.64-5.45,8.43-3.74l-1.17,5.32Z" transform="translate(-923.55 662.69)"/><path class="cls-2" d="M1111.53-212.4c-1.65,3.16-3.75-.2-5.71.26a20.33,20.33,0,0,1,0-3.88c.05-.29,1.41-.43,2.18-.6,1-.23,2-.42,2.92-.61l3.25,5.7-.19.18Z" transform="translate(-923.55 662.69)"/><path class="cls-2" d="M1080.52-230.51l-1-.45c-2.59-1.23-3.58-.68-3.62,1.95,0,.33-.54.64-.74,1-.35.61-1,1.3-.86,1.86a2.73,2.73,0,0,0,1.53,1.54,6.13,6.13,0,0,0,2.2.06l-.18.55c1,.91,1.84,2.24,3,2.58.62.17,1.85-1.41,2.72-2.13l4.26-1.58-2.57-3.21c-.14-1,0-2.77-.48-2.91-1.29-.39-2.84-.08-4.29,0C1080.55-231,1080.54-230.77,1080.52-230.51Z" transform="translate(-923.55 662.69)"/><path class="cls-2" d="M1080.52-230.51c0-.26,0-.53,0-.79,1.45,0,3-.35,4.29,0,.48.15.34,1.93.48,2.91l2.57,3.21-4.26,1.58c-.87.72-2.1,2.31-2.72,2.13-1.2-.34-2-1.66-3-2.58l.18-.55a6.13,6.13,0,0,1-2.2-.06,2.73,2.73,0,0,1-1.53-1.54c-.12-.55.51-1.25.86-1.86.21-.35.74-.66.74-1,0-2.63,1-3.18,3.62-1.95Z" transform="translate(-923.55 662.69)"/><path class="cls-2" d="M1063.78-235.34c4,2.14,3.41,5.55,4.15,8.5,4.63,1.87-.32,5.68,1.86,7.85l-1.57,2.51c1,.25,2.1.46,3.12.76a2.44,2.44,0,0,1,1.3.72c.88,1.39,1.62,2.84,2.42,4.26l-.73.85-8.06-2.62-4.84,2.51c.85,0,1.86.08,2.86.17,3.05.29,6.14.43,9.13,1a3.52,3.52,0,0,1,2.38,2.34c.21,3.79-1.61,7.06-3.43,9.69-2.13,0-3.61.1-5.06,0a9.48,9.48,0,0,1-2.76-.81c-2.68-1.14-5.22-2.68-8-3.42-1.94-.51-4.23,0-6.36.12l.09.89c.5,0,1,0,1.51-.14a11.63,11.63,0,0,1,11.07,3.52,2.75,2.75,0,0,1,.81,2.22c-.85,3-2,5.25-6.31,5.26h-3.11c0,.19,0,.38,0,.58h6.13c-1.6,4.25-7.31,7.34-11.52,6.49a12.21,12.21,0,0,0-4.65.46c-1.43.3-2.77,1.07-4.2,1.24-.45.05-1.25-1.11-1.55-1.83-.09-.21,1-1.21,1.53-1.17,3.81.31,3.8.36,4.42-3.2,2.7.16,2.44-2.11,3.58-3.32,2.36-2.51,1.75-4.11-.65-5.83,3.4-3,3.37-3.52.55-5.28-.17-1.65.17-3.19-.5-3.76-1-.87-2.79-1.07-4.26-1.57,2.79-3.5,2.72-4.07-.65-5.55,1.5-3.19,1.2-3.86-2.23-4.94.74-3.71.46-4.14-3.39-5,.88-1.92,0-3-2.06-3.35l2.4-11.25c6.56-2.26,6.63-2.37,7-9.21.18-3.37,1.38-6.25,4.88-8a8,8,0,0,0,1.55-1.16,8.64,8.64,0,0,1-.57-2.63c.49-2.79,1.13-5.57,1.74-8.35a6,6,0,0,1,.54-1.36c.53-1.06,1.1-2.1,1.41-2.69.81-1.11,2-2.05,1.93-2.86s-1.67-1.25-2.6-1.86a3.64,3.64,0,0,1-.47-.25c-.75-.69-1.51-2-2.21-2-1,0-1.85,1.09-2.77,1.71l-.16-.48-3.54,1,1.21,2.67-.17,3.43h5c.1.2.85,1,.69,1.51-1.24,4.09-1.62,8.83-4.29,12a20.89,20.89,0,0,0-4.95,12.22c-.22,2.36-2.18,3.56-5.13,3.08,1.83-3.16,1.35-6.95,4.06-10,1-1.08,3.09-3.37.42-5.52-.94-.76-1.05-2.42-1.37-3.7-.39-1.58-.61-3.2-.92-4.95l.92-.25c3.73-1,4.23-2.07,2.7-5.4-.46-1-1.42-2.08-1.27-3,1-6.35-2.16-12.48-1.09-18.83.62-3.69.82-7.43,1.21-11.22l6.71,1.65-1.11-5.36c3.65.28,1.35-3.18,3.36-4.17-1.64-1.12-4.77.71-4.48-2.11.07-.68,2.74-1.15,4.21-1.72l1,.35-2.22-5.89c-.8-.76-1.61-1.19-1.74-1.74-.53-2.29-1.11-2.51-3.22-1-.48.34-1,.66-1.77,1.19-.34-3.53-3.46-2.88-5.2-2.51-1.47.31-2.47,2.4-3.68,3.7-.35.52-1.64.5-1.88.94-1.89,3.38-4.18,2.07-6.59.66-.24-.14-.72,0-1.09.05v-8.58q153.83,0,307.67,0a13.53,13.53,0,0,1,2.54.48c-.63.57-1.51,1-1.85,1.74a76.7,76.7,0,0,0-4.1,9.06c-2,6-3.75,12-5.62,18.11-2.49,0-2.72.3-3.14,2.84a5.55,5.55,0,0,1-1.61,3.28,20.5,20.5,0,0,1-22.77,2.42c-5-2.56-9.9-4.34-15.76.1-.34-2-.9-3.46-.72-4.79a5.05,5.05,0,0,0-2.32-5.32c-2.1,2.71-3.34,5.57-7.36,7.11-3.39,1.29-6.76,1.53-10.21,2,2.38,3.35,4.32,6.49,6.73,9.3a12.82,12.82,0,0,0,5,3.14,21.14,21.14,0,0,0,5.48.93c5.55.56,9.89,2.46,11.59,7.71a22.5,22.5,0,0,0,2.33,4.58c4.19,6.89,10.72,10.37,19.47,10.5,2.24,0,4.49,0,6.74,0a11,11,0,0,1-5.05,2,90.66,90.66,0,0,1-12.57-.28c-15.08-1.58-23.37,8.37-20.08,20.82a3.64,3.64,0,0,0,.63-.46c4.62-5.41,10.66-7,18-5.59a54.72,54.72,0,0,0,8.91,1.12c7.5.2,13.44-2.12,16.25-8.9.08-.19.37-.3.56-.46,1.07,1.74.44,2.88-1.12,4.14-5.08,4.1-8.73,9.22-9.71,15.23a30.88,30.88,0,0,1-5.2,12.69c-5.47,8.11-7.53,16.76-3.18,25.94a2.71,2.71,0,0,1,.21,1.68c-1.26,5.38-2.78,6.52-9,6.83-.84,0-1.69,0-2.53.08-5,.38-10,.61-14.28,3.22a20.83,20.83,0,0,0-3.11,2.43c-1.06,1-1.8,2.3-3,3a37.22,37.22,0,0,1-6.43,2.49,21.77,21.77,0,0,0-11.83,8.44,4.94,4.94,0,0,1-1.83,1.82c-5.15,2.19-10.17,5-15.61,6.23a279.81,279.81,0,0,1-30.81,5.52,131.42,131.42,0,0,1-25,.64c-7.67-.57-15.2-2.7-22.77-4.23a39.09,39.09,0,0,1-18-8.34,17.53,17.53,0,0,0-6-3.05c-2.95-.92-6.08-1.36-9.36-2,.18-.57.43-1.18.57-1.81a90.16,90.16,0,0,0,1.9-9.1c.44-3.86-2.61-6.43-5-9.2a6.17,6.17,0,0,1,3.44-9.92c1.54.73,3,1.9,3.6,1.62a15.9,15.9,0,0,0,5-3.63c.35-.39-1.09-2.08-1.91-3.52l-.64-2.78-4.72,1.13a5.6,5.6,0,0,1-1-1.36c-.74-1.63-1.2-3.36-2-4.95-1-1.91-.75-3.39,1.23-4.59,1.67-1,1.59-2.24.75-3.71a16.6,16.6,0,0,1-1.86-4.15c-.14-.55,1.06-2,1.24-1.9,1.43.43,3.39-.94,4.45,1,.11.21,1.8-.09,2.65-.41s1.24-1,1.94-1.36c1.43-.8,1.75-1.71.45-2.79a8.79,8.79,0,0,0-1.59-.85l.58-.26-.76-2.58-3.46.91-3.78-.15.21,3.67c-2.12,1.34-4.18-.17-6.41-.82l-2.88,2.2,1.52,2.77c1.8.36,3.72.24,4.39,1a6.26,6.26,0,0,1,1.57,4.42,7.28,7.28,0,0,1-2.51,4.09c-.53.48-2.31,0-3.45-.28a14.67,14.67,0,0,1-2.71-1.28l-3.25-5.7c-.92.19-1.92.39-2.92.61-.77.17-2.13.31-2.18.6a20.33,20.33,0,0,0,0,3.88c2-.46,4.05,2.9,5.71-.26l2.46,1,4.18,3.14a18,18,0,0,1-2.47,1.89c-3.08,1.63,1.65,2.53.45,4-.08.09.53.71.91,1,.14.11.53,0,.8-.07l4.18-.39c-.33,1.45-1,2.5-.64,3.1,1.21,2.12-.09,3-1.73,3.91l-3.12-2-.75.3c3.47,3.21,2.61,6.36.19,9.35-1.24,1.53-.93,2.77.28,4s2.94,2.61,4.21,4c1.09,1.23,2.59,2.43.94,4.37a19.22,19.22,0,0,0-3.11,5.11c-.88,2.15-1.75,2.75-4.09,1.88a12,12,0,0,1-2.42-1.27c-3.16-2.11-6.39-4-10.4-4.66a21.77,21.77,0,0,1-3.7-1.17c-3.76-1.31-3.66-1.35-3.21-5s.91-7.3-.71-10.94c-.8.17-1.34.25-1.86.4-2.84.81-3.59.53-3.94-2.11a40.55,40.55,0,0,1-.06-5.74c2-1.1,3.57-1.87,5-2.8.3-.2.33-1.35.09-1.48-1.08-.61-.77-1.57-1.12-2.29-1.2-2.48-3.67,1.16-5.33-.53-.38.39-1,.75-1.08,1.19a36.69,36.69,0,0,0-.43,4c.23.53,4.13-.05,1.64,2.54l-2.86-1.08c0,.82.31,1.61.7,1.65,2.35.24,2.12,1.72,2.15,3.16a9.48,9.48,0,0,0,.33,2c.45,1.88,1.17,3.4,3.93,2.75.52-.12,1.78.41,1.8.71a42.88,42.88,0,0,1,.17,6.88c0,.51-1.22,1.25-2,1.33-.45.05-1.43-.9-1.52-1.48-.61-3.83-3.52-6-6.79-7.93-.84-.5-1.5-1.25-2.29-1.83a21.45,21.45,0,0,0-3.85-2.62c-1.53-.67-2.44-1.35-1.51-2.85,3.28-5.29,3.16-10.73,1.25-16.35a2.75,2.75,0,0,1,.69-2.64c3.08-2,3.16-2,.62-3.67-.38-1.36-.54-2.92-.87-3a15.42,15.42,0,0,0-4,.71,11.26,11.26,0,0,1-.7-3.11,10.8,10.8,0,0,1,.94-4.16,14,14,0,0,1,2.83-4.07,71,71,0,0,1,5.64-4.51c1.26.95,3,2.1,3.94-.78,0-.11.31-.15.47-.23,3.23-1.51,3.24-1.84.56-3.56l-.59-3c-.92.26-1.84.53-2.77.77a5.38,5.38,0,0,1-1.29.18c-1.17,0-2.34,0-3.51-.06l.38,3.29c-2.2.88-2,2.18.78,3.77a42.67,42.67,0,0,1-4.2,3c-1.3.72-2.65,1.5-4.06-.33s-.57-3.65.87-4.19c3.15-1.18,1.8-2.19.29-3.46l1.21-2.09c-2.23.16-4.33.24-6.4.52-.43.06-.93.85-1,1.37a24,24,0,0,0-.23,3.4l2.75.71c-1,3.8,4.37,6.54,2.32,11.21C1067.42-229.31,1069-234.42,1063.78-235.34Z" transform="translate(-923.55 662.69)"/><path class="cls-2" d="M1039.73-269.39a40,40,0,0,1-1.18-6.23c-.21-1.73.57-3.87-.31-5.17-1.79-2.63-4.36-4.84-6.71-7.14a8.1,8.1,0,0,0-2.31-1c-.95,2.18-2.13,4-2.5,6s-2.2,3.7-.59,6a64.89,64.89,0,0,1,4.1,7.84c1.65.79,3.9,1.27,5,2.55,1.5,1.76,2.71,1,4,.38C1041-266.95,1040.08-268.16,1039.73-269.39Z" transform="translate(-923.55 662.69)"/><path class="cls-2" d="M1039.73-269.39c.35,1.23,1.27,2.45-.5,3.25-1.31.59-2.52,1.38-4-.38-1.09-1.27-3.34-1.75-5-2.55a64.89,64.89,0,0,0-4.1-7.84c-1.61-2.32.22-4.08.59-6s1.56-3.83,2.5-6a8.1,8.1,0,0,1,2.31,1c2.35,2.3,4.92,4.51,6.71,7.14.88,1.29.11,3.43.31,5.17A40,40,0,0,0,1039.73-269.39Z" transform="translate(-923.55 662.69)"/><polygon class="cls-2" points="74.4 415.72 66.32 415.72 66.32 469.6 74.4 469.6 74.4 523.44 66.32 523.44 66.32 577.31 120.17 577.31 120.17 569.23 174.05 569.23 174.05 577.31 227.88 577.31 227.88 569.23 281.76 569.23 281.76 577.31 335.6 577.31 335.6 569.23 389.47 569.23 389.47 577.31 443.32 577.31 443.32 523.44 435.24 523.44 435.24 469.6 443.32 469.6 443.32 415.72 435.24 415.72 435.24 361.88 443.32 361.88 443.32 316.09 389.47 316.09 389.47 308.02 335.6 308.02 335.6 316.09 281.76 316.09 281.76 308.02 227.88 308.02 227.88 316.09 174.05 316.09 174.05 308.02 120.17 308.02 120.17 316.09 66.32 316.09 66.32 361.88 74.4 361.88 74.4 415.72"/><circle class="cls-3" cx="163.25" cy="161.18" r="53.85"/><rect class="cls-3" x="36.67" y="34.61" width="253.15" height="253.13"/><path class="cls-2" d="M1314.69-15.84c1.69,1.53,2.66,3.69,3.95,5.57l.63.08,1.8-16.36-12.38,7.34C1310.71-18.12,1313.07-17.31,1314.69-15.84Z" transform="translate(-923.55 662.69)"/><path class="cls-2" d="M1314.69-15.84c-1.62-1.47-4-2.28-6-3.37l12.38-7.34-1.8,16.36-.63-.08C1317.35-12.16,1316.38-14.31,1314.69-15.84Z" transform="translate(-923.55 662.69)"/><path class="cls-2" d="M1311.5,144.08c1.4,1.46,3,2.78,4.49,4.16H1205.44c-1.87-5.28-.75-8.7,4.05-11.79a28.35,28.35,0,0,0,9.33-9.29c.9-1.52,2-2.81,4.2-2.92,15.49-.76,29.11-6.28,42.42-13,11.31-5.68,23.54-5.46,35.82-2.71,2.34.52,5.45,6,4.46,8.06C1300.67,127,1303.67,135.95,1311.5,144.08Z" transform="translate(-923.55 662.69)"/><path class="cls-2" d="M1193.6,148.24c1.63-3.83,4.32-6.54,9.64-7-.21,2.42-.42,4.71-.62,7Z" transform="translate(-923.55 662.69)"/><path class="cls-2" d="M1179.28,141.89c-5.78,1.42-11.15,4.17-16.7,6.35h-68.25c2-1.88,3.84-3.84,6-5.57a3.19,3.19,0,0,1,2.63.28c3.91,2.61,7.11,2.65,11,.05a6.33,6.33,0,0,1,2.69-1.2,13.52,13.52,0,0,0,11.49-7.85c1.15-2.31,2.88-3.13,5.35-1.89,9.53,4.83,18.19,3,26.46-2.55a16.49,16.49,0,0,1,3.57-2,30.15,30.15,0,0,1,4.89-1.06,37.21,37.21,0,0,0,5.21-.76,21.86,21.86,0,0,1,14.32-.24c6.68,2.36,12.86,1.45,18.84-1.66,2.29-1.2,4.31-.82,5.71.9s0,3.09-1.33,4.43c-2.87,2.95-5.3,6.32-8.56,8.85-2,1.56-5.17,2.31-7.93,2.66C1189.52,141.28,1184.14,140.7,1179.28,141.89Z" transform="translate(-923.55 662.69)"/><path class="cls-2" d="M1171,148.24c5.23-4.32,11.58-5.94,18.5-6.09,1,0,2.57.46,2.8,1,.32.82-.28,2-.68,2.94a12.81,12.81,0,0,1-1.44,2.1Z" transform="translate(-923.55 662.69)"/><path class="cls-2" d="M1116.05,130.52l.47-.7c.87.5,1.79.94,2.59,1.51,2.92,2.07,5.18,1.9,7.38-.78a5.92,5.92,0,0,1,6.9-2c1.68.52,3.33,1.13,5,1.67,7.57,2.42,11,1.21,14.58-5.16.34-.59.73-1.16,1.22-1.93-3-1.26-5.8-2.29-8.42-3.57-1.06-.52-2.36-1.53-2.52-2.46-.42-2.33-1.9-2.22-3.65-1.71-2.43.71-4.27,0-6.22-1.32a19.84,19.84,0,0,0-6.29-3.16,20.72,20.72,0,0,0-15.29,2.74c-9.49,5.58-18.64,11.64-28.42,17.81,3.79.17,4.36,2.15,4.12,4.52,5,.21,5,.21,5.61,3.53,3.89.32,2,2.92,2.52,5a7.88,7.88,0,0,0,2.18-1.77c.7-.72,1.37-2,2.12-2a9.23,9.23,0,0,1,4.55.88c2.12,1.11,4.8,2.12,6.09.32,1.59-2.22,3.6-2.4,5.87-3.09,1.48-.45,3.31-2,3.48-3.28s-1.5-2.69-2.46-4A5.68,5.68,0,0,0,1116.05,130.52Z" transform="translate(-923.55 662.69)"/><path class="cls-2" d="M1116.05,130.52a5.68,5.68,0,0,1,1.4,1c1,1.3,2.63,2.77,2.46,4s-2,2.83-3.48,3.28c-2.27.69-4.28.87-5.87,3.09-1.29,1.8-4,.8-6.09-.32a9.23,9.23,0,0,0-4.55-.88c-.75,0-1.42,1.3-2.12,2a7.88,7.88,0,0,1-2.18,1.77c-.48-2.06,1.38-4.66-2.52-5-.62-3.32-.62-3.32-5.61-3.53.24-2.37-.33-4.34-4.12-4.52,9.78-6.17,18.93-12.23,28.42-17.81a20.72,20.72,0,0,1,15.29-2.74,19.84,19.84,0,0,1,6.29,3.16c1.95,1.32,3.79,2,6.22,1.32,1.74-.51,3.23-.62,3.65,1.71.17.93,1.46,1.94,2.52,2.46,2.61,1.29,5.39,2.31,8.42,3.57-.49.77-.88,1.34-1.22,1.93-3.6,6.37-7,7.58-14.58,5.16-1.68-.54-3.32-1.15-5-1.67a5.92,5.92,0,0,0-6.9,2c-2.21,2.68-4.46,2.85-7.38.78-.81-.57-1.73-1-2.59-1.51Z" transform="translate(-923.55 662.69)"/><path class="cls-2" d="M1079.5,111.64c3.67-2.75,8.37-4.74,6.14-11,4.07,5.16,4.08,5.06,10.84,5.22a26.22,26.22,0,0,1,7.09,1.2c2.73.86,4.83,0,5.39-2.52.35-1.59,1-3.14,1.43-4.68-1.85-1.91-3.63-4-5.67-5.76-1.48-1.31-3.15-3-5-3.32-4-.71-7.57-1.6-10.54-4.51s-3.67-3.2-4.52-6.63a2.19,2.19,0,0,0-.42-.63,17.4,17.4,0,0,0-2-2.7,61.09,61.09,0,0,0-6.5-5.71c-1.65-1.18-3.91-1.64-5.67-2.72s-3.27-1-4.69.35a10.28,10.28,0,0,0-2.26,2.54c-2.49,5.16-6.12,9-12.92,9.3.46,2.56.89,4.79,1.23,7a1.5,1.5,0,0,1-.46,1.13c-1.57,1.51-3.2,3-4.39,4.07,0,1.58-.46,3.31.08,3.61,2.5,1.4,1,2.85.29,4.48,1.42.64,3.19,1.25,1.58,3.08-.1.12.17.59.38.82,1.74,1.92.07,2.26-1.51,2.56a23,23,0,0,0-3.29.45c-.57.2-.85,1.06-1.25,1.63.73.18,1.63.69,2.14.47,1.42-.61,2.6-1.64,4-2.27a24.36,24.36,0,0,1,3.77-1c-.22,1.16-.44,2.31-.64,3.47a.69.69,0,0,0,.06.33c4,1.87.18,4,.22,5.93l3.92-1.22.29,3.3,2,.41c1.06-.83,2.06-2,2.43-1.86,1.51.59,3.33,1.32,4.09,2.49s.63,3.15,1,4.74c.09.42.59.77,1.26,1.58A11.52,11.52,0,0,0,1064.3,115c-3.73,1-3.9.89-5.16-2.34l-3.52-.15.89-3.56-1.92-6.57.71-.23-2-.82.6-.88-4-3.43,3.73-3.38,1.22-3-2.12-1.26c2.28-2,4.16-5.14,6.48-5.41,3.34-.4,3.59-5.34,8.06-3.49l-2.56,3.4,1.76.63L1064.11,87l.79.28c-.37,1-.7,2-1.15,3-.2.44-1,1-.89,1.15,1.35,2.1-.52,3-1.76,4l1.61,2.15c.74,1,1.28,2.64,2.26,2.89,2.12.54,2.65,1.59,2.55,2.7,1.22.94,3,2.07,2.86,2.23-1.39,2.08,1.19,3.17,1.1,4.74l4.53-.65,1-1.62a11.14,11.14,0,0,1,.94,4c.16,1.46-.2,3.35.68,4.28,1.61,1.7,4.79,2.3,4.17,5.41,0,.16.29.5.51.55,1.24.26,2.81,1,3.69.59,4.5-2.1,8.9-4.45,11.7-8.44,2.21-3.14,1.45-4.81-2.38-6.22a12.57,12.57,0,0,0-9.27.42C1084.5,109.53,1082,110.6,1079.5,111.64Z" transform="translate(-923.55 662.69)"/><path class="cls-2" d="M1079.5,111.64c2.51-1,5-2.11,7.54-3.1a12.57,12.57,0,0,1,9.27-.42c3.83,1.41,4.59,3.09,2.38,6.22-2.81,4-7.21,6.34-11.7,8.44-.88.41-2.45-.33-3.69-.59-.22,0-.54-.39-.51-.55.63-3.12-2.55-3.71-4.17-5.41-.88-.93-.52-2.82-.68-4.28a11.14,11.14,0,0,0-.94-4l-1,1.62-4.53.65c.09-1.57-2.49-2.66-1.1-4.74.1-.15-1.64-1.29-2.86-2.23.09-1.11-.43-2.16-2.55-2.7-1-.25-1.52-1.89-2.26-2.89l-1.61-2.15c1.24-1,3.11-1.9,1.76-4-.11-.17.69-.72.89-1.15.44-1,.77-2,1.15-3l-.79-.28,2.35-2.54-1.76-.63,2.56-3.4c-4.47-1.86-4.72,3.09-8.06,3.49-2.31.28-4.2,3.39-6.48,5.41l2.12,1.26-1.22,3L1049.88,97l4,3.43-.6.88,2,.82-.71.23,1.92,6.57-.89,3.56,3.52.15c1.27,3.23,1.43,3.31,5.17,2.34a11.53,11.53,0,0,1,3.14,10.33c-.67-.81-1.17-1.16-1.26-1.58-.36-1.59-.13-3.43-1-4.74s-2.58-1.9-4.09-2.49c-.37-.14-1.38,1-2.43,1.86l-2-.41-.29-3.3-3.92,1.22c0-1.89,3.78-4.07-.22-5.93a.69.69,0,0,1-.06-.33c.2-1.16.43-2.31.64-3.47a24.36,24.36,0,0,0-3.77,1c-1.41.63-2.59,1.67-4,2.27-.51.22-1.42-.29-2.14-.47.41-.56.68-1.43,1.25-1.63a23,23,0,0,1,3.29-.45c1.58-.3,3.25-.64,1.51-2.56-.21-.23-.48-.7-.38-.82,1.61-1.84-.16-2.44-1.58-3.08.71-1.63,2.21-3.07-.29-4.48-.54-.3-.08-2-.08-3.61,1.19-1.1,2.82-2.56,4.39-4.07a1.5,1.5,0,0,0,.46-1.13c-.34-2.24-.77-4.47-1.23-7,6.8-.3,10.44-4.14,12.92-9.3a10.28,10.28,0,0,1,2.26-2.54c1.42-1.37,2.86-1.48,4.69-.35s4,1.55,5.67,2.72a61.09,61.09,0,0,1,6.5,5.71,17.4,17.4,0,0,1,2,2.7,2.19,2.19,0,0,1,.42.63c.85,3.44,1.63,3.82,4.52,6.63s6.5,3.8,10.54,4.51c1.84.32,3.51,2,5,3.32,2,1.81,3.82,3.86,5.67,5.76-.48,1.53-1.07,3.08-1.43,4.68-.56,2.53-2.66,3.38-5.39,2.52a26.22,26.22,0,0,0-7.09-1.2c-6.76-.16-6.77-.06-10.84-5.22C1087.87,106.9,1083.17,108.88,1079.5,111.64Z" transform="translate(-923.55 662.69)"/><path class="cls-2" d="M1071.36,144.47l1.43,2-1.58,1.74h-5.64l-.79-5.35c2.17-1.62,3.64-5.45,8.43-3.74l-1.17,5.32Z" transform="translate(-923.55 662.69)"/><path class="cls-2" d="M1111.53,48.81c-1.65,3.16-3.75-.2-5.71.26a20.33,20.33,0,0,1,0-3.88c.05-.29,1.41-.43,2.18-.6,1-.23,2-.42,2.92-.61l3.25,5.7-.19.18Z" transform="translate(-923.55 662.69)"/><path class="cls-2" d="M1039.73-8.18a40,40,0,0,1-1.18-6.23c-.21-1.73.57-3.87-.31-5.17-1.79-2.63-4.36-4.84-6.71-7.14a8.1,8.1,0,0,0-2.31-1c-.95,2.18-2.13,4-2.5,6s-2.2,3.7-.59,6a64.88,64.88,0,0,1,4.1,7.84c1.65.79,3.9,1.27,5,2.55,1.5,1.76,2.71,1,4,.38C1041-5.73,1040.08-6.94,1039.73-8.18Z" transform="translate(-923.55 662.69)"/><path class="cls-2" d="M1039.73-8.18c.35,1.23,1.27,2.45-.5,3.25-1.31.59-2.52,1.38-4-.38-1.09-1.27-3.34-1.75-5-2.55a64.88,64.88,0,0,0-4.1-7.84c-1.61-2.32.22-4.08.59-6s1.56-3.83,2.5-6a8.1,8.1,0,0,1,2.31,1c2.35,2.3,4.92,4.51,6.71,7.14.88,1.29.11,3.43.31,5.17A40,40,0,0,0,1039.73-8.18Z" transform="translate(-923.55 662.69)"/><path class="cls-2" d="M1080.52,30.71l-1-.45c-2.59-1.23-3.58-.68-3.62,1.95,0,.33-.54.63-.74,1-.35.61-1,1.3-.86,1.86a2.73,2.73,0,0,0,1.53,1.54,6.13,6.13,0,0,0,2.2.06l-.18.55c1,.91,1.84,2.24,3,2.58.62.17,1.85-1.41,2.72-2.13l4.26-1.58-2.57-3.21c-.14-1,0-2.77-.48-2.91-1.29-.39-2.84-.08-4.29,0C1080.55,30.18,1080.54,30.45,1080.52,30.71Z" transform="translate(-923.55 662.69)"/><path class="cls-2" d="M1080.52,30.71c0-.26,0-.53,0-.79,1.45,0,3-.35,4.29,0,.48.15.34,1.93.48,2.91l2.57,3.21-4.26,1.58c-.87.72-2.1,2.31-2.72,2.13-1.2-.34-2-1.66-3-2.58l.18-.55a6.13,6.13,0,0,1-2.2-.06,2.73,2.73,0,0,1-1.53-1.54c-.12-.55.51-1.25.86-1.86.21-.35.74-.66.74-1,0-2.63,1-3.18,3.62-1.95Z" transform="translate(-923.55 662.69)"/><path class="cls-2" d="M1063.78,25.88c4,2.14,3.41,5.55,4.15,8.5,4.63,1.87-.32,5.68,1.86,7.85l-1.57,2.51c1,.25,2.1.46,3.12.76a2.44,2.44,0,0,1,1.3.72c.88,1.39,1.62,2.84,2.42,4.26l-.73.85-8.06-2.62-4.84,2.51c.85,0,1.86.08,2.86.17,3.05.29,6.14.43,9.13,1a3.52,3.52,0,0,1,2.38,2.34c.21,3.79-1.61,7.06-3.43,9.69-2.13,0-3.61.1-5.06,0a9.48,9.48,0,0,1-2.76-.81c-2.68-1.14-5.22-2.68-8-3.42-1.94-.51-4.23,0-6.36.12l.09.89c.5,0,1,0,1.51-.14a11.63,11.63,0,0,1,11.07,3.52,2.75,2.75,0,0,1,.81,2.22c-.85,3-2,5.25-6.31,5.26h-3.11c0,.19,0,.38,0,.58h6.13c-1.6,4.25-7.31,7.34-11.52,6.49a12.21,12.21,0,0,0-4.65.46c-1.43.3-2.77,1.07-4.2,1.24-.45.05-1.25-1.11-1.55-1.83-.09-.21,1-1.21,1.53-1.17,3.81.31,3.8.36,4.42-3.2,2.7.16,2.44-2.11,3.58-3.32,2.36-2.51,1.75-4.11-.65-5.83,3.4-3,3.37-3.52.55-5.28-.17-1.65.17-3.19-.5-3.76-1-.87-2.79-1.07-4.26-1.57,2.79-3.5,2.72-4.07-.65-5.55,1.5-3.19,1.2-3.86-2.23-4.94.74-3.71.46-4.14-3.39-5,.88-1.92,0-3-2.06-3.35l2.4-11.25c6.56-2.26,6.63-2.37,7-9.21.18-3.37,1.38-6.25,4.88-8a8,8,0,0,0,1.55-1.16,8.64,8.64,0,0,1-.57-2.63c.49-2.79,1.13-5.57,1.74-8.35a6,6,0,0,1,.54-1.36c.53-1.06,1.1-2.1,1.41-2.69.81-1.11,2-2.05,1.93-2.86s-1.67-1.25-2.6-1.86a3.65,3.65,0,0,1-.47-.25c-.75-.69-1.51-2-2.21-2-1,0-1.85,1.09-2.77,1.71l-.16-.48-3.54,1,1.21,2.67-.17,3.43h5c.1.2.85,1,.69,1.51-1.24,4.09-1.62,8.83-4.29,12a20.89,20.89,0,0,0-4.95,12.22c-.22,2.36-2.18,3.56-5.13,3.08,1.83-3.16,1.35-6.95,4.06-10,1-1.08,3.09-3.37.42-5.52-.94-.76-1.05-2.42-1.37-3.7-.39-1.58-.61-3.2-.92-4.95l.92-.25c3.73-1,4.23-2.07,2.7-5.4-.46-1-1.42-2.08-1.27-3,1-6.35-2.16-12.48-1.09-18.83.62-3.69.82-7.43,1.21-11.22l6.71,1.65L1046.54-45c3.65.28,1.35-3.18,3.36-4.17-1.64-1.12-4.77.71-4.48-2.11.07-.68,2.74-1.15,4.21-1.72l1,.34-2.22-5.89c-.8-.76-1.61-1.19-1.74-1.74-.53-2.29-1.11-2.51-3.22-1-.48.34-1,.66-1.77,1.19-.34-3.53-3.46-2.88-5.2-2.51-1.47.31-2.47,2.4-3.68,3.7-.35.52-1.64.49-1.88.94-1.89,3.38-4.18,2.07-6.59.66-.24-.14-.72,0-1.09.05v-8.58q153.83,0,307.67,0a13.53,13.53,0,0,1,2.54.48c-.63.57-1.51,1-1.85,1.74a76.7,76.7,0,0,0-4.1,9.06c-2,6-3.75,12-5.62,18.11-2.49,0-2.72.3-3.14,2.84a5.55,5.55,0,0,1-1.61,3.28,20.5,20.5,0,0,1-22.77,2.42c-5-2.56-9.9-4.34-15.76.1-.34-2-.9-3.46-.72-4.79a5.05,5.05,0,0,0-2.32-5.32c-2.1,2.71-3.34,5.57-7.36,7.11-3.39,1.29-6.76,1.53-10.21,2,2.38,3.35,4.32,6.49,6.73,9.3a12.82,12.82,0,0,0,5,3.14,21.14,21.14,0,0,0,5.48.93c5.55.56,9.89,2.46,11.59,7.71a22.5,22.5,0,0,0,2.33,4.58c4.19,6.89,10.72,10.37,19.47,10.5,2.24,0,4.49,0,6.74,0a11,11,0,0,1-5.05,2,90.66,90.66,0,0,1-12.57-.28c-15.08-1.58-23.37,8.37-20.08,20.82a3.64,3.64,0,0,0,.63-.46c4.62-5.41,10.66-7,18-5.59a54.71,54.71,0,0,0,8.91,1.12c7.5.2,13.44-2.12,16.25-8.9.08-.19.37-.3.56-.46,1.07,1.74.44,2.88-1.12,4.14-5.08,4.1-8.73,9.22-9.71,15.23a30.88,30.88,0,0,1-5.2,12.69c-5.47,8.11-7.53,16.76-3.18,25.94a2.71,2.71,0,0,1,.21,1.68c-1.26,5.38-2.78,6.52-9,6.83-.84,0-1.69,0-2.53.08-5,.38-10,.61-14.28,3.22a20.82,20.82,0,0,0-3.11,2.43c-1.06,1-1.8,2.3-3,3a37.22,37.22,0,0,1-6.43,2.49,21.77,21.77,0,0,0-11.83,8.44,4.94,4.94,0,0,1-1.83,1.82c-5.15,2.19-10.17,5-15.61,6.23a279.86,279.86,0,0,1-30.81,5.52,131.42,131.42,0,0,1-25,.64c-7.67-.57-15.2-2.7-22.77-4.23a39.09,39.09,0,0,1-18-8.34,17.53,17.53,0,0,0-6-3.05c-2.95-.92-6.08-1.36-9.36-2,.18-.57.43-1.18.57-1.81a90.13,90.13,0,0,0,1.9-9.1c.44-3.86-2.61-6.43-5-9.2a6.17,6.17,0,0,1,3.44-9.92c1.54.73,3,1.9,3.6,1.62a15.9,15.9,0,0,0,5-3.63c.35-.39-1.09-2.08-1.91-3.52l-.64-2.78L1125.63,61a5.6,5.6,0,0,1-1-1.36c-.74-1.63-1.2-3.36-2-4.95-1-1.91-.75-3.39,1.23-4.59,1.67-1,1.59-2.24.75-3.71a16.6,16.6,0,0,1-1.86-4.15c-.14-.55,1.06-2,1.24-1.9,1.43.43,3.39-.94,4.45,1,.11.21,1.8-.09,2.65-.41s1.24-1,1.94-1.36c1.43-.8,1.75-1.71.45-2.79a8.79,8.79,0,0,0-1.59-.85l.58-.26-.76-2.58-3.46.91-3.78-.15.21,3.67c-2.12,1.34-4.18-.17-6.41-.82l-2.88,2.2,1.52,2.77c1.8.36,3.72.24,4.39,1a6.26,6.26,0,0,1,1.57,4.42,7.28,7.28,0,0,1-2.51,4.09c-.53.48-2.31,0-3.45-.28a14.66,14.66,0,0,1-2.71-1.28l-3.25-5.7c-.92.19-1.92.39-2.92.61-.77.17-2.13.31-2.18.6a20.33,20.33,0,0,0,0,3.88c2-.46,4.05,2.9,5.71-.26l2.46,1,4.18,3.14a18,18,0,0,1-2.47,1.89c-3.08,1.63,1.65,2.53.45,4-.08.09.53.71.91,1,.14.11.53,0,.8-.07l4.18-.39c-.33,1.45-1,2.5-.64,3.1,1.21,2.12-.09,3-1.73,3.91l-3.12-2-.75.3c3.47,3.21,2.61,6.36.2,9.35-1.24,1.53-.93,2.77.28,4s2.94,2.61,4.21,4c1.09,1.23,2.59,2.43.94,4.37a19.22,19.22,0,0,0-3.11,5.11c-.88,2.15-1.75,2.75-4.09,1.88a12,12,0,0,1-2.42-1.27c-3.16-2.11-6.39-4-10.4-4.66a21.77,21.77,0,0,1-3.7-1.17c-3.76-1.31-3.66-1.35-3.21-5s.91-7.3-.71-10.94c-.8.17-1.34.25-1.86.4-2.84.81-3.59.53-3.94-2.11a40.55,40.55,0,0,1-.05-5.74c2-1.1,3.57-1.87,5-2.8.3-.2.33-1.35.09-1.48-1.08-.61-.77-1.57-1.12-2.29-1.2-2.48-3.67,1.16-5.33-.53-.38.39-1,.75-1.08,1.19a36.7,36.7,0,0,0-.43,4c.23.53,4.13-.05,1.64,2.54l-2.86-1.08c0,.82.31,1.61.7,1.65,2.35.24,2.12,1.72,2.15,3.16a9.48,9.48,0,0,0,.33,2c.45,1.88,1.17,3.4,3.93,2.75.52-.12,1.78.41,1.8.71a42.88,42.88,0,0,1,.17,6.88c0,.51-1.22,1.25-2,1.33-.45.05-1.43-.9-1.52-1.48-.61-3.83-3.52-6-6.79-7.93-.84-.5-1.5-1.25-2.29-1.83a21.45,21.45,0,0,0-3.85-2.62c-1.53-.67-2.44-1.35-1.51-2.85,3.28-5.29,3.16-10.73,1.25-16.35a2.75,2.75,0,0,1,.69-2.64c3.08-2,3.16-2,.62-3.67-.38-1.36-.54-2.92-.87-3a15.42,15.42,0,0,0-4,.71,11.26,11.26,0,0,1-.7-3.11,10.8,10.8,0,0,1,.94-4.16,14,14,0,0,1,2.83-4.07,71,71,0,0,1,5.64-4.51c1.26.95,3,2.1,3.94-.78,0-.11.31-.15.47-.23,3.23-1.51,3.24-1.84.56-3.56l-.59-3c-.92.26-1.84.53-2.77.77a5.38,5.38,0,0,1-1.29.19c-1.17,0-2.34,0-3.51-.06l.38,3.29c-2.2.88-2,2.18.78,3.77a42.67,42.67,0,0,1-4.2,3c-1.3.72-2.65,1.5-4.06-.33s-.57-3.65.87-4.19c3.15-1.18,1.8-2.19.29-3.46l1.21-2.09c-2.23.16-4.33.24-6.4.52-.43.06-.93.85-1,1.37a24,24,0,0,0-.24,3.4l2.75.71c-1,3.8,4.37,6.54,2.32,11.21C1067.42,31.9,1069,26.79,1063.78,25.88Z" transform="translate(-923.55 662.69)"/><polygon class="cls-2" points="74.4 676.94 66.32 676.94 66.32 730.82 74.4 730.82 74.4 784.66 66.32 784.66 66.32 838.53 120.17 838.53 120.17 830.45 174.05 830.45 174.05 838.53 227.88 838.53 227.88 830.45 281.76 830.45 281.76 838.53 335.6 838.53 335.6 830.45 389.47 830.45 389.47 838.53 443.32 838.53 443.32 784.66 435.24 784.66 435.24 730.82 443.32 730.82 443.32 676.94 435.24 676.94 435.24 623.11 443.32 623.11 443.32 577.31 389.47 577.31 389.47 569.23 335.6 569.23 335.6 577.31 281.76 577.31 281.76 569.23 227.88 569.23 227.88 577.31 174.05 577.31 174.05 569.23 120.17 569.23 120.17 577.31 66.32 577.31 66.32 623.11 74.4 623.11 74.4 676.94"/><path class="cls-2" d="M1415.55-14.4c-.21-1.73.57-3.87-.31-5.17-1.79-2.63-4.36-4.84-6.71-7.14a8.1,8.1,0,0,0-2.31-1c-.95,2.18-2.13,4-2.5,6s-2.2,3.7-.59,6a64.88,64.88,0,0,1,4.1,7.84c1.65.79,3.9,1.27,5,2.55,1.5,1.76,2.71,1,4,.38,1.78-.8.85-2,.5-3.25A40,40,0,0,1,1415.55-14.4Z" transform="translate(-923.55 662.69)"/><path class="cls-2" d="M1415.55-14.4a40,40,0,0,0,1.18,6.23c.35,1.23,1.27,2.45-.5,3.25-1.31.59-2.52,1.38-4-.38-1.09-1.27-3.34-1.75-5-2.55a64.88,64.88,0,0,0-4.1-7.84c-1.61-2.32.22-4.08.59-6s1.56-3.83,2.5-6a8.1,8.1,0,0,1,2.31,1c2.35,2.3,4.92,4.51,6.71,7.14C1416.12-18.27,1415.34-16.14,1415.55-14.4Z" transform="translate(-923.55 662.69)"/><path class="cls-2" d="M1457.52,30.71l-1-.45c-2.59-1.23-3.58-.68-3.62,1.95,0,.33-.54.63-.74,1-.35.61-1,1.3-.86,1.86a2.73,2.73,0,0,0,1.53,1.54,6.13,6.13,0,0,0,2.2.06l-.18.55c1,.91,1.84,2.24,3,2.58.62.17,1.85-1.41,2.72-2.13l4.26-1.58-2.57-3.21c-.14-1,0-2.77-.48-2.91-1.29-.39-2.84-.08-4.29,0C1457.55,30.18,1457.54,30.45,1457.52,30.71Z" transform="translate(-923.55 662.69)"/><path class="cls-2" d="M1457.52,30.71c0-.26,0-.53,0-.79,1.45,0,3-.35,4.29,0,.48.15.34,1.93.48,2.91l2.57,3.21-4.26,1.58c-.87.72-2.1,2.31-2.72,2.13-1.2-.34-2-1.66-3-2.58l.18-.55a6.13,6.13,0,0,1-2.2-.06,2.73,2.73,0,0,1-1.53-1.54c-.12-.55.51-1.25.86-1.86.21-.35.74-.66.74-1,0-2.63,1-3.18,3.62-1.95Z" transform="translate(-923.55 662.69)"/><path class="cls-2" d="M1440.78,25.88c4,2.14,3.41,5.55,4.15,8.5,4.63,1.87-.32,5.68,1.86,7.85l-1.57,2.51c1,.25,2.1.46,3.12.76a2.44,2.44,0,0,1,1.3.72c.88,1.39,1.62,2.84,2.42,4.26l-.73.85-8.06-2.62-4.84,2.51c.85,0,1.86.08,2.86.17,3.05.29,6.14.43,9.13,1a3.52,3.52,0,0,1,2.38,2.34c.21,3.79-1.61,7.06-3.43,9.69-2.13,0-3.61.1-5.06,0a9.48,9.48,0,0,1-2.76-.81c-2.68-1.14-5.22-2.68-8-3.42-1.94-.51-4.23,0-6.36.12l.09.89c.5,0,1,0,1.51-.14a11.63,11.63,0,0,1,11.07,3.52,2.75,2.75,0,0,1,.81,2.22c-.85,3-2,5.25-6.31,5.26h-3.11c0,.19,0,.38,0,.58h6.13c-1.6,4.25-7.31,7.34-11.52,6.49a12.21,12.21,0,0,0-4.65.46c-1.43.3-2.77,1.07-4.2,1.24-.45.05-1.25-1.11-1.55-1.83-.09-.21,1-1.21,1.53-1.17,3.81.31,3.8.36,4.42-3.2,2.7.16,2.44-2.11,3.58-3.32,2.36-2.51,1.75-4.11-.65-5.83,3.4-3,3.37-3.52.55-5.28-.17-1.65.17-3.19-.5-3.76-1-.87-2.79-1.07-4.26-1.57,2.79-3.5,2.72-4.07-.65-5.55,1.5-3.19,1.2-3.86-2.23-4.94.74-3.71.46-4.14-3.39-5,.88-1.92,0-3-2.06-3.35l2.4-11.25c6.56-2.26,6.63-2.37,7-9.21.18-3.37,1.38-6.25,4.88-8a8,8,0,0,0,1.55-1.16,8.64,8.64,0,0,1-.57-2.63c.49-2.79,1.13-5.57,1.74-8.35a6,6,0,0,1,.54-1.36c.53-1.06,1.1-2.1,1.41-2.69.81-1.11,2-2.05,1.93-2.86s-1.67-1.25-2.6-1.86a3.65,3.65,0,0,1-.47-.25c-.75-.69-1.51-2-2.21-2-1,0-1.85,1.09-2.77,1.71l-.16-.48-3.54,1,1.21,2.67-.17,3.43h5c.1.2.85,1,.69,1.51-1.24,4.09-1.62,8.83-4.29,12a20.89,20.89,0,0,0-4.95,12.22c-.22,2.36-2.18,3.56-5.13,3.08,1.83-3.16,1.35-6.95,4.06-10,1-1.08,3.09-3.37.42-5.52-.94-.76-1.05-2.42-1.37-3.7-.39-1.58-.61-3.2-.92-4.95l.92-.25c3.73-1,4.23-2.07,2.7-5.4-.46-1-1.42-2.08-1.27-3,1-6.35-2.16-12.48-1.09-18.83.62-3.69.82-7.43,1.21-11.22l6.71,1.65L1423.54-45c3.65.28,1.35-3.18,3.36-4.17-1.64-1.12-4.77.71-4.48-2.11.07-.68,2.74-1.15,4.21-1.72l1,.34-2.22-5.89c-.8-.76-1.61-1.19-1.74-1.74-.53-2.29-1.11-2.51-3.22-1-.48.34-1,.66-1.77,1.19-.34-3.53-3.46-2.88-5.2-2.51-1.47.31-2.47,2.4-3.68,3.7-.35.52-1.64.5-1.88.94-1.89,3.38-4.18,2.07-6.59.66-.24-.14-.72,0-1.09.05v-8.58q153.83,0,307.67,0a13.53,13.53,0,0,1,2.54.48c-.63.57-1.51,1-1.85,1.74a76.73,76.73,0,0,0-4.1,9.06c-2,6-3.75,12-5.62,18.11-2.49,0-2.72.3-3.14,2.84a5.55,5.55,0,0,1-1.61,3.28,20.5,20.5,0,0,1-22.77,2.42c-5-2.56-9.9-4.34-15.76.1-.34-2-.9-3.46-.72-4.79a5.05,5.05,0,0,0-2.32-5.32c-2.1,2.71-3.34,5.57-7.36,7.11-3.39,1.29-6.76,1.53-10.21,2,2.38,3.35,4.32,6.49,6.73,9.3a12.82,12.82,0,0,0,5,3.14,21.14,21.14,0,0,0,5.48.93c5.55.56,9.89,2.46,11.59,7.71a22.5,22.5,0,0,0,2.33,4.58c4.19,6.89,10.72,10.37,19.47,10.5,2.24,0,4.49,0,6.74,0a11,11,0,0,1-5.05,2,90.64,90.64,0,0,1-12.57-.28c-15.08-1.58-23.37,8.37-20.08,20.82a3.64,3.64,0,0,0,.63-.46c4.62-5.41,10.66-7,18-5.59a54.72,54.72,0,0,0,8.91,1.12c7.5.2,13.44-2.12,16.25-8.9.08-.19.37-.3.56-.46,1.07,1.74.44,2.88-1.12,4.14-5.08,4.1-8.73,9.22-9.71,15.23a30.88,30.88,0,0,1-5.2,12.69c-5.47,8.11-7.53,16.76-3.18,25.94a2.71,2.71,0,0,1,.21,1.68c-1.26,5.38-2.78,6.52-9,6.83-.84,0-1.69,0-2.53.08-5,.38-10,.61-14.28,3.22a20.81,20.81,0,0,0-3.11,2.43c-1.06,1-1.8,2.3-3,3a37.23,37.23,0,0,1-6.43,2.49,21.77,21.77,0,0,0-11.83,8.44,4.94,4.94,0,0,1-1.83,1.82c-5.15,2.19-10.17,5-15.61,6.23a279.83,279.83,0,0,1-30.81,5.52,131.42,131.42,0,0,1-25,.64c-7.67-.57-15.2-2.7-22.77-4.23a39.09,39.09,0,0,1-18-8.34,17.53,17.53,0,0,0-6-3.05c-2.95-.92-6.08-1.36-9.36-2,.18-.57.43-1.18.57-1.81a90.11,90.11,0,0,0,1.9-9.1c.44-3.86-2.61-6.43-5-9.2a6.17,6.17,0,0,1,3.44-9.92c1.54.73,3,1.9,3.6,1.62a15.9,15.9,0,0,0,5-3.63c.35-.39-1.09-2.08-1.91-3.52l-.64-2.78L1502.63,61a5.6,5.6,0,0,1-1-1.36c-.74-1.63-1.2-3.36-2-4.95-1-1.91-.75-3.39,1.23-4.59,1.67-1,1.59-2.24.75-3.71a16.59,16.59,0,0,1-1.86-4.15c-.14-.55,1.06-2,1.24-1.9,1.43.43,3.39-.94,4.45,1,.11.21,1.8-.09,2.65-.41s1.24-1,1.94-1.36c1.43-.8,1.75-1.71.45-2.79a8.78,8.78,0,0,0-1.59-.85l.58-.26-.76-2.58-3.46.91-3.78-.15.21,3.67c-2.12,1.34-4.18-.17-6.41-.82l-2.88,2.2,1.52,2.77c1.8.36,3.72.24,4.39,1a6.26,6.26,0,0,1,1.57,4.42,7.28,7.28,0,0,1-2.51,4.09c-.53.48-2.31,0-3.45-.28a14.65,14.65,0,0,1-2.71-1.28l-3.25-5.7c-.92.19-1.92.39-2.92.61-.77.17-2.13.31-2.18.6a20.33,20.33,0,0,0,0,3.88c2-.46,4.05,2.9,5.71-.26l2.46,1,4.18,3.14a18,18,0,0,1-2.47,1.89c-3.08,1.63,1.65,2.53.45,4-.08.09.53.71.91,1,.14.11.53,0,.8-.07l4.18-.39c-.33,1.45-1,2.5-.64,3.1,1.21,2.12-.09,3-1.73,3.91l-3.12-2-.75.3c3.47,3.21,2.61,6.36.2,9.35-1.24,1.53-.93,2.77.28,4s2.94,2.61,4.21,4c1.09,1.23,2.59,2.43.94,4.37a19.22,19.22,0,0,0-3.11,5.11c-.88,2.15-1.75,2.75-4.09,1.88a12,12,0,0,1-2.42-1.27c-3.16-2.11-6.39-4-10.4-4.66a21.77,21.77,0,0,1-3.7-1.17c-3.76-1.31-3.66-1.35-3.21-5s.91-7.3-.71-10.94c-.8.17-1.34.25-1.86.4-2.84.81-3.59.53-3.94-2.11a40.53,40.53,0,0,1-.06-5.74c2-1.1,3.57-1.87,5-2.8.3-.2.33-1.35.09-1.48-1.08-.61-.77-1.57-1.12-2.29-1.2-2.48-3.67,1.16-5.33-.53-.38.39-1,.75-1.08,1.19a36.7,36.7,0,0,0-.43,4c.23.53,4.13-.05,1.64,2.54l-2.86-1.08c0,.82.31,1.61.7,1.65,2.35.24,2.12,1.72,2.15,3.16a9.48,9.48,0,0,0,.33,2c.45,1.88,1.17,3.4,3.93,2.75.52-.12,1.78.41,1.8.71a42.89,42.89,0,0,1,.17,6.88c0,.51-1.22,1.25-2,1.33-.45.05-1.43-.9-1.52-1.48-.61-3.83-3.52-6-6.79-7.93-.84-.5-1.5-1.25-2.29-1.83a21.44,21.44,0,0,0-3.85-2.62c-1.53-.67-2.44-1.35-1.51-2.85,3.28-5.29,3.16-10.73,1.25-16.35a2.75,2.75,0,0,1,.69-2.64c3.08-2,3.16-2,.62-3.67-.38-1.36-.54-2.92-.87-3a15.42,15.42,0,0,0-4,.71,11.27,11.27,0,0,1-.7-3.11,10.8,10.8,0,0,1,.94-4.16,14,14,0,0,1,2.83-4.07,71,71,0,0,1,5.64-4.51c1.26.95,3,2.1,3.94-.78,0-.11.31-.15.47-.23,3.23-1.51,3.24-1.84.56-3.56l-.59-3c-.92.26-1.84.53-2.77.77a5.38,5.38,0,0,1-1.29.18c-1.17,0-2.34,0-3.51-.06l.38,3.29c-2.2.88-2,2.18.78,3.77a42.66,42.66,0,0,1-4.2,3c-1.3.72-2.65,1.5-4.06-.33s-.57-3.65.87-4.19c3.15-1.18,1.8-2.19.29-3.46l1.21-2.09c-2.23.16-4.33.24-6.4.52-.43.06-.93.85-1,1.37a24,24,0,0,0-.23,3.4l2.75.71c-1,3.8,4.37,6.54,2.32,11.21C1444.41,31.91,1446,26.79,1440.78,25.88Z" transform="translate(-923.55 662.69)"/><path class="cls-2" d="M1488.53,48.81c-1.65,3.16-3.75-.2-5.71.26a20.33,20.33,0,0,1,0-3.88c.05-.29,1.41-.43,2.18-.6,1-.23,2-.42,2.92-.61l3.25,5.7-.19.18Z" transform="translate(-923.55 662.69)"/><path class="cls-2" d="M1456.5,111.64c3.67-2.75,8.37-4.74,6.14-11,4.07,5.16,4.08,5.06,10.84,5.22a26.22,26.22,0,0,1,7.09,1.2c2.73.86,4.83,0,5.39-2.52.35-1.59,1-3.14,1.43-4.68-1.85-1.91-3.63-4-5.67-5.76-1.48-1.31-3.15-3-5-3.32-4-.71-7.57-1.6-10.54-4.51s-3.67-3.2-4.52-6.63a2.19,2.19,0,0,0-.42-.63,17.41,17.41,0,0,0-2-2.7,61.1,61.1,0,0,0-6.5-5.71c-1.65-1.18-3.91-1.64-5.67-2.72s-3.27-1-4.69.35a10.28,10.28,0,0,0-2.26,2.54c-2.49,5.16-6.12,9-12.92,9.3.46,2.56.89,4.79,1.23,7a1.5,1.5,0,0,1-.46,1.13c-1.57,1.51-3.2,3-4.39,4.07,0,1.58-.46,3.31.08,3.61,2.5,1.4,1,2.85.29,4.48,1.42.64,3.19,1.25,1.58,3.08-.1.12.17.59.38.82,1.74,1.92.07,2.26-1.51,2.56a23,23,0,0,0-3.29.45c-.57.2-.85,1.06-1.25,1.63.73.18,1.63.69,2.14.47,1.42-.61,2.6-1.64,4-2.27a24.36,24.36,0,0,1,3.77-1c-.22,1.16-.44,2.31-.64,3.47a.69.69,0,0,0,.06.33c4,1.87.18,4,.22,5.93l3.92-1.22.29,3.3,2,.41c1.06-.83,2.06-2,2.43-1.86,1.51.59,3.33,1.32,4.09,2.49s.63,3.15,1,4.74c.09.42.59.77,1.26,1.58A11.52,11.52,0,0,0,1441.3,115c-3.73,1-3.9.89-5.16-2.34l-3.52-.15.89-3.56-1.92-6.57.71-.23-2-.82.6-.88-4-3.43,3.73-3.38,1.22-3-2.12-1.26c2.28-2,4.16-5.14,6.48-5.41,3.34-.4,3.59-5.34,8.06-3.49l-2.56,3.4,1.76.63L1441.11,87l.79.28c-.37,1-.7,2-1.15,3-.2.44-1,1-.89,1.15,1.35,2.1-.52,3-1.76,4l1.61,2.15c.74,1,1.28,2.64,2.26,2.89,2.12.54,2.65,1.59,2.55,2.7,1.22.94,3,2.07,2.86,2.23-1.39,2.08,1.19,3.17,1.1,4.74l4.53-.65,1-1.62a11.14,11.14,0,0,1,.94,4c.16,1.46-.2,3.35.68,4.28,1.61,1.7,4.79,2.3,4.17,5.41,0,.16.29.5.51.55,1.24.26,2.81,1,3.69.59,4.5-2.1,8.9-4.45,11.7-8.44,2.21-3.14,1.45-4.81-2.38-6.22a12.57,12.57,0,0,0-9.27.42C1461.5,109.53,1459,110.6,1456.5,111.64Z" transform="translate(-923.55 662.69)"/><path class="cls-2" d="M1456.5,111.64c2.51-1,5-2.11,7.54-3.1a12.57,12.57,0,0,1,9.27-.42c3.83,1.41,4.59,3.09,2.38,6.22-2.81,4-7.21,6.34-11.7,8.44-.88.41-2.45-.33-3.69-.59-.22,0-.54-.39-.51-.55.63-3.12-2.55-3.71-4.17-5.41-.88-.93-.52-2.82-.68-4.28a11.14,11.14,0,0,0-.94-4l-1,1.62-4.53.65c.09-1.57-2.49-2.66-1.1-4.74.1-.15-1.64-1.29-2.86-2.23.09-1.11-.43-2.16-2.55-2.7-1-.25-1.52-1.89-2.26-2.89l-1.61-2.15c1.24-1,3.11-1.9,1.76-4-.11-.17.69-.72.89-1.15.44-1,.77-2,1.15-3l-.79-.28,2.35-2.54-1.76-.63,2.56-3.4c-4.47-1.86-4.72,3.09-8.06,3.49-2.31.28-4.2,3.39-6.48,5.41l2.12,1.26-1.22,3L1426.88,97l4,3.43-.6.88,2,.82-.71.23,1.92,6.57-.89,3.56,3.52.15c1.27,3.23,1.43,3.31,5.17,2.34a11.53,11.53,0,0,1,3.14,10.33c-.67-.81-1.17-1.16-1.26-1.58-.36-1.59-.13-3.43-1-4.74s-2.58-1.9-4.09-2.49c-.37-.14-1.38,1-2.43,1.86l-2-.41-.29-3.3-3.92,1.22c0-1.89,3.78-4.07-.22-5.93a.69.69,0,0,1-.06-.33c.2-1.16.43-2.31.64-3.47a24.36,24.36,0,0,0-3.77,1c-1.41.63-2.59,1.67-4,2.27-.51.22-1.42-.29-2.14-.47.41-.56.68-1.43,1.25-1.63a23,23,0,0,1,3.29-.45c1.58-.3,3.25-.64,1.51-2.56-.21-.23-.48-.7-.38-.82,1.61-1.84-.16-2.44-1.58-3.08.71-1.63,2.21-3.07-.29-4.48-.54-.3-.08-2-.08-3.61,1.19-1.1,2.82-2.56,4.39-4.07a1.5,1.5,0,0,0,.46-1.13c-.34-2.24-.77-4.47-1.23-7,6.8-.3,10.44-4.14,12.92-9.3a10.28,10.28,0,0,1,2.26-2.54c1.42-1.37,2.86-1.48,4.69-.35s4,1.55,5.67,2.72a61.1,61.1,0,0,1,6.5,5.71,17.41,17.41,0,0,1,2,2.7,2.19,2.19,0,0,1,.42.63c.85,3.44,1.63,3.82,4.52,6.63s6.5,3.8,10.54,4.51c1.84.32,3.51,2,5,3.32,2,1.81,3.82,3.86,5.67,5.76-.48,1.53-1.07,3.08-1.43,4.68-.56,2.53-2.66,3.38-5.39,2.52a26.22,26.22,0,0,0-7.09-1.2c-6.76-.16-6.77-.06-10.84-5.22C1464.87,106.9,1460.17,108.88,1456.5,111.64Z" transform="translate(-923.55 662.69)"/><path class="cls-2" d="M1448.36,144.47l1.43,2-1.58,1.74h-5.64l-.79-5.35c2.17-1.62,3.64-5.45,8.43-3.74l-1.17,5.32Z" transform="translate(-923.55 662.69)"/><path class="cls-2" d="M1493.05,130.52l.47-.7c.87.5,1.79.94,2.59,1.51,2.92,2.07,5.18,1.9,7.38-.78a5.92,5.92,0,0,1,6.9-2c1.68.52,3.33,1.13,5,1.67,7.57,2.42,11,1.21,14.58-5.16.34-.59.73-1.16,1.22-1.93-3-1.26-5.8-2.29-8.42-3.57-1.06-.52-2.36-1.53-2.52-2.46-.42-2.33-1.9-2.22-3.65-1.71-2.43.71-4.27,0-6.22-1.32a19.84,19.84,0,0,0-6.29-3.16,20.72,20.72,0,0,0-15.29,2.74c-9.49,5.58-18.64,11.64-28.42,17.81,3.79.17,4.36,2.15,4.12,4.52,5,.21,5,.21,5.61,3.53,3.89.32,2,2.92,2.52,5a7.88,7.88,0,0,0,2.18-1.77c.7-.72,1.37-2,2.12-2a9.23,9.23,0,0,1,4.55.88c2.12,1.11,4.8,2.12,6.09.32,1.59-2.22,3.6-2.4,5.87-3.09,1.48-.45,3.31-2,3.48-3.28s-1.5-2.69-2.46-4A5.68,5.68,0,0,0,1493.05,130.52Z" transform="translate(-923.55 662.69)"/><path class="cls-2" d="M1493.05,130.52a5.68,5.68,0,0,1,1.4,1c1,1.3,2.63,2.77,2.46,4s-2,2.83-3.48,3.28c-2.27.69-4.28.86-5.87,3.09-1.29,1.8-4,.8-6.09-.32a9.23,9.23,0,0,0-4.55-.88c-.75,0-1.42,1.3-2.12,2a7.88,7.88,0,0,1-2.18,1.77c-.48-2.06,1.38-4.66-2.52-5-.62-3.32-.62-3.32-5.61-3.53.24-2.37-.33-4.34-4.12-4.52,9.78-6.17,18.93-12.23,28.42-17.81a20.72,20.72,0,0,1,15.29-2.74,19.84,19.84,0,0,1,6.29,3.16c1.95,1.32,3.79,2,6.22,1.32,1.74-.51,3.23-.62,3.65,1.71.17.93,1.46,1.94,2.52,2.46,2.61,1.29,5.39,2.31,8.42,3.57-.49.77-.88,1.34-1.22,1.93-3.6,6.37-7,7.58-14.58,5.16-1.68-.54-3.32-1.15-5-1.67a5.92,5.92,0,0,0-6.9,2c-2.21,2.68-4.46,2.85-7.38.78-.81-.57-1.73-1-2.59-1.51Z" transform="translate(-923.55 662.69)"/><path class="cls-2" d="M1548,148.24c5.23-4.32,11.58-5.94,18.5-6.09,1,0,2.57.46,2.8,1,.32.82-.28,2-.68,2.94a12.81,12.81,0,0,1-1.44,2.1Z" transform="translate(-923.55 662.69)"/><path class="cls-2" d="M1556.28,141.9c-5.78,1.42-11.15,4.17-16.7,6.35h-68.25c2-1.88,3.84-3.84,6-5.57a3.19,3.19,0,0,1,2.63.28c3.91,2.61,7.11,2.65,11,.05a6.33,6.33,0,0,1,2.69-1.2,13.52,13.52,0,0,0,11.49-7.85c1.15-2.31,2.88-3.13,5.35-1.89,9.53,4.83,18.19,3,26.46-2.55a16.49,16.49,0,0,1,3.57-2,30.15,30.15,0,0,1,4.89-1.06,37.23,37.23,0,0,0,5.21-.76,21.86,21.86,0,0,1,14.32-.24c6.68,2.36,12.86,1.45,18.84-1.66,2.29-1.2,4.31-.82,5.71.9s0,3.09-1.33,4.43c-2.87,2.95-5.3,6.32-8.56,8.85-2,1.56-5.17,2.31-7.93,2.66C1566.52,141.28,1561.14,140.7,1556.28,141.9Z" transform="translate(-923.55 662.69)"/><path class="cls-2" d="M1570.6,148.24c1.63-3.83,4.32-6.54,9.64-7-.21,2.42-.42,4.71-.62,7Z" transform="translate(-923.55 662.69)"/><path class="cls-2" d="M1688.5,144.08c1.4,1.46,3,2.78,4.49,4.16H1582.44c-1.87-5.28-.75-8.7,4.05-11.79a28.35,28.35,0,0,0,9.33-9.29c.9-1.52,2-2.81,4.2-2.92,15.49-.76,29.11-6.28,42.42-13,11.31-5.68,23.54-5.46,35.82-2.71,2.34.52,5.45,6,4.46,8.06C1677.67,127,1680.66,135.95,1688.5,144.08Z" transform="translate(-923.55 662.69)"/><path class="cls-2" d="M1691.69-15.84c1.69,1.53,2.66,3.69,3.95,5.57l.63.08,1.8-16.36-12.38,7.34C1687.71-18.12,1690.07-17.31,1691.69-15.84Z" transform="translate(-923.55 662.69)"/><path class="cls-2" d="M1691.69-15.84c-1.62-1.47-4-2.28-6-3.37l12.38-7.34-1.8,16.36-.63-.08C1694.35-12.15,1693.38-14.31,1691.69-15.84Z" transform="translate(-923.55 662.69)"/><polygon class="cls-2" points="812.24 623.11 820.32 623.11 820.32 577.32 820.32 577.31 766.47 577.31 766.47 569.23 712.59 569.23 712.59 577.31 658.76 577.31 658.76 569.23 604.88 569.23 604.88 577.31 551.04 577.31 551.04 569.23 497.17 569.23 497.17 577.31 443.32 577.32 443.32 623.11 451.4 623.11 451.4 676.95 443.32 676.95 443.32 730.83 451.4 730.83 451.4 784.66 443.32 784.66 443.32 838.53 497.17 838.53 497.17 830.45 551.04 830.45 551.04 838.53 604.88 838.53 604.88 830.45 658.76 830.45 658.76 838.53 712.6 838.53 712.6 830.45 766.47 830.45 766.47 838.53 820.32 838.53 820.32 784.66 812.24 784.66 812.24 730.83 820.32 730.83 820.32 676.95 812.24 676.95 812.24 623.11"/></svg>