<svg id="Õ_1" data-name="Õº≤„ 1" xmlns="http://www.w3.org/2000/svg" viewBox="0 0 865.07 865.07"><defs><style>.cls-1,.cls-2,.cls-3{fill:none;stroke-miterlimit:10;stroke-width:0.5px;}.cls-1{stroke:#363639;}.cls-2,.cls-3{stroke:#2e3192;}.cls-2{fill-rule:evenodd;}</style></defs><title>Meghan Krampf - T Rex Tea Light Holder by TorchIt [Converted]</title><rect class="cls-1" x="0.25" y="0.25" width="864.57" height="864.57"/><polygon class="cls-2" points="820.32 80.38 828.4 80.38 828.4 134.26 820.32 134.26 820.32 188.1 828.4 188.1 828.4 241.98 820.32 241.98 820.32 287.75 774.55 287.75 774.55 295.83 720.67 295.83 720.67 287.75 666.83 287.75 666.83 295.83 612.96 295.83 612.96 287.75 567.18 287.75 567.18 241.98 559.11 241.98 559.11 188.1 567.18 188.1 567.18 134.26 559.11 134.26 559.11 80.38 567.18 80.38 567.18 34.61 612.96 34.61 612.96 26.53 666.83 26.53 666.83 34.61 720.67 34.61 720.67 26.53 774.55 26.53 774.55 34.61 820.32 34.61 820.32 80.38"/><rect class="cls-3" x="36.67" y="34.61" width="253.15" height="253.13"/><polygon class="cls-2" points="551.04 316.09 604.88 316.09 604.88 308.02 658.76 308.02 658.76 316.09 712.59 316.09 712.59 308.02 766.47 308.02 766.47 316.09 820.32 316.09 820.32 361.88 812.24 361.88 812.24 415.72 820.32 415.72 820.32 469.6 812.24 469.6 812.24 523.44 820.32 523.44 820.32 577.32 766.47 577.32 766.47 569.23 712.6 569.23 712.6 577.32 658.76 577.32 658.76 569.23 604.88 569.23 604.88 577.32 551.04 577.32 551.04 569.23 497.17 569.23 497.17 577.32 443.32 577.32 443.32 523.44 451.4 523.44 451.4 469.6 443.32 469.6 443.32 415.72 451.4 415.72 451.4 361.88 443.32 361.88 443.32 316.09 497.17 316.09 497.17 308.02 551.04 308.02 551.04 316.09"/><polygon class="cls-2" points="505.26 34.61 551.03 34.61 551.03 80.38 559.11 80.38 559.11 134.26 551.03 134.26 551.03 188.1 559.11 188.1 559.11 241.98 551.03 241.98 551.03 287.75 505.26 287.75 505.26 295.83 451.38 295.83 451.38 287.75 397.54 287.75 397.54 295.83 343.66 295.83 343.66 287.75 297.89 287.75 297.89 241.98 289.82 241.98 289.82 188.1 297.89 188.1 297.89 134.26 289.82 134.26 289.82 80.38 297.89 80.38 297.89 34.61 343.66 34.61 343.66 26.54 397.54 26.54 397.54 34.61 451.38 34.61 451.38 26.54 505.26 26.54 505.26 34.61"/><polygon class="cls-2" points="174.05 316.09 174.05 308.02 120.17 308.02 120.17 316.09 66.32 316.09 66.32 361.88 74.4 361.88 74.4 415.72 66.32 415.72 66.32 469.6 74.4 469.6 74.4 523.44 66.32 523.44 66.32 577.31 120.17 577.31 120.17 569.23 174.05 569.23 174.05 577.31 227.88 577.31 227.88 569.23 281.76 569.23 281.76 577.31 335.6 577.31 335.6 569.23 389.47 569.23 389.47 577.31 443.32 577.31 443.32 523.44 435.24 523.44 435.24 469.6 443.32 469.6 443.32 415.72 435.24 415.72 435.24 361.88 443.32 361.88 443.32 316.09 389.47 316.09 389.47 308.02 335.6 308.02 335.6 316.09 281.76 316.09 281.76 308.02 227.88 308.02 227.88 316.09 174.05 316.09"/><polygon class="cls-2" points="174.05 577.31 174.05 569.23 120.17 569.23 120.17 577.31 66.32 577.31 66.32 623.11 74.4 623.11 74.4 676.94 66.32 676.94 66.32 730.82 74.4 730.82 74.4 784.66 66.32 784.66 66.32 838.53 120.17 838.53 120.17 830.45 174.05 830.45 174.05 838.53 227.88 838.53 227.88 830.45 281.76 830.45 281.76 838.53 335.6 838.53 335.6 830.45 389.47 830.45 389.47 838.53 443.32 838.53 443.32 784.66 435.24 784.66 435.24 730.82 443.32 730.82 443.32 676.94 435.24 676.94 435.24 623.11 443.32 623.11 443.32 577.31 389.47 577.31 389.47 569.23 335.6 569.23 335.6 577.31 281.76 577.31 281.76 569.23 227.88 569.23 227.88 577.31 174.05 577.31"/><polygon class="cls-2" points="551.04 577.31 551.04 569.23 497.17 569.23 497.17 577.31 443.32 577.32 443.32 623.11 451.4 623.11 451.4 676.95 443.32 676.95 443.32 730.83 451.4 730.83 451.4 784.66 443.32 784.66 443.32 838.53 497.17 838.53 497.17 830.45 551.04 830.45 551.04 838.53 604.88 838.53 604.88 830.45 658.76 830.45 658.76 838.53 712.6 838.53 712.6 830.45 766.47 830.45 766.47 838.53 820.32 838.53 820.32 784.66 812.24 784.66 812.24 730.83 820.32 730.83 820.32 676.95 812.24 676.95 812.24 623.11 820.32 623.11 820.32 577.32 820.32 577.31 766.47 577.31 766.47 569.23 712.59 569.23 712.59 577.31 658.76 577.31 658.76 569.23 604.88 569.23 604.88 577.31 551.04 577.31"/><circle class="cls-3" cx="163.25" cy="161.18" r="53.85"/><path class="cls-2" d="M1440.24-619q-23.55,20.86-48.27,40.44a89.73,89.73,0,0,0-24.72-9.29c-1-9.86-2-20.41-2.89-31.15Z" transform="translate(-923.55 662.69)"/><path class="cls-2" d="M1439.52-595.06l-23.67,35.66A91,91,0,0,0,1403.52-571l35.52-24.1-.11.18c.31-.24.64-.46,1-.7C1439.76-595.41,1439.65-595.22,1439.52-595.06Z" transform="translate(-923.55 662.69)"/><path class="cls-2" d="M1336.73-589.18l6-29.86h5l5.75,29.28c-1.77-.1-3.55-.17-5.35-.17A91.12,91.12,0,0,0,1336.73-589.18Z" transform="translate(-923.55 662.69)"/><path class="cls-2" d="M1247.65-619h78.93q-1.39,16.33-3.27,32.6a89.93,89.93,0,0,0-24.11,10.94C1282.94-588.85,1264.39-604.43,1247.65-619Z" transform="translate(-923.55 662.69)"/><path class="cls-2" d="M1252.45-590.82c-.15-.18-.28-.38-.4-.57,1.91,1.39,3.87,2.75,5.78,4.14l30,20.46a90.86,90.86,0,0,0-10.92,11.72Z" transform="translate(-923.55 662.69)"/><path class="cls-2" d="M1228.8-591.32q20.81,23.47,40.28,48a89.74,89.74,0,0,0-9.25,24.56c-9.81,1-20.33,1.93-31,2.85Z" transform="translate(-923.55 662.69)"/><path class="cls-2" d="M1233.44-493.54c-1.54-.26-3.1-.51-4.64-.75v-5.15l29.11-5.06c-.09,1.65-.14,3.3-.14,5a91.15,91.15,0,0,0,.7,11.08Z" transform="translate(-923.55 662.69)"/><path class="cls-2" d="M1228.8-399.17v-78.7q16.26,1.37,32.47,3.23a90,90,0,0,0,10.91,24C1258.9-434.35,1243.4-415.86,1228.8-399.17Z" transform="translate(-923.55 662.69)"/><path class="cls-2" d="M1274.56-428.87l6.68-9.91a90.93,90.93,0,0,0,11.46,10.59l-34.88,24.1.64-1c-.7.51-1.41,1-2.13,1.52Q1265.68-416,1274.56-428.87Z" transform="translate(-923.55 662.69)"/><path class="cls-2" d="M1261-384.39q21.17-18.6,43.23-36.13A89.72,89.72,0,0,0,1329-411.2c.85,8.52,1.71,17.55,2.52,26.8Z" transform="translate(-923.55 662.69)"/><path class="cls-2" d="M1359-409.81l-4.55,25.42h-6.29l-4.93-24.89c1.64.09,3.29.14,5,.14A91.07,91.07,0,0,0,1359-409.81Z" transform="translate(-923.55 662.69)"/><circle class="cls-3" cx="424.6" cy="163.15" r="84.44"/><path class="cls-2" d="M1443.55-384.39h-73.44q1.26-14.14,2.87-28.23a89.91,89.91,0,0,0,23.95-10.83C1411.61-411.46,1428.15-397.69,1443.55-384.39Z" transform="translate(-923.55 662.69)"/><path class="cls-2" d="M1437.45-417.13c2.25,3.12,4.47,6.27,6.73,9.37l-.94-.66.44.64-35.09-24.55a90.94,90.94,0,0,0,10.91-11.74Z" transform="translate(-923.55 662.69)"/><path class="cls-2" d="M1467.49-407.53q-20.83-23.48-40.32-48.11a89.74,89.74,0,0,0,9.32-24.72c9.81-1,20.31-2,31-2.86Z" transform="translate(-923.55 662.69)"/><path class="cls-2" d="M1437.87-510.47l29.63,5.64v5l-29.1,5.42c.09-1.7.15-3.41.15-5.13A91.11,91.11,0,0,0,1437.87-510.47Z" transform="translate(-923.55 662.69)"/><path class="cls-2" d="M1467.49-599.9v78.81q-16.22-1.38-32.42-3.24a89.93,89.93,0,0,0-11-24.19C1437.39-564.74,1452.89-583.22,1467.49-599.9Z" transform="translate(-923.55 662.69)"/><path class="cls-2" d="M1491-268.48c-2-1.83-4-1.78-5.86-.29a22.28,22.28,0,0,0-2.57,3.13,7.86,7.86,0,0,1-1.61,1.56c-.85.55-1.84.9-2.72,1.4a12.53,12.53,0,0,1-2.45,1.49c-.59.17-1.38-.35-2.09-.57.28-.76.32-1.87.87-2.23,1.81-1.19,4.5-1.39,4.54-4.37,0-.07.3-.1.37-.21a7.43,7.43,0,0,0,1.18-2,11,11,0,0,0,0-2.61h2.49l-1.25-2.23,2.86-2.64c-.22-.72-.86-1.63-.62-2.21,1.35-3.36-1.06-5.29-2.85-7.26-3.33-3.67-6.15-4.19-10.36-1.58-3.34,2.07-6.28,4.76-9.39,7.2-3.35,2.63-6.6,5.4-10.06,7.87-2.09,1.49-3.35,3.16-3.24,5.77a3.28,3.28,0,0,1-.49,2.22c-2.94,3-3.87,6.9-5.51,10.54-2.29,5.08-2.48,10.24-2.13,15.54a13.23,13.23,0,0,0,6.15,10.7c6.44,4.19,13,7.92,20.93,9.1a75.82,75.82,0,0,1,27.41,9.56c11.94,7,24.7,12,37.56,17a24.18,24.18,0,0,1,7.48,4.71,157.62,157.62,0,0,1,12,12.29c4.94,5.66,6.16,12.59,5.54,19.79-.53,6.17-3.9,11.05-8.06,15.55a13,13,0,0,1-12,4.47c-3.69-.51-7.37-1.14-11-1.79-8.92-1.57-17.44-1-25.3,4.07-2.72,1.74-5.61,3.23-8.48,4.73-10.13,5.3-19.54,3.84-28.38-3a13.19,13.19,0,0,0-2.84-1.09,11.2,11.2,0,0,0,1.13,1.89c6.74,6.3,14.56,10.09,24,8.71a74.17,74.17,0,0,0,13.55-3.75,29.9,29.9,0,0,1,22.51.6,165.66,165.66,0,0,0,17.79,6.49,24,24,0,0,0,10,.91c12.47-1.85,22.7-8,30.82-17.4,4.84-5.61,9.44-11.44,13.92-17.35a116.08,116.08,0,0,0,8-12c2.56-4.43,3.22-4.55,6.84-.92a29.7,29.7,0,0,0,6.84,5.22c3.69,2,7.74,3.31,11.51,5.15a29.64,29.64,0,0,0,14.09,3.14c2.68-.08,5.36.07,8,.16,3.66.12,7.14.41,10.31,2.85,2.42,1.87,5.62,1.43,8.44,1a23.4,23.4,0,0,0,0-3.36c-.2-1.29-.3-2.79-1-3.76-1.61-2.11-1.19-3.7.37-5.57a9.58,9.58,0,0,0,1.61-3.6,38.16,38.16,0,0,0,.68-4.54l-2.87-.88c-.28-3.46,3.81-7.5-1.63-10.08l1.73-2.47-.46-.74c-1.35.64-2.92,1-4,2-2.36,2-3.32,4.81-3.64,7.89-.39,3.74-4,6.57-8.06,6.42l.89-1.5-.34-.56c-3,1.21-5.93,2.42-8.9,3.61-2,.81-4.08,1.36-5.84-.53-5-5.38-9.63-11-12.22-18.06a12.6,12.6,0,0,0-3.61-5c-2.13-1.81-4.79-3-7.05-4.68-1.16-.86-2.63-2.14-2.79-3.37-.82-6.62-3.82-12.38-6.86-18.13-3.53-6.69-6.21-13.57-6-21.28a6.5,6.5,0,0,0-.2-1.43c-1.45-7.38-2.91-14.75-4.4-22.27a.67.67,0,0,1,.34-.22,11.64,11.64,0,0,1,1.66-.37c7.28-1,14.51-1.68,21.53,1.54,2.35,1.08,5,1.39,7-.8a5.61,5.61,0,0,1,4.8-1.69,29.8,29.8,0,0,0,5.28-.78c-5.27-7-5.68-11-1.65-15.36,5.23-5.6,4.75-12.54,2.83-18.83-1.42-4.67-3.14-9.15-3.52-14.07-.1-1.25-.71-3.17-1.61-3.53-2.91-1.17-3.25-3.23-2.78-6-2.44.85-2.45,2.85-2.8,4.54-.31,1.48-.17,3.05-.49,4.52-.16.75-.84,1.86-1.4,1.93s-1.63-.66-2.07-1.31a38.41,38.41,0,0,1-2.23-4.47c-.38,1.4-.92,2.29-.77,3,.66,3.28,1.46,6.53,2.36,9.75.38,1.37,1.29,2.61,1.66,4,.15.57-.5,1.34-.78,2a7.56,7.56,0,0,1-1.72-1.44,7.06,7.06,0,0,1-.5-2.23,3.17,3.17,0,0,0-1.79,4.21,27.88,27.88,0,0,0,2.79,5.56c2.94,4.57,3,4.53-.26,9l-.29.39c-3.79,5-3.79,5-9.83,3-8.83-3-17.59-6.18-27-7.26a8,8,0,0,0-6.72,1.93,75.18,75.18,0,0,0-19.9,26.71c-.86,2-2,2.63-4.18,2.61-10.55-.11-21.14-.46-31.49,2.2-.21.05-.46-.05-.12,0-.3-2.48,0-5-1-6.94-1.93-3.84-1.52-7.07,1.07-10.26,1.22-1.5,2.53-2.93,3.73-4.45a30.81,30.81,0,0,0,1.72-2.78l-6.12.39-.7-3.19-.92-.19a79.33,79.33,0,0,1-2.71,7.49,17,17,0,0,0-.91,12.38c1.12,4-1.72,7.88-6,8.94-1.64.41-3.19,1.14-4.83,1.57-2.72.71-5.45,1.41-8.21,1.9-2.47.44-5,.59-7.49.89-1.94.23-3.87.48-5.81.72l-.27-.73c3.12-2.24,6.27-4.46,9.37-6.73s5.64-4.47,6.85-8.17c1.57-4.78,1-6.83-3.57-8.91-1.12-.51-2.68-.08-4-.08Z" transform="translate(-923.55 662.69)"/><path class="cls-2" d="M1491-7.27c-2-1.83-4-1.78-5.86-.29a22.28,22.28,0,0,0-2.57,3.13A7.86,7.86,0,0,1,1481-2.86c-.85.55-1.84.9-2.72,1.4A12.53,12.53,0,0,1,1475.83,0c-.59.17-1.38-.35-2.09-.57.28-.76.32-1.87.87-2.23,1.81-1.19,4.5-1.39,4.54-4.37,0-.07.3-.1.37-.21a7.43,7.43,0,0,0,1.18-2,11,11,0,0,0,0-2.61h2.49L1482-14.17l2.86-2.63c-.22-.72-.86-1.63-.62-2.21,1.35-3.36-1.06-5.29-2.85-7.26-3.33-3.67-6.15-4.19-10.36-1.58-3.34,2.07-6.28,4.76-9.39,7.2-3.35,2.63-6.6,5.4-10.06,7.87-2.09,1.49-3.35,3.16-3.24,5.77a3.28,3.28,0,0,1-.49,2.22c-2.94,3-3.87,6.9-5.51,10.54-2.29,5.08-2.48,10.24-2.13,15.54a13.23,13.23,0,0,0,6.15,10.7c6.44,4.19,13,7.92,20.93,9.1a75.82,75.82,0,0,1,27.41,9.56c11.94,7,24.7,12,37.56,17a24.18,24.18,0,0,1,7.48,4.71,157.62,157.62,0,0,1,12,12.29c4.94,5.66,6.16,12.59,5.54,19.79-.53,6.17-3.9,11.05-8.06,15.55a13,13,0,0,1-12,4.47c-3.69-.51-7.37-1.14-11-1.79-8.92-1.57-17.44-1-25.3,4.07-2.72,1.74-5.61,3.23-8.48,4.73-10.13,5.3-19.54,3.84-28.38-3a13.19,13.19,0,0,0-2.84-1.09,11.2,11.2,0,0,0,1.13,1.89c6.74,6.3,14.56,10.09,24,8.71a74.17,74.17,0,0,0,13.55-3.75,29.9,29.9,0,0,1,22.51.6,165.64,165.64,0,0,0,17.79,6.49,24,24,0,0,0,10,.91c12.47-1.85,22.7-8,30.82-17.4,4.84-5.61,9.44-11.44,13.92-17.35a116.08,116.08,0,0,0,8-12c2.56-4.43,3.22-4.55,6.84-.92a29.71,29.71,0,0,0,6.84,5.22c3.69,2,7.74,3.31,11.51,5.15a29.64,29.64,0,0,0,14.09,3.14c2.68-.08,5.36.07,8,.16,3.66.12,7.14.41,10.31,2.85,2.42,1.87,5.62,1.43,8.44,1a23.4,23.4,0,0,0,0-3.36c-.2-1.29-.3-2.79-1-3.76-1.61-2.11-1.19-3.7.37-5.57a9.58,9.58,0,0,0,1.61-3.6,38.16,38.16,0,0,0,.68-4.54l-2.87-.88c-.28-3.46,3.81-7.5-1.63-10.08l1.73-2.47-.46-.74c-1.35.64-2.92,1-4,2-2.36,2-3.32,4.81-3.64,7.89-.39,3.74-4,6.57-8.06,6.42l.89-1.5-.34-.56c-3,1.21-5.93,2.42-8.9,3.61-2,.81-4.08,1.36-5.84-.53-5-5.38-9.63-11-12.22-18.06a12.6,12.6,0,0,0-3.61-5c-2.13-1.81-4.79-3-7.05-4.68-1.16-.86-2.63-2.14-2.79-3.37C1611,56.6,1608,50.83,1605,45.08c-3.53-6.69-6.21-13.57-6-21.28a6.5,6.5,0,0,0-.2-1.43c-1.45-7.38-2.91-14.75-4.4-22.27a.67.67,0,0,1,.34-.22,11.66,11.66,0,0,1,1.66-.37c7.28-1,14.51-1.68,21.53,1.54,2.35,1.08,5,1.39,7-.8a5.61,5.61,0,0,1,4.8-1.69,29.79,29.79,0,0,0,5.28-.78c-5.27-7-5.68-11-1.65-15.36,5.23-5.6,4.75-12.54,2.83-18.83-1.42-4.67-3.14-9.15-3.52-14.07-.1-1.25-.71-3.17-1.61-3.53-2.91-1.17-3.25-3.23-2.78-6-2.44.85-2.45,2.85-2.8,4.54-.31,1.48-.17,3.05-.49,4.52-.16.75-.84,1.86-1.4,1.93s-1.63-.66-2.07-1.31a38.41,38.41,0,0,1-2.23-4.47c-.38,1.4-.92,2.29-.77,3,.66,3.28,1.46,6.53,2.36,9.75.38,1.37,1.29,2.61,1.66,4,.15.57-.5,1.34-.78,2a7.57,7.57,0,0,1-1.72-1.44,7.06,7.06,0,0,1-.5-2.23,3.17,3.17,0,0,0-1.79,4.21,27.88,27.88,0,0,0,2.79,5.56c2.94,4.57,3,4.53-.26,9l-.29.39c-3.79,5-3.79,5-9.83,3-8.83-3-17.59-6.18-27-7.26a8,8,0,0,0-6.72,1.93,75.18,75.18,0,0,0-19.9,26.71c-.86,2-2,2.63-4.18,2.61-10.55-.11-21.14-.46-31.49,2.2-.21.05-.46-.05-.12,0-.3-2.48,0-5-1-6.94-1.93-3.84-1.52-7.07,1.07-10.26,1.22-1.5,2.53-2.93,3.73-4.45a30.8,30.8,0,0,0,1.72-2.78l-6.12.39-.7-3.19-.92-.19a79.31,79.31,0,0,1-2.71,7.49A17,17,0,0,0,1515,1.14c1.12,4-1.72,7.88-6,8.94-1.64.41-3.19,1.14-4.83,1.57-2.72.71-5.45,1.41-8.21,1.9-2.47.44-5,.59-7.49.89-1.94.23-3.87.48-5.81.72l-.27-.73c3.12-2.24,6.27-4.46,9.37-6.73s5.64-4.47,6.85-8.17c1.57-4.78,1-6.83-3.57-8.91-1.12-.51-2.68-.08-4-.08Z" transform="translate(-923.55 662.69)"/><path class="cls-2" d="M1114.05-7.27c-2-1.83-4-1.78-5.86-.29a22.28,22.28,0,0,0-2.57,3.13A7.86,7.86,0,0,1,1104-2.86c-.85.55-1.84.9-2.72,1.4A12.53,12.53,0,0,1,1098.84,0c-.59.17-1.38-.35-2.09-.57.28-.76.32-1.87.87-2.23,1.81-1.19,4.5-1.39,4.54-4.37,0-.07.3-.1.37-.21a7.43,7.43,0,0,0,1.18-2,11,11,0,0,0,0-2.61h2.49L1105-14.17l2.86-2.63c-.22-.72-.86-1.63-.62-2.21,1.35-3.36-1.06-5.29-2.85-7.26-3.33-3.67-6.15-4.19-10.36-1.58-3.34,2.07-6.28,4.76-9.39,7.2-3.35,2.63-6.6,5.4-10.06,7.87-2.09,1.49-3.35,3.16-3.24,5.77a3.28,3.28,0,0,1-.49,2.22c-2.94,3-3.87,6.9-5.51,10.54-2.29,5.08-2.48,10.24-2.13,15.54a13.23,13.23,0,0,0,6.15,10.7c6.44,4.19,13,7.92,20.93,9.1a75.82,75.82,0,0,1,27.41,9.56c11.94,7,24.7,12,37.56,17a24.18,24.18,0,0,1,7.48,4.71,157.62,157.62,0,0,1,12,12.29c4.94,5.66,6.16,12.59,5.54,19.79-.53,6.17-3.9,11.05-8.06,15.55a13,13,0,0,1-12,4.47c-3.69-.51-7.37-1.14-11-1.79-8.92-1.57-17.44-1-25.3,4.07-2.72,1.74-5.61,3.23-8.48,4.73-10.13,5.3-19.54,3.84-28.38-3a13.19,13.19,0,0,0-2.84-1.09,11.19,11.19,0,0,0,1.13,1.89c6.74,6.3,14.56,10.09,24,8.71a74.16,74.16,0,0,0,13.55-3.75,29.9,29.9,0,0,1,22.51.6,165.64,165.64,0,0,0,17.79,6.49,24,24,0,0,0,10,.91c12.47-1.85,22.7-8,30.82-17.4,4.84-5.61,9.44-11.44,13.92-17.35a116.07,116.07,0,0,0,8-12c2.56-4.43,3.22-4.55,6.84-.92a29.71,29.71,0,0,0,6.84,5.22c3.69,2,7.74,3.31,11.51,5.15a29.64,29.64,0,0,0,14.09,3.14c2.68-.08,5.36.07,8,.16,3.66.12,7.14.41,10.31,2.85,2.42,1.87,5.62,1.43,8.44,1a23.4,23.4,0,0,0,0-3.36c-.2-1.29-.3-2.79-1-3.76-1.61-2.11-1.19-3.7.37-5.57a9.58,9.58,0,0,0,1.61-3.6,38.18,38.18,0,0,0,.68-4.54l-2.87-.88c-.28-3.46,3.81-7.5-1.63-10.08l1.73-2.47-.46-.74c-1.35.64-2.92,1-4,2-2.36,2-3.32,4.81-3.64,7.89-.39,3.74-4,6.57-8.06,6.42l.88-1.5-.34-.56c-3,1.21-5.93,2.42-8.9,3.61-2,.81-4.08,1.36-5.84-.53-5-5.38-9.63-11-12.22-18.06a12.6,12.6,0,0,0-3.61-5c-2.13-1.81-4.79-3-7.05-4.68-1.16-.86-2.63-2.14-2.79-3.37-.82-6.62-3.82-12.38-6.86-18.13-3.53-6.69-6.21-13.57-6-21.28a6.5,6.5,0,0,0-.2-1.43c-1.45-7.38-2.91-14.75-4.4-22.27a.67.67,0,0,1,.34-.22,11.65,11.65,0,0,1,1.66-.37c7.28-1,14.51-1.68,21.53,1.54,2.35,1.08,5,1.39,7-.8a5.61,5.61,0,0,1,4.8-1.69,29.79,29.79,0,0,0,5.28-.78c-5.27-7-5.68-11-1.65-15.36,5.23-5.6,4.75-12.54,2.83-18.83-1.42-4.67-3.14-9.15-3.52-14.07-.1-1.25-.71-3.17-1.61-3.53-2.91-1.17-3.25-3.23-2.78-6-2.44.85-2.45,2.85-2.8,4.54-.31,1.48-.17,3.05-.49,4.52-.16.75-.84,1.86-1.4,1.93s-1.63-.66-2.07-1.31a38.41,38.41,0,0,1-2.23-4.47c-.38,1.4-.92,2.29-.77,3,.66,3.28,1.46,6.53,2.36,9.75.38,1.37,1.29,2.61,1.66,4,.15.57-.5,1.34-.78,2a7.56,7.56,0,0,1-1.72-1.44,7.06,7.06,0,0,1-.5-2.23,3.17,3.17,0,0,0-1.79,4.21,27.88,27.88,0,0,0,2.79,5.56c2.94,4.57,3,4.53-.26,9l-.29.39c-3.79,5-3.79,5-9.83,3-8.83-3-17.59-6.18-27-7.26a8,8,0,0,0-6.72,1.93,75.18,75.18,0,0,0-19.9,26.71c-.86,2-2,2.63-4.18,2.61-10.55-.11-21.14-.46-31.49,2.2-.21.05-.46-.05-.12,0-.3-2.48,0-5-1-6.94-1.93-3.84-1.52-7.07,1.07-10.26,1.22-1.5,2.53-2.93,3.73-4.45a30.8,30.8,0,0,0,1.72-2.78l-6.12.39-.7-3.19-.92-.19a79.31,79.31,0,0,1-2.71,7.49A17,17,0,0,0,1138,1.13c1.12,4-1.72,7.88-6,8.94-1.64.41-3.19,1.14-4.83,1.57-2.72.71-5.45,1.41-8.21,1.9-2.47.44-5,.59-7.49.89-1.94.23-3.87.48-5.81.72l-.27-.73c3.12-2.24,6.27-4.46,9.37-6.73s5.64-4.47,6.85-8.17c1.57-4.78,1-6.83-3.57-8.91-1.12-.51-2.68-.08-4-.08Z" transform="translate(-923.55 662.69)"/><path class="cls-2" d="M1114.05-268.49c-2-1.83-4-1.78-5.86-.29a22.28,22.28,0,0,0-2.57,3.13,7.86,7.86,0,0,1-1.61,1.56c-.85.55-1.84.9-2.72,1.4a12.53,12.53,0,0,1-2.45,1.49c-.59.17-1.38-.35-2.09-.57.28-.76.32-1.87.87-2.23,1.81-1.19,4.5-1.39,4.54-4.37,0-.07.3-.1.37-.21a7.43,7.43,0,0,0,1.18-2,11,11,0,0,0,0-2.61h2.49l-1.25-2.23,2.86-2.63c-.22-.72-.86-1.63-.62-2.21,1.35-3.36-1.06-5.29-2.85-7.26-3.33-3.67-6.15-4.19-10.36-1.58-3.34,2.07-6.28,4.76-9.39,7.2-3.35,2.63-6.6,5.4-10.06,7.87-2.09,1.49-3.35,3.16-3.24,5.77a3.28,3.28,0,0,1-.49,2.22c-2.94,3-3.87,6.9-5.51,10.54-2.29,5.08-2.48,10.24-2.13,15.54a13.23,13.23,0,0,0,6.15,10.7c6.44,4.19,13,7.92,20.93,9.1a75.82,75.82,0,0,1,27.41,9.56c11.94,7,24.7,12,37.56,17a24.18,24.18,0,0,1,7.48,4.71,157.58,157.58,0,0,1,12,12.29c4.94,5.66,6.16,12.59,5.54,19.79-.53,6.17-3.9,11.05-8.06,15.55a13,13,0,0,1-12,4.47c-3.69-.51-7.37-1.14-11-1.79-8.92-1.57-17.44-1-25.3,4.07-2.72,1.74-5.61,3.23-8.48,4.73-10.13,5.3-19.54,3.84-28.38-3a13.19,13.19,0,0,0-2.84-1.09,11.19,11.19,0,0,0,1.13,1.89c6.74,6.3,14.56,10.09,24,8.71a74.17,74.17,0,0,0,13.55-3.75,29.9,29.9,0,0,1,22.51.6,165.66,165.66,0,0,0,17.79,6.49,24,24,0,0,0,10,.91c12.47-1.85,22.7-8,30.82-17.4,4.84-5.61,9.44-11.44,13.92-17.35a116.06,116.06,0,0,0,8-12c2.56-4.43,3.22-4.55,6.84-.92a29.7,29.7,0,0,0,6.84,5.22c3.69,2,7.74,3.31,11.51,5.15a29.64,29.64,0,0,0,14.09,3.14c2.68-.08,5.36.07,8,.16,3.66.12,7.14.41,10.31,2.85,2.42,1.87,5.62,1.43,8.44,1a23.4,23.4,0,0,0,0-3.36c-.2-1.29-.3-2.79-1-3.76-1.61-2.11-1.19-3.7.37-5.57a9.58,9.58,0,0,0,1.61-3.6,38.16,38.16,0,0,0,.68-4.54l-2.87-.88c-.28-3.46,3.81-7.5-1.63-10.08l1.73-2.47-.46-.74c-1.35.64-2.92,1-4,2-2.36,2-3.32,4.81-3.64,7.89-.39,3.74-4,6.57-8.06,6.42l.89-1.5-.34-.56c-3,1.21-5.93,2.42-8.9,3.61-2,.81-4.08,1.36-5.84-.53-5-5.38-9.63-11-12.22-18.06a12.6,12.6,0,0,0-3.61-5c-2.13-1.81-4.79-3-7.05-4.68-1.16-.86-2.63-2.14-2.79-3.37-.82-6.62-3.82-12.38-6.86-18.13-3.53-6.69-6.21-13.57-6-21.28a6.49,6.49,0,0,0-.2-1.43c-1.45-7.38-2.91-14.75-4.4-22.27a.67.67,0,0,1,.34-.22,11.64,11.64,0,0,1,1.66-.37c7.28-1,14.51-1.68,21.53,1.54,2.35,1.08,5,1.39,7-.8a5.61,5.61,0,0,1,4.8-1.69,29.8,29.8,0,0,0,5.28-.78c-5.27-7-5.68-11-1.65-15.36,5.23-5.6,4.75-12.54,2.83-18.83-1.42-4.67-3.14-9.15-3.52-14.07-.1-1.25-.71-3.17-1.61-3.53-2.91-1.17-3.25-3.23-2.78-6-2.44.85-2.45,2.85-2.8,4.54-.31,1.48-.17,3.05-.49,4.52-.16.75-.84,1.86-1.4,1.93s-1.63-.66-2.07-1.31a38.41,38.41,0,0,1-2.23-4.47c-.38,1.4-.92,2.29-.77,3,.66,3.28,1.46,6.53,2.36,9.75.38,1.37,1.29,2.61,1.66,4,.15.57-.5,1.34-.78,2a7.57,7.57,0,0,1-1.72-1.44,7.06,7.06,0,0,1-.5-2.23,3.17,3.17,0,0,0-1.79,4.21,27.88,27.88,0,0,0,2.79,5.56c2.94,4.57,3,4.53-.26,9l-.29.39c-3.79,5-3.79,5-9.83,3-8.83-3-17.59-6.18-27-7.26a8,8,0,0,0-6.72,1.93,75.18,75.18,0,0,0-19.9,26.71c-.86,2-2,2.63-4.18,2.61-10.55-.11-21.14-.46-31.49,2.2-.21.05-.46-.05-.12,0-.3-2.48,0-5-1-6.94-1.93-3.84-1.52-7.07,1.07-10.26,1.22-1.5,2.53-2.93,3.73-4.45a30.81,30.81,0,0,0,1.72-2.78l-6.12.39-.7-3.19-.92-.19a79.28,79.28,0,0,1-2.71,7.49,17,17,0,0,0-.91,12.38c1.12,4-1.72,7.88-6,8.94-1.64.41-3.19,1.14-4.83,1.57-2.72.71-5.45,1.41-8.21,1.9-2.47.44-5,.59-7.49.89-1.94.23-3.87.48-5.81.72l-.27-.73c3.12-2.24,6.27-4.46,9.37-6.73s5.64-4.47,6.85-8.17c1.57-4.78,1-6.83-3.57-8.91-1.12-.51-2.68-.08-4-.08Z" transform="translate(-923.55 662.69)"/></svg>