<svg id="Õ_1" data-name="Õº≤„ 1" xmlns="http://www.w3.org/2000/svg" viewBox="0 0 865.07 865.07"><defs><style>.cls-1,.cls-2,.cls-3{fill:none;stroke-miterlimit:10;stroke-width:0.5px;}.cls-1,.cls-2{stroke:#2e3192;}.cls-2{fill-rule:evenodd;}.cls-3{stroke:#363639;}</style></defs><title>Meghan Krampf - St Louis Skyline Tea Light Holder by TorchIt [Converted]</title><line class="cls-1" x1="766.47" y1="577.31" x2="820.32" y2="577.31"/><line class="cls-1" x1="658.76" y1="577.31" x2="712.59" y2="577.31"/><line class="cls-1" x1="551.05" y1="577.31" x2="604.88" y2="577.31"/><polygon class="cls-2" points="766.47 316.09 820.32 316.09 820.32 361.88 812.24 361.88 812.24 415.72 820.32 415.72 820.32 469.6 812.24 469.6 812.24 523.44 820.32 523.44 820.32 577.32 766.47 577.32 766.47 569.23 712.6 569.23 712.6 577.32 658.76 577.32 658.76 569.23 604.88 569.23 604.88 577.32 551.04 577.32 551.04 569.23 497.17 569.23 497.17 577.32 443.32 577.32 443.32 523.44 451.4 523.44 451.4 469.6 443.32 469.6 443.32 415.72 451.4 415.72 451.4 361.88 443.32 361.88 443.32 316.09 497.17 316.09 497.17 308.02 551.04 308.02 551.04 316.09 604.88 316.09 604.88 308.02 658.76 308.02 658.76 316.09 712.59 316.09 712.59 308.02 766.47 308.02 766.47 316.09"/><polyline class="cls-2" points="497.17 577.31 443.32 577.32 443.32 623.11 451.4 623.11 451.4 676.95 443.32 676.95 443.32 730.83 451.4 730.83 451.4 784.66 443.32 784.66 443.32 838.53 497.17 838.53 497.17 830.45 551.04 830.45 551.04 838.53 604.88 838.53 604.88 830.45 658.76 830.45 658.76 838.53 712.6 838.53 712.6 830.45 766.47 830.45 766.47 838.53 820.32 838.53 820.32 784.66 812.24 784.66 812.24 730.83 820.32 730.83 820.32 676.95 812.24 676.95 812.24 623.11 820.32 623.11 820.32 577.32"/><polyline class="cls-2" points="443.32 316.09 389.48 316.09 389.48 308.02 335.6 308.02 335.6 316.09 281.76 316.09 281.76 308.02 227.88 308.02 227.88 316.09 174.05 316.09 174.05 308.02 120.17 308.02 120.17 316.09 66.32 316.09 66.32 361.88 74.4 361.88 74.4 415.72 66.32 415.72 66.32 469.6 74.4 469.6 74.4 523.44 66.32 523.44 66.32 577.31 120.17 577.31 120.17 569.23 174.05 569.23 174.05 577.31 227.88 577.31 227.88 569.23 281.76 569.23 281.76 577.31 335.6 577.31 335.6 569.23 389.48 569.23 389.48 577.31 443.32 577.31"/><polyline class="cls-2" points="443.32 415.72 435.24 415.72 435.24 361.88 443.32 361.88"/><polyline class="cls-2" points="443.32 469.6 435.24 469.6 435.24 523.44 443.32 523.44"/><polyline class="cls-2" points="389.47 569.23 389.47 577.31 443.32 577.31 443.32 623.11 435.24 623.11 435.24 676.94 443.32 676.94 443.32 730.82 435.24 730.82 435.24 784.66 443.32 784.66 443.32 838.53 389.47 838.53 389.47 830.45 335.6 830.45 335.6 838.53 281.76 838.53 281.76 830.45 227.88 830.45 227.88 838.53 174.05 838.53 174.05 830.45 120.17 830.45 120.17 838.53 66.32 838.53 66.32 784.66 74.4 784.66 74.4 730.82 66.32 730.82 66.32 676.94 74.4 676.94 74.4 623.11 66.32 623.11 66.32 577.31 120.17 577.31 120.17 569.23"/><polyline class="cls-2" points="281.76 569.23 281.76 577.31 335.6 577.31 335.6 569.23"/><polygon class="cls-2" points="567.18 241.98 559.11 241.98 559.11 188.1 567.18 188.1 567.18 134.26 559.11 134.26 559.11 80.38 567.18 80.38 567.18 34.61 612.96 34.61 612.96 26.53 666.83 26.53 666.83 34.61 720.67 34.61 720.67 26.53 774.55 26.53 774.55 34.61 820.32 34.61 820.32 80.38 828.4 80.38 828.4 134.26 820.32 134.26 820.32 188.1 828.4 188.1 828.4 241.98 820.32 241.98 820.32 287.75 774.55 287.75 774.55 295.83 720.67 295.83 720.67 287.75 666.83 287.75 666.83 295.83 612.96 295.83 612.96 287.75 567.18 287.75 567.18 241.98"/><path class="cls-2" d="M1467.49-599.9v78.81q-16.22-1.38-32.42-3.24a89.93,89.93,0,0,0-11-24.19C1437.39-564.74,1452.89-583.22,1467.49-599.9Z" transform="translate(-923.55 662.69)"/><path class="cls-2" d="M1439.52-595.06l-23.67,35.66A91,91,0,0,0,1403.52-571l35.52-24.1-.11.18c.31-.24.64-.46,1-.7C1439.76-595.41,1439.65-595.22,1439.52-595.06Z" transform="translate(-923.55 662.69)"/><path class="cls-2" d="M1440.24-619q-23.55,20.86-48.27,40.44a89.73,89.73,0,0,0-24.72-9.29c-1-9.86-2-20.41-2.89-31.15Z" transform="translate(-923.55 662.69)"/><path class="cls-2" d="M1336.73-589.18l6-29.86h5l5.75,29.28c-1.77-.1-3.55-.17-5.35-.17A91.12,91.12,0,0,0,1336.73-589.18Z" transform="translate(-923.55 662.69)"/><path class="cls-2" d="M1252.45-590.82c-.15-.18-.28-.38-.4-.57,1.91,1.39,3.87,2.75,5.78,4.14l30,20.46a90.86,90.86,0,0,0-10.92,11.72Z" transform="translate(-923.55 662.69)"/><path class="cls-2" d="M1228.8-591.32q20.81,23.47,40.28,48a89.74,89.74,0,0,0-9.25,24.56c-9.81,1-20.33,1.93-31,2.85Z" transform="translate(-923.55 662.69)"/><path class="cls-2" d="M1247.65-619h78.93q-1.39,16.33-3.27,32.6a89.93,89.93,0,0,0-24.11,10.94C1282.94-588.85,1264.39-604.43,1247.65-619Z" transform="translate(-923.55 662.69)"/><circle class="cls-1" cx="424.6" cy="163.15" r="84.44"/><path class="cls-2" d="M1233.44-493.54c-1.54-.26-3.1-.51-4.64-.75v-5.15l29.11-5.06c-.09,1.65-.14,3.3-.14,5a91.15,91.15,0,0,0,.7,11.08Z" transform="translate(-923.55 662.69)"/><path class="cls-2" d="M1274.56-428.87l6.68-9.91a90.93,90.93,0,0,0,11.46,10.59l-34.88,24.1.64-1c-.7.51-1.41,1-2.13,1.52Q1265.68-416,1274.56-428.87Z" transform="translate(-923.55 662.69)"/><path class="cls-2" d="M1261-384.39q21.17-18.6,43.23-36.13A89.72,89.72,0,0,0,1329-411.2c.85,8.52,1.71,17.55,2.52,26.8Z" transform="translate(-923.55 662.69)"/><path class="cls-2" d="M1228.8-399.17v-78.7q16.26,1.37,32.47,3.23a90,90,0,0,0,10.91,24C1258.9-434.35,1243.4-415.86,1228.8-399.17Z" transform="translate(-923.55 662.69)"/><path class="cls-2" d="M1359-409.81l-4.55,25.42h-6.29l-4.93-24.89c1.64.09,3.29.14,5,.14A91.07,91.07,0,0,0,1359-409.81Z" transform="translate(-923.55 662.69)"/><path class="cls-2" d="M1437.45-417.13c2.25,3.12,4.47,6.27,6.73,9.37l-.94-.66.44.64-35.09-24.55a90.94,90.94,0,0,0,10.91-11.74Z" transform="translate(-923.55 662.69)"/><path class="cls-2" d="M1467.49-407.53q-20.83-23.48-40.32-48.11a89.74,89.74,0,0,0,9.32-24.72c9.81-1,20.31-2,31-2.86Z" transform="translate(-923.55 662.69)"/><path class="cls-2" d="M1443.55-384.39h-73.44q1.26-14.14,2.87-28.23a89.91,89.91,0,0,0,23.95-10.83C1411.61-411.46,1428.15-397.69,1443.55-384.39Z" transform="translate(-923.55 662.69)"/><path class="cls-2" d="M1437.87-510.47l29.63,5.64v5l-29.1,5.42c.09-1.7.15-3.41.15-5.13A91.11,91.11,0,0,0,1437.87-510.47Z" transform="translate(-923.55 662.69)"/><polyline class="cls-2" points="289.82 80.38 297.89 80.38 297.89 34.61 343.66 34.61 343.66 26.54 397.54 26.54 397.54 34.61 451.38 34.61 451.38 26.54 505.26 26.54 505.26 34.61 551.03 34.61 551.03 80.38 559.11 80.38"/><circle class="cls-1" cx="163.25" cy="161.18" r="53.85"/><rect class="cls-1" x="36.67" y="34.61" width="253.15" height="253.13"/><path class="cls-2" d="M1289.55-333.41v8.22l3.17.58.52,2.76h23.64c5,0,6.74,1.61,6.22,6.4-1.79,0-3.64,0-5.49,0-4.94,0-6,1.32-4.29,5.14.39.86.91,1.67,1.35,2.45l9.09.57-.07.77h-9.49a28,28,0,0,0-3.05,3.78,4.87,4.87,0,0,0-.29,2.88,32.82,32.82,0,0,0,1,4,31.35,31.35,0,0,1,1.15,4.45,55.13,55.13,0,0,1,0,5.78c-6.66-1.21-11.86,1.12-12.62,5.25-10.66,3.23-22.11-.3-32.64,2.88.17,8.66.17,8.66-4,11.84,4.36,1.63,4.66,4.68,4.28,8-.6,5.25,2.58,5.8,7.47,5.9,10.9.22,21.82.07,32.72.07H1312c-1.48,3.47-5,1.52-7.46,2.54l-.29,4.48c-8.33,1.92-16.67,3.49-24.7,5.79-11.22,3.21-22.28,6.84-33.28,10.54-8.35,2.81-15.06,7.58-21.37,12.81-12.72,10.54-16,29.81.78,42.9A80.61,80.61,0,0,0,1251-159.15c14.23,4.53,28.59,8.78,42.9,13.15,1,.32,2.1.57,3.27.89-2.49,3-3.51,6.12-2.33,9.56.75,2.2,1.6,3.93,5.1,4.37,3.12.4,6,2,9,2.91a9.52,9.52,0,0,0,2.67.13c7.09,0,14.17,0,21.25,0a17.84,17.84,0,0,1,3.3.64l-.2,1h-14.31c-3.62,0-5,1.08-5.07,4.06-.06,5.23,0,10.45,0,15.78h-302.1V-333.41Z" transform="translate(-923.55 662.69)"/><path class="cls-2" d="M1324.35-220.72c-.06,4,2.06,4.88,5.4,4.39a2,2,0,0,1,.34,0c6.11.16,6.28.3,6.53,5.86h-15.11c0,2-.31,3.81.08,5.47.47,2-.87,3.06-2.42,4-2,1.25-4.12,2.33-6.32,3.56,1.44,1.11,2.61,2,3.81,2.93a9.47,9.47,0,0,0,6.35,2.06c5.07-.06,10.16.62,15.57,1v6.57l-3.53.58-.12.76,5.34.85.25.6a8.38,8.38,0,0,1-2.42.94c-2.65.15-4.56,1.23-5.38,3.16s-2.38,2.1-4.4,2.09c-6.52,0-13,0-19.56,0-2.09,0-3,.4-3,2.3,0,3.09-.58,6.17-.64,9.26-.1,5,0,5.07,5.92,5.22.42,0,.84.08,1.11.11l-1.92,3.73c-3.05-.23-5.21,1-6,4.22-10.44-2.17-20.79-4.16-31-6.5-14.25-3.26-27.85-7.78-39.85-15.09-7.61-4.63-12.89-10.65-14.45-18.37-2.12-10.45,3.94-18.35,13.4-24.45,11.54-7.44,25-12,39.06-15.12,9.86-2.18,19.87-3.87,29.74-6,3.18-.69,4.25,1.33,6.21,2.76-4.63,0-9.27-.11-13.9,0-3.89.12-8.53,4.15-8,7.05.2,1.09,1.54,2.15,2.61,3,2.3,1.85,4.81,3.37,8.38,3,2-.18,4,0,6.07,0Z" transform="translate(-923.55 662.69)"/><path class="cls-2" d="M1290.39-72.19V-64l3.17.58.52,2.76h23.64c5,0,6.74,1.61,6.22,6.4-1.79,0-3.64,0-5.49,0-4.94,0-6,1.32-4.29,5.14.39.86.91,1.67,1.35,2.45l9.09.57-.07.77H1315a28,28,0,0,0-3.05,3.78,4.87,4.87,0,0,0-.29,2.88,32.8,32.8,0,0,0,1,4,31.38,31.38,0,0,1,1.15,4.45,55.16,55.16,0,0,1,0,5.78c-6.66-1.21-11.86,1.12-12.62,5.25-10.66,3.23-22.11-.3-32.64,2.88.17,8.66.17,8.66-4,11.84,4.36,1.63,4.66,4.68,4.28,8-.6,5.25,2.58,5.8,7.47,5.9,10.9.22,21.82.07,32.72.07h3.86c-1.48,3.47-5,1.52-7.46,2.54l-.29,4.48c-8.33,1.92-16.67,3.49-24.7,5.79-11.22,3.21-22.28,6.84-33.28,10.54-8.35,2.81-15.06,7.58-21.37,12.81-12.72,10.54-16,29.81.78,42.9a80.61,80.61,0,0,0,25.32,13.41c14.23,4.53,28.59,8.78,42.9,13.15,1,.32,2.1.57,3.27.89-2.49,3-3.51,6.12-2.33,9.56.75,2.2,1.6,3.93,5.1,4.37,3.12.4,6,2,9,2.91a9.51,9.51,0,0,0,2.67.13c7.09,0,14.17,0,21.25,0a17.84,17.84,0,0,1,3.3.64l-.2,1h-14.31c-3.62,0-5,1.08-5.07,4.06-.06,5.23,0,10.45,0,15.78h-302.1V-72.19Z" transform="translate(-923.55 662.69)"/><path class="cls-2" d="M1325.2,40.5c-.06,4,2.06,4.88,5.4,4.39a2,2,0,0,1,.34,0c6.11.16,6.28.3,6.53,5.86h-15.11c0,2-.31,3.81.08,5.47.47,2-.87,3.06-2.42,4-2,1.25-4.12,2.33-6.32,3.56,1.44,1.11,2.61,2,3.81,2.93a9.47,9.47,0,0,0,6.35,2.06c5.07-.06,10.16.62,15.57,1V76.4l-3.53.58-.12.76,5.34.85.25.6a8.38,8.38,0,0,1-2.42.94c-2.65.15-4.56,1.23-5.38,3.16s-2.38,2.1-4.4,2.09c-6.52,0-13,0-19.56,0-2.09,0-3,.4-3,2.3,0,3.09-.58,6.17-.64,9.26-.1,5,0,5.07,5.92,5.22.42,0,.84.08,1.11.11l-1.92,3.73c-3.05-.23-5.21,1-6,4.22-10.44-2.17-20.79-4.16-31-6.5-14.25-3.26-27.85-7.78-39.85-15.09-7.61-4.63-12.89-10.65-14.45-18.37-2.12-10.45,3.94-18.35,13.4-24.45,11.54-7.44,25-12,39.06-15.12,9.86-2.18,19.87-3.87,29.74-6,3.18-.69,4.25,1.33,6.21,2.76-4.63,0-9.27-.11-13.9,0-3.89.12-8.53,4.15-8,7.05.2,1.09,1.54,2.15,2.61,3,2.3,1.85,4.81,3.37,8.38,3,2-.18,4,0,6.07,0Z" transform="translate(-923.55 662.69)"/><polyline class="cls-2" points="559.11 134.26 551.03 134.26 551.03 188.1 559.11 188.1"/><polyline class="cls-2" points="559.11 241.98 551.03 241.98 551.03 287.75 505.26 287.75 505.26 295.83 451.38 295.83 451.38 287.75 397.54 287.75 397.54 295.83 343.66 295.83 343.66 287.75 297.89 287.75 297.89 241.98 289.82 241.98"/><polyline class="cls-2" points="289.82 134.26 297.89 134.26 297.89 188.1 289.82 188.1"/><path class="cls-2" d="M1413.77-333.46h258L1659.89-324c13.65,12,15.68,26,15.4,41.47-.56,31.55-.17,63.12-.17,94.68v6.7h-27.37c1.77-9.17,3.93-18.1,5.15-27.15,3.77-27.85,3.87-55.56-6.61-82.2-9.79-24.9-27.91-37.4-52.79-37.15-18.25.18-32,8.73-40.19,24.62-5,9.81-7.55,20.91-11.44,32.13h-18.44v-28.2c-6.57,3.69-12.19,6.68-17.58,10-1,.59-1.32,2.72-1.32,4.14-.09,17.16-.13,34.32,0,51.48a6.49,6.49,0,0,0,2.3,4.77c5,3.13,10.21,5.78,16.28,9.11v-27.83h20.35v66.12h-66.42c.62-13.46.91-26.8,1.92-40.08,1.7-22.26,5.28-44.2,12.29-65.5.41-1.24-.15-3.73-1.09-4.33-8.09-5.13-16.38-10-25.68-15.53,4.88,27-6.16,51.2-7.92,76.43-1,14.35-2.06,28.69-3.06,43-.13,1.91,0,3.84,0,6.09h-21.13v-16.16h-18.6Z" transform="translate(-923.55 662.69)"/><path class="cls-2" d="M1568.24-180.77v-66.9h21v-22.64H1569c.1-14.51,7.75-25.71,19.11-28.82,13.59-3.72,25.06,1.09,32.46,13.93,8.36,14.52,10.57,30.68,9.38,46.85-1.31,17.78-4.68,35.41-7.46,53.06-.26,1.68-2.65,4.29-4.09,4.32C1601.87-180.66,1585.35-180.77,1568.24-180.77Z" transform="translate(-923.55 662.69)"/><path class="cls-2" d="M1697.07-139.4v32.68H1522.51c26.26-7.31,40.06-24.14,44.93-49.13h45.48L1605-137l20.42,15.79c3.9-9.39,8.21-18.18,11.17-27.4,2-6.23,5.06-8.07,11.33-7.66,8.79.58,17.65.15,27.2.15v16.74Z" transform="translate(-923.55 662.69)"/><path class="cls-2" d="M1498.84-106.58h-85.21v-32.65H1432v-16.4h22.1C1459.16-130.34,1474.14-114.06,1498.84-106.58Z" transform="translate(-923.55 662.69)"/><path class="cls-2" d="M1477.43-155.89h66c-.25,14.65-13.49,26.29-31,27.5C1495.75-127.23,1479.85-139.53,1477.43-155.89Z" transform="translate(-923.55 662.69)"/><path class="cls-2" d="M1697.1-315.22l-9.68-17.92h9.68Z" transform="translate(-923.55 662.69)"/><path class="cls-2" d="M1413.77-68.21h258l-11.86,9.49c13.65,12,15.68,26,15.4,41.47-.56,31.55-.17,63.12-.17,94.68v6.7h-27.37c1.77-9.17,3.93-18.1,5.15-27.15,3.77-27.85,3.87-55.56-6.61-82.2-9.79-24.9-27.91-37.4-52.79-37.15-18.25.18-32,8.73-40.19,24.62-5,9.81-7.55,20.91-11.44,32.13h-18.44v-28.2c-6.57,3.69-12.19,6.68-17.58,10-1,.59-1.32,2.72-1.32,4.14-.09,17.16-.13,34.32,0,51.48a6.49,6.49,0,0,0,2.3,4.77c5,3.13,10.21,5.78,16.28,9.11V17.91h20.35V84h-66.42c.62-13.46.91-26.8,1.92-40.08,1.7-22.26,5.28-44.2,12.29-65.5.41-1.24-.15-3.73-1.09-4.33-8.09-5.13-16.38-10-25.68-15.53,4.88,27-6.16,51.2-7.92,76.43-1,14.35-2.06,28.69-3.06,43-.13,1.91,0,3.84,0,6.09h-21.13V68h-18.6Z" transform="translate(-923.55 662.69)"/><path class="cls-2" d="M1568.24,84.48V17.58h21V-5.06H1569c.1-14.51,7.75-25.71,19.11-28.82,13.59-3.72,25.06,1.09,32.46,13.93,8.36,14.52,10.57,30.68,9.38,46.85-1.31,17.78-4.68,35.41-7.46,53.06-.26,1.68-2.65,4.29-4.09,4.32C1601.87,84.59,1585.35,84.48,1568.24,84.48Z" transform="translate(-923.55 662.69)"/><path class="cls-2" d="M1697.07,125.86v32.68H1522.51c26.26-7.31,40.06-24.14,44.93-49.13h45.48l-8,18.84L1625.38,144c3.9-9.39,8.21-18.18,11.17-27.4,2-6.23,5.06-8.07,11.33-7.66,8.79.58,17.65.15,27.2.15v16.74Z" transform="translate(-923.55 662.69)"/><path class="cls-2" d="M1498.84,158.67h-85.21V126H1432v-16.4h22.1C1459.16,134.92,1474.14,151.19,1498.84,158.67Z" transform="translate(-923.55 662.69)"/><path class="cls-2" d="M1477.43,109.36h66c-.25,14.65-13.49,26.29-31,27.5C1495.75,138,1479.85,125.72,1477.43,109.36Z" transform="translate(-923.55 662.69)"/><path class="cls-2" d="M1697.1-50l-9.68-17.92h9.68Z" transform="translate(-923.55 662.69)"/><rect class="cls-3" x="0.25" y="0.25" width="864.57" height="864.57"/></svg>